<?xml version="1.0" encoding="utf-8"?>
<!-- Generator: Adobe Illustrator 28.2.0, SVG Export Plug-In . SVG Version: 6.00 Build 0)  -->
<svg version="1.1" id="레이어_1" xmlns="http://www.w3.org/2000/svg" xmlns:xlink="http://www.w3.org/1999/xlink" x="0px"
	 y="0px" viewBox="0 0 284 95.2" style="enable-background:new 0 0 284 95.2;" xml:space="preserve">
<style type="text/css">
	.st0{fill:#35652D;}
	.st1{fill:url(#SVGID_1_);}
</style>
<g>
	<g>
		<g>
			<path class="st0" d="M85.1,32.6h-6.5c-5.3,0-7.7,1.8-7.7,7v4.6c0,5.1,2.4,7,7.7,7h6.5c5.3,0,7.7-1.8,7.7-7v-4.6
				C92.8,34.4,90.4,32.6,85.1,32.6z M87.7,43c0,2.8-1.2,3.6-4,3.6h-3.7c-2.8,0-4-0.7-4-3.6v-2.4c0-2.8,1.2-3.6,4-3.6h3.7
				c2.8,0,4,0.7,4,3.6V43z"/>
			<path class="st0" d="M13.8,32.6H0v18.5h13.8c4.7,0,7.1-2,7.1-6.1v-6.4C20.9,34.5,18.4,32.6,13.8,32.6z M15.9,43.5
				c0,1.9-1.4,3.1-3.7,3.1H5V37h7.3c2.3,0,3.7,1.2,3.7,3.1V43.5z"/>
			<path class="st0" d="M35.3,46.6h-2.5c-2.8,0-4-0.7-4-3.6v-2.4c0-2.8,1.2-3.6,4-3.6h2.5c2.4,0,3.6,0.5,3.9,2.4h5.2
				c0-5.1-2.4-6.9-7.7-6.9h-5.3c-5.3,0-7.7,1.8-7.7,7v4.6c0,5.1,2.4,7,7.7,7h5.3c5.3,0,7.7-1.8,7.7-6.9h-5.2
				C38.8,46.1,37.6,46.6,35.3,46.6z"/>
			<path class="st0" d="M58.9,46.6h-2.5c-2.8,0-4-0.7-4-3.6v-2.4c0-2.8,1.2-3.6,4-3.6h2.5c2.4,0,3.6,0.5,3.9,2.4H68
				c0-5.1-2.4-6.9-7.7-6.9H55c-5.3,0-7.7,1.8-7.7,7v4.6c0,5.1,2.4,7,7.7,7h5.3c5.3,0,7.7-1.8,7.7-6.9h-5.2
				C62.5,46.1,61.3,46.6,58.9,46.6z"/>
		</g>
	</g>
	<g>
		
			<linearGradient id="SVGID_1_" gradientUnits="userSpaceOnUse" x1="-1742.3401" y1="-1257.2737" x2="-1829.8402" y2="-1141.7737" gradientTransform="matrix(0.6322 0 0 0.6322 1391.8721 795.5928)">
			<stop  offset="0" style="stop-color:#E5E79C"/>
			<stop  offset="0.5393" style="stop-color:#529F45"/>
			<stop  offset="1" style="stop-color:#427E37"/>
		</linearGradient>
		<path class="st1" d="M243.5,25c33.5-0.9,36.6,10.1,35.8,16.1c-2.2,14.2-24.2,22.7-39.4,25.3l38.3,4.4c3.3,0.3,5.8-1.5,5.8-5.5V4.2
			c0-3.7-2.8-5.1-6-3.6l-45.7,20.7c-4.4,2.1-5.9,4.8-5.9,9.2l0.1,25c13.9-2.2,38.6-6.5,41.1-16.5c1.1-5.3-4-8.5-14.7-9.8
			c-1.6,4.5-5,14.6-6.7,19.8c-4.2,1.5-8.2,2.4-11.9,3C240.3,35.7,243.3,29.1,243.5,25z"/>
		<g>
			<g>
				<g>
					<g>
						<path class="st0" d="M63.8,67.9c0,0-4.2,0-4.9,0c0,0.6,0,2.8,0,3.4c0.7,0,4.9,0,4.9,0s0,9.3,0,10c0.6,0,4.7,0,5.3,0
							c0-0.7,0-20.1,0-20.9c-0.6,0-4.7,0-5.3,0C63.8,61.1,63.8,67.9,63.8,67.9z"/>
						<path class="st0" d="M69.1,89.6H47.9c-1.2,0-2.2-1.5-2.2-2.7v-5.2c-1.4,0-4.1,0-5.5,0v6.9c0,2.4,2,4.4,4.4,4.4h24.5V89.6z"/>
					</g>
					<path class="st0" d="M52.8,63.8c0,0,6.5,0,7.2,0c0-0.6,0-2.8,0-3.4H37.9c0,0.6,0,2.8,0,3.4c0.8,0,7.5,0,7.5,0L37.6,79h5.6
						l5.9-11.6L54.5,79h5.6L52.8,63.8z"/>
				</g>
				<g>
					<path class="st0" d="M84.1,75.8c-1.2,0-2.2-1-2.2-2.2v-9.8c0,0,22.9,0,23.7,0c0-0.6,0-2.8,0-3.4H76.1l0,14.4
						c0,2.4,2,4.4,4.4,4.4h8.1v7.6h-15c0,0.6,0,2.7,0,3.3h34.8c0-0.6,0-2.7,0-3.3h-14v-7.6h11.4c0-0.6,0-2.8,0-3.4H84.1z"/>
					<path class="st0" d="M27.3,70.4h-3.8c0,0,0-9.3,0-10h-5.3v21.4H8c-1.2,0-2.2-1-2.2-2.2V63.8h9.5v-3.4H0v20.4
						c0,2.4,2,4.4,4.4,4.4h13.9V93c0.6,0,4.7,0,5.3,0V73.8h3.8V93c0.6,0,4.7,0,5.3,0V60.4h-5.3V70.4z"/>
					<g>
						<path class="st0" d="M129.5,83.5h5.8L130,64.1c-0.8-2.2-2.8-3.6-5.1-3.7c0,0-7.4,0-7.9,0l-6.7,23.1h5.8l5.4-19.8h1.5
							c0.6,0,1.2,0.4,1.5,1L129.5,83.5z"/>
						<rect x="138.2" y="60.4" class="st0" width="5.8" height="32.6"/>
					</g>
					<path class="st0" d="M193.7,60.4L187,83.5h5.8l5.4-19.8h1.5c0.6,0,1.2,0.4,1.4,1l5.1,18.7h5.8l-5.4-19.5
						c-0.8-2.2-2.8-3.6-5.1-3.7H193.7z"/>
					<polygon class="st0" points="226.4,73.8 226.4,70.4 220.7,70.4 220.7,60.4 214.9,60.4 214.9,93 220.7,93 220.7,73.8 					"/>
					<path class="st0" d="M151.8,60.4c0,0.6,0,2.8,0,3.4h22.3c1.2,0,2.2,1,2.2,2.2v8.3H168v-5.8h-5.8v5.8H149v3.4c0.7,0,9.3,0,9.3,0
						l-0.5,0.6c-1.5,1.8-2.3,4-2.3,6.3c0,5.8,5,10.5,11.2,10.5c6.2,0,11.2-4.7,11.2-10.5c0-2.3-0.8-4.5-2.3-6.3l-0.5-0.6h9.3v-3.4
						h-2.2v-9.5c0-2.4-2-4.4-4.4-4.4H151.8z M166.7,91.2c-3.4,0-6.1-2.9-6.1-6.6c0-3.6,2.8-6.6,6.1-6.6c3.4,0,6.1,2.9,6.1,6.6
						C172.8,88.3,170.1,91.2,166.7,91.2z"/>
				</g>
			</g>
		</g>
	</g>
</g>
</svg>
