<?xml version="1.0" encoding="UTF-8"?>
<svg xmlns="http://www.w3.org/2000/svg" version="1.1" viewBox="0 0 245.5 46.4">
  <defs>
    <style>
      .cls-1 {
        fill: #4f80c1;
      }

      .cls-2 {
        fill: #222221;
      }
    </style>
  </defs>
  <!-- Generator: Adobe Illustrator 28.6.0, SVG Export Plug-In . SVG Version: 1.2.0 Build 709)  -->
  <g>
    <g id="Layer_1">
      <g>
        <g>
          <g>
            <path class="cls-1" d="M107.3,13.9c-.2.8-.6,1.5-1,2.1-.4.6-.9,1-1.5,1.2-.6.3-1.2.4-1.8.4s-1.2-.1-1.7-.4c-.6-.2-1.1-.7-1.5-1.2-.4-.6-.8-1.3-1-2.1-.2-.8-.4-1.9-.4-3.1s.1-2.3.4-3.2c.3-.9.6-1.6,1-2.1.5-.6,1-1,1.5-1.2.5-.2,1.1-.3,1.7-.3s1.2.1,1.7.4c.6.2,1.1.7,1.5,1.2.4.6.8,1.3,1,2.1.3.9.4,1.9.4,3.1s-.1,2.3-.4,3.1ZM110.3,2.9c-1.8-1.9-4.2-2.9-7.3-2.9s-5.5,1-7.3,2.9c-1.8,1.9-2.7,4.5-2.7,7.9s.9,5.9,2.7,7.8c1.8,1.9,4.2,2.9,7.3,2.9s5.5-1,7.3-2.9c1.8-1.9,2.7-4.5,2.7-7.9s-.9-6-2.7-7.9Z"/>
            <path class="cls-1" d="M18.1,21.1h-6.3l-5.6-8.4-1,1.4v7H0V.5h5.2v9.2L11.8.5h6l-7.4,9.6,7.7,11.1Z"/>
            <path class="cls-1" d="M31.5,13.9c-.2.8-.6,1.5-1,2.1-.4.6-.9,1-1.5,1.2-.6.3-1.2.4-1.8.4s-1.2-.1-1.7-.4c-.6-.2-1.1-.7-1.5-1.2-.4-.6-.8-1.3-1-2.1-.2-.8-.4-1.9-.4-3.1s.1-2.3.4-3.2c.3-.9.6-1.6,1-2.1.5-.6,1-1,1.5-1.2.5-.2,1.1-.3,1.7-.3s1.2.1,1.7.4c.6.2,1.1.7,1.5,1.2.4.6.8,1.3,1,2.1.3.9.4,1.9.4,3.1s-.1,2.3-.4,3.1ZM34.5,2.9C32.7,1,30.3,0,27.2,0s-5.6,1-7.3,2.9c-1.8,1.9-2.7,4.5-2.7,7.9s.9,5.9,2.7,7.8c1.8,1.9,4.2,2.9,7.3,2.9s5.5-1,7.3-2.9c1.8-1.9,2.7-4.5,2.7-7.9s-.9-6-2.7-7.9Z"/>
            <path class="cls-1" d="M69.5,13.4l-2.5-.6c-.9-.2-1.7-.4-2.4-.7-1.7-.6-2.9-1.4-3.6-2.4,0,0,0,0,0,0-.7-1-1.1-2-1.1-3.5s.4-2.5,1.1-3.5V.5h-6l-4.6,10.2L45.8.5h-6v20.6h4.9V7.4l3.8,8.8h3.5l3.8-8.8v13.7h5.2v-4.7c.8.6,1.7,1,2.7,1.4,1.4.5,2.8.8,4.1.8s.8,0,1.3-.1h0c.6,0,1-.2,1.4-.4.4-.2.8-.4,1.1-.8.3-.4.4-.8.5-1.4,0-.8-.3-2-2.5-2.6Z"/>
            <path class="cls-1" d="M81.2,5.5c.6-.6,1.2-1,1.8-1.2.6-.2,1.3-.4,2.1-.4s1.2.1,1.8.3c.6.2,1.1.5,1.6.7.5.3.9.6,1.3.9.4.3.7.6.9.8h.5V1.8c-.3-.2-.8-.4-1.3-.6-.6-.2-1.1-.4-1.5-.6-.6-.2-1.2-.3-1.9-.4-.7,0-1.4-.1-2.2-.1-3.1,0-5.6,1-7.4,2.9-.2.2-.3.3-.4.5-.4.4-.7.9-.9,1.4-.7-.5-1.5-.9-2.3-1.2-1.2-.5-2.5-.8-3.8-.8s-1,0-1.4.1c-.4,0-.9.2-1.3.4-.4.2-.7.4-1,.8-.3.4-.4.8-.4,1.2,0,.7.2,1.2.7,1.6.4.4,1.3.7,2.5,1l2.2.5c.7.2,1.4.4,2.2.7.5.2.9.4,1.4.6.9.5,1.6,1,2,1.6.7.9,1.1,2.1,1.1,3.6s-.3,2.3-.8,3.3c.1.1.2.3.4.4,1.8,1.9,4.3,2.8,7.4,2.8s1.8,0,2.3-.2c.6-.1,1.2-.3,1.8-.4.5-.2,1-.3,1.5-.6.5-.2.9-.4,1.3-.6v-4.8h-.5c-.3.2-.6.5-.9.8-.4.3-.8.6-1.2.9-.4.3-.9.5-1.6.7-.6.2-1.3.3-2,.3s-1.3-.1-2-.3c-.7-.2-1.3-.6-1.8-1.1-.6-.5-1-1.2-1.3-2.1-.3-.9-.5-1.9-.5-3.2s.2-2.3.5-3.2c.3-.9.8-1.6,1.3-2.1Z"/>
          </g>
          <g>
            <path class="cls-1" d="M154.8,9c.5-.8.9-1.9,1.4-3.3.5-1.4.8-2.7,1-3.9,0,0-3.1.2-4.2.2-1.2,0-3.1,0-5.7,0s-1,0-1.6-.1c-.6,0-1.1-.1-1.3-.1l-.4.6,3,1.1c.3-.2.6-.3.8-.4.2,0,.5,0,.7-.1.3,0,1.3,0,2.8-.1,1.6,0,2.9,0,3.9-.1,0,1-.2,2.1-.4,3.3-.2,1.2-.4,2.2-.7,3-.5,0-1.1,0-1.5,0-.5,0-.9,0-1.3,0-1.4,0-2.6,0-3.8,0-1.1,0-2.1,0-3,0s-1.2,0-2-.1-1.4-.2-1.7-.2l-.5.7,3.7,1.2c.3-.2.5-.3.8-.4.3,0,.5-.1.8-.1.2,0,.7,0,1.4-.1.7,0,1.6-.1,2.7-.1v4.4h-2.6c-.5,0-1,0-1.7-.1-.6,0-1.1-.1-1.3-.1l-.4.5,3,1.1c.3-.2.5-.3.8-.4.2,0,.5,0,.7-.1.3,0,1.5,0,2.9,0,1.4,0,3,0,4.1,0v4.5s.2,2,.2,2h1c0-.3.3-.6.4-1.1.1-.5.2-1,.2-1.4v-4.3s0-.9,0-.9c0,0-4.6.3-5.5.4v-4.4c1.5,0,3.1,0,4.8,0,1.7,0,3.3,0,4.4.1v-1.5c-.8,0-1.7.2-2.7.2-1,0-1.8.1-2.9.2Z"/>
            <g>
              <path class="cls-1" d="M245.5,8.7c-.7,0-1.5.2-2.2.2-.7,0-1.4,0-2,0V2.5c0-.3,0-.6,0-1,0-.4,0-.6,0-.8l-3.2-.7-.5.6c.6.2,1.1.5,1.4.8.3.3.4.7.4,1.2v16.9c0,0,.2,2.2.2,2.2h.9c0-.3.2-.7.3-1.3.1-.6.2-1.1.2-1.6v-8.7c.6,0,1.2,0,1.9,0,.7,0,1.6,0,2.3.1v-1.5Z"/>
              <path class="cls-1" d="M231.3,9.2c.5-.9,1-1.8,1.3-2.7.4-.9.6-1.7.7-2.5l-3.4-1-.5.4c.8.4,1.2.7,1.4,1,.1.3.1.7,0,1.1-.4,1.5-1.1,3.2-2.1,4.9-1,1.8-2.3,3.2-3.9,4.3l.6.3c1-.6,2-1.3,3-2.2.9-.9,1.8-1.9,2.5-3,.5.5,1.2,1.3,2.2,2.3.9,1,1.7,1.9,2.3,2.7l1.3-1.3c-.8-.6-1.8-1.3-2.9-2.3-1.1-.9-2-1.6-2.5-2.1Z"/>
            </g>
            <g>
              <path class="cls-1" d="M135.4,7.9V2.5c0-.3,0-.6,0-1,0-.4,0-.6,0-.8l-3.2-.7-.5.6c.7.2,1.1.5,1.4.8.3.3.4.7.4,1.2v11.8c0,0,.3,2.1.3,2.1h.9c0-.3.2-.7.3-1.2.1-.6.2-1.1.2-1.5v-4.7c.6,0,1.2,0,2,0,.7,0,1.6,0,2.2.1v-1.5c-.7,0-1.5.2-2.2.2-.7,0-1.4,0-1.9,0Z"/>
              <path class="cls-1" d="M124.9,3.5c.2,0,.4,0,.6,0,.7,0,1.2,0,1.5,0s.9,0,1.4,0v-1.2c-.6,0-1.2,0-1.8,0-.7,0-1.2,0-1.7-.1-.6,0-1-.2-1.5-.2-.4,0-.7-.1-.9-.2l-.5.5,2.3,1.4c.2,0,.5-.1.7-.2Z"/>
              <path class="cls-1" d="M128.6,19.9c-.4,0-.7,0-.9-.2-.2-.2-.3-.4-.3-.7v-1.5c0-.3,0-.6,0-.9,0-.3,0-.6,0-.8l-3.3-.4-.3.5c.8.2,1.3.5,1.5.7.2.2.3.7.3,1.3v1.9c0,.3.1.5.3.7.2.2.5.3,1,.3.1,0,1.1,0,3-.1,1.9,0,4.1,0,6.5,0v-1.3c-1.5.2-3.1.3-4.9.3-1.8,0-2.8,0-2.9,0Z"/>
              <path class="cls-1" d="M122.1,6.3c.2,0,.4,0,.6-.1.3,0,.6,0,1-.1.4,0,1,0,1.8,0s2,0,2.9,0c.8,0,1.8,0,2.7.1v-1.3c-1,0-1.9.2-2.8.2-.9,0-1.8,0-2.8.1-.7,0-1.3,0-1.9,0-.5,0-1.1,0-1.8,0s-.9,0-1.5-.1c-.5,0-.9-.1-1.2-.1l-.3.5,2.6,1.1c.2-.1.5-.2.7-.3Z"/>
              <path class="cls-1" d="M128.6,13c.5-.4.8-.8,1.1-1.2,0,0,0,0,0,0,.2-.3.2-.7.2-1.1s0,0,0,0,0,0,0,0c0-1-.4-1.8-1.3-2.4-.9-.7-1.9-1-3.2-1s-2.3.3-3.2,1c-.5.4-.8.8-1.1,1.2,0,0,0,0,0,0-.2.3-.2.7-.2,1.1s0,0,0,0,0,0,0,0c0,.9.4,1.8,1.3,2.4.9.7,1.9,1,3.2,1s2.3-.3,3.2-1ZM122.6,10.5c0-.7.3-1.3.8-1.8.5-.5,1.2-.8,2-.8s1.5.3,2.1.8c.5.5.8,1.1.8,1.8s-.3,1.3-.8,1.8c-.5.5-1.2.8-2.1.8s-1.5-.3-2-.8c-.5-.5-.8-1.1-.8-1.8Z"/>
            </g>
            <g>
              <path class="cls-1" d="M214.6,10.4h-.7v-2.8c0-.3,0-.6,0-.9,0-.3,0-.6.1-.8l-3-.4-.3.5c.7.2,1.1.5,1.2.7.1.2.2.6.2,1.2v2.5c-.8,0-1.8,0-2.5,0-.7,0-1.4,0-1.9,0s-1.2,0-2-.1c-.9,0-1.4-.1-1.7-.2l-.5.6,3.7,1.2c.3-.2.5-.3.8-.4.3,0,.5-.1.8-.1.3,0,.9,0,1.9-.2,1,0,2.2-.1,3.7-.1s3.1,0,4.9,0c1.7,0,3.4,0,4.6.1v-1.4c-1.3.2-2.9.3-4.6.3-1.7,0-3.3.1-4.7.1Z"/>
              <path class="cls-1" d="M211.1,3.1c.2,0,.5,0,.7-.1.3,0,1.3,0,3-.1,1.7,0,3.1,0,4.1-.1,0,1.1-.2,2.1-.4,3-.2.9-.4,1.8-.7,2.6l.9.2c.5-.9.9-1.9,1.3-3,.4-1.1.7-2.4,1-3.8,0,0-7.1.3-10.3.3s-1,0-1.6-.1c-.6,0-1.1-.1-1.3-.1l-.4.6,3,1.1c.3-.2.6-.3.8-.4Z"/>
              <path class="cls-1" d="M218,14c-1-.8-2.3-1.2-3.7-1.2s-2.7.4-3.7,1.2c-.6.4-1,.9-1.2,1.5,0,0,0,0,0,0-.2.4-.3.9-.3,1.3s0,0,0,0,0,0,0,0c0,1.1.5,2.1,1.5,2.9,1,.8,2.3,1.2,3.7,1.2s2.7-.4,3.7-1.2c.6-.4,1-.9,1.2-1.5,0,0,0,0,0,0,.2-.4.3-.9.3-1.3s0,0,0,0,0,0,0-.1c0-1.1-.5-2.1-1.5-2.9ZM216.9,19.3c-.6.7-1.5,1-2.5,1s-1.8-.3-2.5-1c-.7-.7-1-1.4-1-2.3s.3-1.6,1-2.3c.7-.7,1.5-1,2.5-1s1.9.3,2.5,1c.6.7,1,1.4,1,2.3s-.3,1.7-1,2.3Z"/>
            </g>
            <g>
              <path class="cls-1" d="M172.3,16.2v-2.4c0-.3,0-.6,0-1,0-.3,0-.6.1-.8l-2.9-.4-.4.5c.7.2,1.1.5,1.2.7.1.2.2.7.2,1.2v2.1c-1,0-2.2,0-3.1,0-.9,0-1.7,0-2.4,0s-1.2,0-2-.1c-.9,0-1.4-.1-1.7-.2l-.5.7,3.7,1.2c.3-.2.5-.3.8-.3.3,0,.5-.1.8-.1.3,0,.9,0,1.9-.2,1,0,2.2-.1,3.7-.1s3.1,0,4.9,0c1.7,0,3.4,0,4.6.2v-1.5c-1.3.2-2.8.3-4.5.3-1.7,0-3.1.1-4.4.1Z"/>
              <path class="cls-1" d="M163.2,11.8l.6.4c2.5-.5,5.4-1.9,7.9-3.7,1.2.5,2.6,1.2,3.7,1.7,1.3.6,2.3,1.2,3.2,1.7l.9-1.5c-1.1-.3-2.3-.7-3.6-1.2-1.1-.4-2.5-.9-3.6-1.3,2.2-1.6,3.9-3.5,4.7-5.2,0,0-3.3.1-4.2.2-1,0-2.5.1-4.7.1s-1,0-1.7-.1c-.6,0-1.1-.1-1.3-.1l-.4.5,3,1.1c.3-.2.5-.3.7-.3.2,0,.4,0,.6-.1.4,0,1,0,2-.1s2.2,0,3.1,0c-1.8,3-5.8,6.3-11,8Z"/>
            </g>
            <g>
              <path class="cls-1" d="M186.8,5.9c.2,0,.3-.1.5-.2.2,0,.5,0,.8-.1.3,0,.6,0,1,0,.7,0,1.3,0,1.8,0,.5,0,1.2,0,2,.1v-1.2c-1.1.1-5.5.3-6.2.3s-.9,0-1.5-.1c-.6,0-1-.1-1.3-.2l-.4.6,2.7,1.1c.2-.1.3-.2.5-.3Z"/>
              <path class="cls-1" d="M185,7.3c.7,1.5.8,3,.8,4.9s1.6.6,1.6-.5c0-1.9-.8-3.6-1.8-4.6l-.6.2Z"/>
              <path class="cls-1" d="M198,.5c.6.2,1,.5,1.3.8.2.3.3.7.3,1.2v16.9s.3,2.2.3,2.2h.9c0-.3.2-.7.3-1.3.1-.6.2-1.1.2-1.6V2.6c0-.3,0-.6.1-1,0-.4,0-.6,0-.8l-3-.7-.4.5Z"/>
              <path class="cls-1" d="M194.2,1.5c.6.2,1,.5,1.3.8.2.3.3.7.3,1.2v3.7c-.8,0-1.9,0-3.2-.2l-.3.5,1.7.9c.2-.1,1.2-.2,1.7-.3v2.9c-.9,0-2.1,0-3.4-.2l-.3.5,1.8,1c.2-.2,1.6-.3,1.9-.3v6.6s.2,2.2.2,2.2h.9c0-.3.2-.7.3-1.3.1-.6.2-1.1.2-1.6V3.6c0-.3,0-.6,0-1,0-.4,0-.6,0-.8l-3-.7-.4.5Z"/>
              <path class="cls-1" d="M190.4,13.5l1.2-4.6c0-.3.1-.5.2-.8,0-.3.1-.5.2-.6l-2.6-.8-.4.5c.6.3.9.6,1,.8,0,.3,0,.7,0,1.2l-.8,4.5c-1.7.1-3.4.1-5.7-.2l-.3.6,2.7,1.2c.4-.2,1.6-.4,1.8-.4,1.1-.1,2-.3,3-.4.9-.2,1.8-.3,2.6-.6l-.2-.7c-1,.2-1.9.3-2.7.4Z"/>
            </g>
          </g>
        </g>
        <g>
          <path class="cls-2" d="M127.5,36.4c-.9,2.2-2.9,3.7-5.8,4.6l-.5-1c3.2-1,5.2-2.7,5.4-5h-4.7v-1h6c0,.5,0,1-.1,1.4h3v-2.5h1.2v8h-1.2v-1.8h-3.5v-1h3.5v-1.8h-3.3ZM132.1,43.7c0,1.6-1.7,2.6-4.4,2.6s-4.4-1-4.4-2.6,1.7-2.6,4.4-2.6,4.4,1,4.4,2.6ZM130.9,43.7c0-1-1.3-1.6-3.2-1.6s-3.2.6-3.2,1.6,1.3,1.6,3.2,1.6,3.2-.6,3.2-1.6Z"/>
          <path class="cls-2" d="M141.1,39c-.6.7-1.6,1.2-2.7,1.2-2,0-3.5-1.3-3.5-3.2s1.5-3.2,3.5-3.2,2.1.4,2.7,1.1h3.4v-1.9h1.2v7.9h-1.2v-1.9h-3.4ZM138.4,39.1c1.3,0,2.3-.9,2.3-2.2s-1-2.1-2.3-2.1-2.3.9-2.3,2.1,1,2.2,2.3,2.2ZM145.9,43.8c0,1.6-1.7,2.6-4.5,2.6s-4.5-.9-4.5-2.6,1.7-2.6,4.5-2.6,4.5.9,4.5,2.6ZM144.7,43.8c0-1-1.2-1.6-3.3-1.6s-3.2.6-3.2,1.6,1.2,1.6,3.2,1.6,3.3-.6,3.3-1.6ZM141.7,35.9c.1.3.2.7.2,1s0,.7-.2,1h2.9v-2.1h-2.9Z"/>
          <path class="cls-2" d="M155.8,40.4c-1.5-.5-2.6-1.6-3.2-3-.6,1.6-1.8,2.8-3.4,3.4l-.6-1c2-.7,3.4-2.5,3.4-4.5v-.5h-3v-1h7.2v1h-2.9v.5c0,1.7,1.3,3.4,3.3,4.1l-.6,1ZM159.6,43.9c0,1.6-1.7,2.5-4.5,2.5s-4.5-.9-4.5-2.5,1.7-2.5,4.5-2.5,4.5.9,4.5,2.5ZM158.4,43.9c0-1-1.2-1.6-3.2-1.6s-3.2.6-3.2,1.6,1.2,1.5,3.2,1.5,3.2-.6,3.2-1.5ZM158.3,36.4v-3.5h1.2v8h-1.2v-3.5h-2.6v-1h2.6Z"/>
          <path class="cls-2" d="M174.4,43.6v1h-12.1v-1h5.4v-2.9h-4v-6.8h1.2v2.4h6.8v-2.4h1.2v6.8h-4v2.9h5.5ZM164.9,39.8h6.8v-2.5h-6.8v2.5Z"/>
          <path class="cls-2" d="M180.8,36.5c0,2.4,1.6,4.9,3.6,5.8l-.7,1c-1.5-.7-2.8-2.3-3.5-4.2-.6,2-1.9,3.7-3.5,4.5l-.7-1c2-.9,3.6-3.5,3.6-6v-2.4h1.2v2.4ZM187,33v13.4h-1.2v-13.4h1.2Z"/>
          <path class="cls-2" d="M201.9,43.5v1h-12.1v-1h12.1ZM200.7,40.7c-2-.5-4.1-1.9-5-3.9-.9,2-2.9,3.4-5,3.9l-.6-1c2.3-.5,4.9-2.5,4.9-4.8v-1h1.3v1c0,2.3,2.5,4.3,4.9,4.8l-.6,1Z"/>
          <path class="cls-2" d="M209.9,39.9c-1.5.3-2.8.4-4.9.4h-.9v-6.4h5.1v1h-3.9v1.7h3.4v1h-3.4v1.8c1.9,0,3.1,0,4.5-.4v1ZM206,41.7h8.8v4.5h-8.8v-4.5ZM207.2,45.2h6.4v-2.6h-6.4v2.6ZM211,37.3h-1.8v-1h1.8v-3.2h1.2v7.7h-1.2v-3.6ZM214.8,33v8.1h-1.2v-8.1h1.2Z"/>
        </g>
      </g>
    </g>
  </g>
</svg>