<?xml version="1.0" encoding="utf-8"?>
<!-- Generator: Adobe Illustrator 28.2.0, SVG Export Plug-In . SVG Version: 6.00 Build 0)  -->
<svg version="1.1" id="Layer_1" xmlns="http://www.w3.org/2000/svg" xmlns:xlink="http://www.w3.org/1999/xlink" x="0px" y="0px"
	 viewBox="0 0 294.9 60.9" style="enable-background:new 0 0 294.9 60.9;" xml:space="preserve">
<style type="text/css">
	.st0{fill:url(#SVGID_1_);}
	.st1{fill:url(#SVGID_00000175315171613846397700000017945824270495416221_);}
	.st2{fill:#A2CE09;}
	.st3{fill:#2589E7;}
	.st4{fill:#4F51A6;}
	.st5{fill:#1672BC;}
</style>
<g>
	<g>
		<linearGradient id="SVGID_1_" gradientUnits="userSpaceOnUse" x1="40.7041" y1="58.4654" x2="40.8018" y2="58.4654">
			<stop  offset="0" style="stop-color:#277CE1"/>
			<stop  offset="1" style="stop-color:#1ABDFF"/>
		</linearGradient>
		<path class="st0" d="M40.8,58.5c0,0-0.1-0.1-0.1-0.1C40.7,58.4,40.8,58.5,40.8,58.5L40.8,58.5z"/>
		
			<linearGradient id="SVGID_00000128481933339642437670000015242470456550900619_" gradientUnits="userSpaceOnUse" x1="32.0557" y1="57.9316" x2="32.0791" y2="57.9316">
			<stop  offset="0" style="stop-color:#277CE1"/>
			<stop  offset="1" style="stop-color:#1ABDFF"/>
		</linearGradient>
		<path style="fill:url(#SVGID_00000128481933339642437670000015242470456550900619_);" d="M32.1,57.9
			C32.1,57.9,32.1,57.9,32.1,57.9C32.1,57.9,32.1,57.9,32.1,57.9z"/>
		<path class="st2" d="M86.5,24.8c-1.4,1.4-3.4,1.9-5.2,1.4L69.4,44.2c1.7,2.2,1.4,5.4-0.8,7.2c-2.2,1.9-5.5,1.6-7.4-0.6
			c-1.4-1.7-1.6-4-0.6-5.8l-7-8.4c-0.8,0.2-1.7,0.3-2.6,0.1L40,57.5c0.3,0.3,0.5,0.6,0.7,0.9c0,0,0.1,0.1,0.1,0.1l0,0
			c0.4,0.7,0.6,1.5,0.7,2.4l37.4,0c10.5-0.2,18.6-8.6,18.6-19C97.4,34.3,92.9,27.8,86.5,24.8z"/>
		<path class="st3" d="M32.1,57.9c0-0.1,0.1-0.1,0.1-0.2c0-0.1,0.1-0.1,0.1-0.2l-5.7-9.4c-2.3,0.4-4.7-0.7-5.7-2.8
			c-1.3-2.6-0.2-5.7,2.4-7c2.6-1.3,5.7-0.2,7,2.4c1,2,0.6,4.3-0.8,5.8l5.6,9.4c0.4-0.1,0.7-0.1,1.1-0.1c0.3,0,0.6,0,0.9,0.1l11-21.1
			c-1.3-1.6-1.7-3.9-0.6-5.8c1.3-2.6,4.5-3.6,7.1-2.2c2.6,1.3,3.6,4.5,2.2,7.1c-0.1,0.3-0.3,0.5-0.5,0.8l6.7,8
			c1.2-0.6,2.5-0.7,3.7-0.3l11.9-18.1c-1.3-1.7-1.4-4.1-0.2-6c0.4-0.6,0.9-1.1,1.5-1.5C76,6.9,66.5,0,55.3,0C49,0,43.2,2.2,38.7,5.9
			c-2-1-4.3-1.6-6.7-1.6c-8.4,0-15.2,6.8-15.2,15.2c0,0.6,0,1.2,0.1,1.7C7.3,22.8,0,31,0,41c0,10.8,8.7,19.5,19.2,19.9l11.8,0
			C31,59.8,31.4,58.8,32.1,57.9C32.1,57.9,32.1,57.9,32.1,57.9z"/>
	</g>
	<g>
		<path class="st4" d="M132.1,40.4c-0.2,1-0.4,1.8-0.6,2.5c-0.1,0.3-0.3,0.5-0.5,0.8s-0.4,0.4-0.7,0.4c-0.3,0-0.6,0.1-1,0.1
			c-0.4,0-0.7,0-1.1,0s-0.8,0-1.1,0c-0.4,0-0.7-0.1-1-0.1c-0.3,0-0.5-0.2-0.7-0.4c-0.2-0.2-0.3-0.5-0.3-0.7
			c-0.2-0.8-0.4-1.8-0.7-2.9c-0.3-1.1-0.5-2.3-0.8-3.5c-0.3-1.2-0.5-2.5-0.8-3.7c-0.2-1.3-0.4-2.5-0.6-3.6c-0.2,1.1-0.4,2.3-0.6,3.6
			c-0.2,1.3-0.5,2.5-0.7,3.8c-0.3,1.2-0.5,2.4-0.8,3.5c-0.3,1.1-0.5,2.1-0.7,2.8c-0.1,0.2-0.2,0.5-0.3,0.7c-0.1,0.2-0.3,0.4-0.5,0.4
			c-0.3,0.1-0.7,0.1-1.1,0.1c-0.4,0-0.8,0-1.2,0s-0.8,0-1.2,0s-0.8-0.1-1.1-0.1c-0.3,0-0.5-0.2-0.7-0.4s-0.3-0.5-0.3-0.7
			c-0.3-1.2-0.6-2.7-1-4.4c-0.4-1.7-0.7-3.6-1.1-5.5c-0.4-1.9-0.7-3.8-1-5.6c-0.3-1.9-0.6-3.5-0.8-5c-0.1-0.4,0.1-0.8,0.3-1.2
			c0.3-0.4,0.9-0.6,1.7-0.8c0.3,0,0.5-0.1,0.8-0.2c0.3-0.1,0.5-0.1,0.8-0.1c0.2,0,0.5,0.1,0.7,0.3c0.2,0.1,0.3,0.4,0.4,0.8
			c0.2,1.3,0.5,2.6,0.7,4.1c0.2,1.4,0.5,2.9,0.7,4.4c0.2,1.5,0.4,2.9,0.6,4.4c0.2,1.5,0.4,2.8,0.5,4.1c0.5-2.8,1.1-5.6,1.7-8.4
			c0.6-2.9,1.2-5.7,1.7-8.4c0-0.2,0.1-0.4,0.2-0.5c0.1-0.2,0.2-0.3,0.3-0.4c0.2-0.1,0.4-0.2,0.7-0.2c0.3-0.1,0.7-0.1,1.2-0.1
			c0.5,0,0.9,0,1.2,0.1s0.5,0.1,0.7,0.2c0.2,0.1,0.3,0.2,0.3,0.4c0.1,0.2,0.1,0.4,0.2,0.6c0.2,1.3,0.4,2.7,0.7,4.1
			c0.3,1.5,0.6,3,0.9,4.4s0.6,3,0.9,4.4c0.3,1.5,0.6,2.8,0.8,4.1c0.2-1.3,0.4-2.7,0.6-4.2c0.2-1.5,0.5-3,0.7-4.5
			c0.3-1.5,0.5-3,0.7-4.5c0.2-1.5,0.4-2.8,0.6-4.1c0.1-0.3,0.2-0.6,0.4-0.8c0.2-0.2,0.4-0.3,0.7-0.3c0.3,0,0.5,0,0.8,0
			c0.3,0,0.5,0.1,0.8,0.2c1,0.2,1.6,0.5,1.9,0.8c0.3,0.3,0.4,0.7,0.3,1.3c-0.2,1.1-0.4,2.2-0.6,3.5s-0.4,2.5-0.7,3.8
			s-0.5,2.6-0.7,3.9c-0.2,1.3-0.5,2.5-0.7,3.7C132.6,38.4,132.4,39.5,132.1,40.4z"/>
		<path class="st4" d="M147.1,34.9c-1.4,0-2.8,0-4.2,0c0,0.3,0,0.6,0,0.9c0,0.3,0,0.5,0,0.8c0,0.2,0,0.5,0,0.8c0,0.3,0,0.6,0,0.9
			c0,0.6,0.3,0.8,1,0.8c0.6,0,1.3,0,2,0s1.5,0,2.2,0c0.8,0,1.5,0,2.2,0c0.7,0,1.4,0,2,0c0.7,0,1.1,0.6,1.2,1.8
			c0,0.8-0.1,1.3-0.3,1.7c-0.2,0.4-0.5,0.6-1,0.6c-0.9,0.1-1.8,0.2-2.8,0.3s-2,0.2-3,0.2c-1,0.1-2,0.1-2.8,0.2
			c-0.9,0-1.6,0.1-2.2,0.1c-0.9,0-1.7-0.3-2.2-0.9c-0.5-0.6-0.8-1.4-0.8-2.4c0-1.1-0.1-2.5-0.1-4.1c0-1.6,0-3.3,0-5
			c0-1.7,0-3.5,0-5.2c0-1.7,0.1-3.3,0.1-4.7c0-0.6,0.3-0.9,0.7-0.9c2-0.1,4.2-0.2,6.6-0.2c2.3,0,4.6,0,6.7,0c0.5,0,0.8,0.2,1,0.5
			c0.2,0.3,0.3,0.8,0.3,1.6c0,0.8-0.1,1.4-0.4,1.8s-0.5,0.6-0.9,0.6c-1.5,0.1-3,0.1-4.5,0.2c-1.6,0.1-3.1,0.1-4.5,0.2
			c0,0.7,0,1.6-0.1,2.5c0,0.9,0,1.8-0.1,2.5c0.6,0,1.3,0,2,0.1s1.5,0,2.2,0.1c0.8,0,1.5,0,2.2,0.1c0.7,0,1.3,0,1.8,0.1
			c0.3,0,0.6,0.2,0.8,0.5c0.2,0.3,0.3,0.8,0.3,1.4c0,1.4-0.4,2.1-1.2,2.1C150,34.8,148.6,34.9,147.1,34.9z"/>
		<path class="st4" d="M168.5,38.7c0.7,0,1.3-0.1,1.9-0.1c0.3,0,0.6,0.2,0.8,0.4c0.3,0.3,0.4,0.7,0.5,1.2c0.1,0.7,0,1.3-0.2,1.7
			c-0.2,0.4-0.5,0.7-0.9,0.7c-0.9,0.1-1.8,0.2-2.8,0.4c-1,0.1-2,0.2-3,0.3c-1,0.1-1.9,0.2-2.8,0.3c-0.9,0.1-1.6,0.1-2.1,0.1
			c-0.9,0-1.6-0.3-2.2-0.9c-0.5-0.6-0.8-1.4-0.9-2.4c-0.1-1.1-0.1-2.4-0.2-4c-0.1-1.6-0.1-3.2-0.1-4.9c0-1.7-0.1-3.4-0.1-5.1
			c0-1.7,0-3.2,0-4.6c0-0.3,0-0.5,0.1-0.8s0.2-0.5,0.4-0.6c0.2-0.2,0.5-0.3,0.8-0.4c0.3-0.1,0.8-0.2,1.3-0.2c1,0,1.7,0.2,2.1,0.5
			c0.4,0.4,0.5,0.8,0.5,1.4c0,2.8,0,5.5,0,8.1c0,2.6,0,5.3-0.1,8c0,0.3,0.1,0.5,0.2,0.7c0.1,0.1,0.4,0.2,0.8,0.2
			c0.5,0,1-0.1,1.7-0.1c0.7,0,1.3-0.1,2.1-0.1S167.8,38.8,168.5,38.7z"/>
		<path class="st4" d="M185.8,38.7c0.7,0,1.3-0.1,1.9-0.1c0.3,0,0.6,0.2,0.8,0.4c0.3,0.3,0.4,0.7,0.5,1.2c0.1,0.7,0,1.3-0.2,1.7
			c-0.2,0.4-0.5,0.7-0.9,0.7c-0.9,0.1-1.8,0.2-2.8,0.4c-1,0.1-2,0.2-3,0.3c-1,0.1-1.9,0.2-2.8,0.3s-1.6,0.1-2.1,0.1
			c-0.9,0-1.6-0.3-2.2-0.9c-0.5-0.6-0.8-1.4-0.9-2.4c-0.1-1.1-0.1-2.4-0.2-4c-0.1-1.6-0.1-3.2-0.1-4.9c0-1.7-0.1-3.4-0.1-5.1
			c0-1.7,0-3.2,0-4.6c0-0.3,0-0.5,0.1-0.8c0.1-0.2,0.2-0.5,0.4-0.6s0.5-0.3,0.8-0.4c0.3-0.1,0.8-0.2,1.3-0.2c1,0,1.7,0.2,2.1,0.5
			s0.5,0.8,0.5,1.4c0,2.8,0,5.5,0,8.1c0,2.6,0,5.3-0.1,8c0,0.3,0.1,0.5,0.2,0.7s0.4,0.2,0.8,0.2c0.5,0,1-0.1,1.7-0.1
			c0.7,0,1.3-0.1,2.1-0.1C184.4,38.8,185.1,38.8,185.8,38.7z"/>
		<path class="st5" d="M210.4,39.8c-0.7,1.3-1.8,2.3-3.4,3.1c-1.6,0.8-3.4,1.2-5.5,1.3c-1.7,0.1-3.2-0.1-4.5-0.6
			c-1.4-0.5-2.5-1.2-3.5-2.2c-1-1-1.7-2.2-2.3-3.8s-0.8-3.3-0.8-5.2c0-1.6,0.2-3.2,0.7-4.6s1.2-2.7,2.1-3.7c0.9-1.1,2.1-1.9,3.5-2.6
			c1.4-0.7,3.1-1.1,4.9-1.2c0.8-0.1,1.6-0.1,2.4,0c0.8,0.1,1.6,0.2,2.4,0.5c0.8,0.2,1.4,0.6,2,1c0.6,0.4,1.1,0.9,1.4,1.5
			c0.3,0.6,0.4,1.2,0.4,1.7s-0.3,1.1-0.7,1.6c-0.5,0.5-1,0.8-1.5,1c-0.6,0.1-1.1,0-1.6-0.5c-0.5-0.6-1.2-1.1-1.9-1.5
			s-1.6-0.6-2.8-0.6c-1,0-1.9,0.2-2.6,0.6c-0.8,0.4-1.5,0.9-2,1.6c-0.5,0.7-1,1.5-1.3,2.4c-0.3,0.9-0.4,1.9-0.4,3
			c0,1.2,0.1,2.3,0.4,3.2s0.7,1.7,1.2,2.3s1.2,1.1,1.9,1.4c0.8,0.3,1.6,0.5,2.5,0.4c0.6,0,1.2-0.1,1.7-0.3c0.5-0.2,1.1-0.4,1.5-0.7
			s0.9-0.6,1.3-1s0.7-0.8,0.9-1.2c0.2-0.3,0.4-0.5,0.6-0.6s0.5-0.2,0.7-0.2c0.3,0,0.5,0.1,0.8,0.2c0.3,0.1,0.5,0.2,0.8,0.4
			c0.6,0.4,0.9,0.9,1,1.6C210.8,38.5,210.7,39.2,210.4,39.8z"/>
		<path class="st5" d="M225.2,38.7c0.7,0,1.3-0.1,1.9-0.1c0.3,0,0.6,0.2,0.8,0.4c0.3,0.3,0.4,0.7,0.5,1.2c0.1,0.7,0,1.3-0.2,1.7
			c-0.2,0.4-0.5,0.7-0.9,0.7c-0.9,0.1-1.8,0.2-2.8,0.4c-1,0.1-2,0.2-3,0.3c-1,0.1-1.9,0.2-2.8,0.3c-0.9,0.1-1.6,0.1-2.1,0.1
			c-0.9,0-1.6-0.3-2.2-0.9c-0.5-0.6-0.8-1.4-0.9-2.4c-0.1-1.1-0.1-2.4-0.2-4c-0.1-1.6-0.1-3.2-0.1-4.9c0-1.7-0.1-3.4-0.1-5.1
			c0-1.7,0-3.2,0-4.6c0-0.3,0-0.5,0.1-0.8s0.2-0.5,0.4-0.6c0.2-0.2,0.5-0.3,0.8-0.4c0.3-0.1,0.8-0.2,1.3-0.2c1,0,1.7,0.2,2.1,0.5
			c0.4,0.4,0.5,0.8,0.5,1.4c0,2.8,0,5.5,0,8.1c0,2.6,0,5.3-0.1,8c0,0.3,0.1,0.5,0.2,0.7c0.1,0.1,0.4,0.2,0.8,0.2
			c0.5,0,1-0.1,1.7-0.1c0.7,0,1.3-0.1,2.1-0.1S224.5,38.8,225.2,38.7z"/>
		<path class="st5" d="M250.8,37.2c-0.6,1.5-1.4,2.7-2.4,3.7c-1,1-2.2,1.8-3.5,2.4s-2.8,0.9-4.3,0.9c-1.5,0-2.9-0.2-4.3-0.7
			c-1.3-0.5-2.5-1.3-3.5-2.3c-1-1-1.8-2.3-2.4-3.8c-0.6-1.5-0.9-3.2-0.9-5.1c0-1.7,0.3-3.3,0.8-4.7c0.5-1.4,1.3-2.7,2.2-3.8
			c1-1.1,2.1-1.9,3.5-2.6c1.4-0.6,2.9-1,4.6-1.1c1.6-0.1,3.1,0.1,4.5,0.7c1.4,0.5,2.5,1.4,3.5,2.4s1.7,2.4,2.2,3.9
			c0.5,1.5,0.8,3.3,0.8,5.2C251.7,34.1,251.4,35.7,250.8,37.2z M243,38.9c0.8-0.4,1.4-0.9,2-1.5c0.6-0.6,1-1.4,1.3-2.3
			c0.3-0.9,0.5-1.9,0.5-3.1c0-1.2-0.2-2.3-0.5-3.2c-0.3-0.9-0.8-1.7-1.3-2.3c-0.6-0.6-1.2-1.1-1.9-1.4c-0.7-0.3-1.5-0.4-2.3-0.4
			c-0.9,0-1.7,0.2-2.4,0.6c-0.7,0.4-1.4,0.9-1.9,1.5s-0.9,1.4-1.2,2.3s-0.5,1.9-0.5,3c0,1.2,0.2,2.2,0.5,3.1
			c0.3,0.9,0.8,1.7,1.3,2.3c0.5,0.6,1.2,1.1,1.9,1.4s1.5,0.5,2.3,0.4C241.4,39.5,242.3,39.3,243,38.9z"/>
		<path class="st5" d="M259.7,35.8c0,1.2,0.4,2.2,1.1,2.8c0.7,0.7,1.7,1,3.1,1c0.7,0,1.3-0.1,1.8-0.3c0.5-0.2,0.9-0.5,1.3-0.8
			c0.3-0.3,0.6-0.7,0.8-1.2c0.2-0.5,0.3-1,0.3-1.5c0-1.5,0-2.9,0-4c0-1.2,0-2.3,0-3.3s0-2.1,0-3.2c0-1,0-2.2,0-3.5
			c0-0.6,0.2-1,0.5-1.3s1-0.4,2-0.4c1.1,0,1.7,0.1,2.1,0.4s0.5,0.7,0.5,1.2c0,1.5,0,2.8,0,4.1c0,1.3,0,2.5-0.1,3.7s-0.1,2.4-0.1,3.6
			c-0.1,1.2-0.1,2.4-0.2,3.7c-0.2,2.6-1,4.5-2.4,5.6c-1.5,1.1-3.6,1.7-6.5,1.7c-1.6,0-2.9-0.2-4-0.5c-1.1-0.3-2-0.8-2.7-1.5
			c-0.7-0.6-1.2-1.4-1.5-2.3c-0.3-0.9-0.5-1.9-0.6-3c-0.1-1.1-0.1-2.2-0.2-3.3c-0.1-1.1-0.1-2.3-0.1-3.5s-0.1-2.5-0.1-3.9
			c0-1.4,0-2.9,0-4.4c0-0.3,0-0.5,0.1-0.7c0.1-0.2,0.2-0.4,0.4-0.5c0.2-0.1,0.5-0.2,0.8-0.3c0.3-0.1,0.8-0.1,1.3-0.1
			c1,0,1.7,0.1,2,0.4c0.3,0.3,0.5,0.7,0.5,1.3L259.7,35.8z"/>
		<path class="st5" d="M280.6,43.8c-0.6,0-1.1-0.1-1.6-0.1c-0.7-0.1-1.3-0.4-1.6-0.8c-0.4-0.4-0.6-1.1-0.6-1.9
			c-0.1-3.2-0.1-6.3,0-9.5c0-3.1,0.1-6.3,0.2-9.6c0-0.8,0.3-1.2,0.8-1.3c1-0.1,2.2-0.2,3.4-0.2c1.3-0.1,2.4,0,3.5,0
			c1.6,0.1,3,0.4,4.3,1c1.3,0.5,2.3,1.3,3.2,2.3s1.5,2.2,2,3.6s0.7,3,0.7,4.9c0,2-0.4,3.7-1,5.2c-0.7,1.5-1.5,2.7-2.6,3.7
			c-1.1,1-2.3,1.7-3.8,2.2c-1.4,0.5-2.9,0.7-4.4,0.7C282,43.9,281.2,43.8,280.6,43.8z M281.6,38c0,0.6,0,1,0,1.1
			c0.3,0,0.7,0.1,1,0.1c0.3,0,0.6,0,0.8,0c0.9-0.1,1.7-0.3,2.5-0.6c0.8-0.3,1.5-0.8,2.1-1.4c0.6-0.6,1.1-1.3,1.4-2.2
			c0.3-0.9,0.5-1.9,0.5-3c0-2.3-0.5-3.9-1.5-5c-1-1.1-2.3-1.7-3.9-1.8c-0.4,0-0.9-0.1-1.3,0s-0.9,0.1-1.4,0.1c0,0.4,0,0.9,0,1.7
			s0,1.7-0.1,2.7c0,1,0,2-0.1,3.1c0,1.1,0,2,0,2.9C281.6,36.6,281.6,37.4,281.6,38z"/>
	</g>
</g>
</svg>
