<?xml version="1.0" encoding="UTF-8"?>
<svg xmlns="http://www.w3.org/2000/svg" xmlns:xlink="http://www.w3.org/1999/xlink" version="1.1" viewBox="0 0 329.7 41.4">
  <defs>
    <style>
      .cls-1 {
        mask: url(#mask);
      }

      .cls-2 {
        fill: #fff;
      }

      .cls-2, .cls-3, .cls-4 {
        fill-rule: evenodd;
      }

      .cls-3 {
        fill: #fa2828;
      }

      .cls-5 {
        mask: url(#mask-2);
      }

      .cls-6 {
        mask: url(#mask-1);
      }

      .cls-4 {
        fill: #494949;
      }
    </style>
    <mask id="mask" x="28.1" y="3.5" width="273.5" height="34.4" maskUnits="userSpaceOnUse">
      <g id="omjlvpthsb">
        <path id="_x35_6wbbfn7ga" class="cls-2" d="M28.1,37.9h273.5V3.5H28.1v34.4Z"/>
      </g>
    </mask>
    <mask id="mask-1" x="28.1" y="3.5" width="273.5" height="34.4" maskUnits="userSpaceOnUse">
      <g id="omjlvpthsb-2" data-name="omjlvpthsb">
        <path id="_x35_6wbbfn7ga-2" data-name="_x35_6wbbfn7ga" class="cls-2" d="M28.1,37.9h273.5V3.5H28.1v34.4Z"/>
      </g>
    </mask>
    <mask id="mask-2" x="28.1" y="3.5" width="273.5" height="34.4" maskUnits="userSpaceOnUse">
      <g id="omjlvpthsb-3" data-name="omjlvpthsb">
        <path id="_x35_6wbbfn7ga-3" data-name="_x35_6wbbfn7ga" class="cls-2" d="M28.1,37.9h273.5V3.5H28.1v34.4Z"/>
      </g>
    </mask>
  </defs>
  <!-- Generator: Adobe Illustrator 28.6.0, SVG Export Plug-In . SVG Version: 1.2.0 Build 709)  -->
  <g>
    <g id="_레이어_1" data-name="레이어_1">
      <g>
        <path class="cls-4" d="M182.5,33.1c-3.2-3.2-4.8-7.2-4.8-12.1s1.6-9.1,4.9-12.3c3.3-3.2,7.3-4.8,12-4.8s11.2,2.7,14.1,6.8l-4.4,4.3c-2.6-3.2-5.7-4.8-9.4-4.8s-5.5,1-7.5,3.1c-2,2-3,4.6-3,7.7s1,5.5,3,7.5c2,2,4.5,3,7.5,3s7-1.6,9.5-4.8l4.5,4.1c-3,4.1-8.4,7-14.5,7s-8.8-1.6-12-4.7"/>
        <g class="cls-1">
          <path class="cls-4" d="M211.6,37.3h6.3V3.5h-6.3v33.7ZM234.3,32.1c1.9,0,3.5-.7,4.8-2,1.3-1.4,2-3,2-4.9s-.7-3.6-2-4.9c-1.3-1.3-2.8-2-4.8-2s-3.5.7-4.8,2c-1.3,1.3-1.9,3-1.9,4.9s.6,3.6,1.9,4.9c1.3,1.3,2.9,2,4.8,2M225,16.1c2.4-2.5,5.6-3.7,9.3-3.7s6.9,1.2,9.3,3.7c2.4,2.4,3.6,5.5,3.6,9s-1.2,6.6-3.6,9.1c-2.4,2.4-5.5,3.7-9.3,3.7s-6.9-1.2-9.3-3.7c-2.4-2.4-3.6-5.5-3.6-9.1s1.2-6.6,3.6-9M250.5,27.1v-14h6.3v14c0,3.1,1.8,5.1,4.8,5.1s4.8-2,4.8-5.1v-14h6.3v14c0,6.8-4.2,10.8-11.1,10.8s-11.1-4-11.1-10.8M293.7,20.2c-1.2-1.4-2.8-2-4.8-2s-3.6.7-4.9,2c-1.2,1.3-1.9,3-1.9,4.9s.6,3.6,1.9,5c1.3,1.3,2.9,2,4.9,2s3.6-.7,4.8-2c1.2-1.4,1.9-3,1.9-5s-.6-3.6-1.9-4.9h0ZM295.3,3.5h6.3v33.7h-6.1v-3c-2,2.4-4.4,3.6-7.5,3.6s-6.3-1.2-8.6-3.6c-2.3-2.4-3.4-5.5-3.4-9.1s1.2-6.6,3.4-9.1c2.3-2.4,5.1-3.6,8.6-3.6s5.4,1.2,7.4,3.4c0,0,0-12.3,0-12.3Z"/>
        </g>
        <g class="cls-6">
          <path class="cls-3" d="M86.9,17.5c-1.2,0-1.7.2-2.5.9-.8.7-2.5,2.5-2.9,3-.2.3-.1.5,0,.8.9,1.5,2.6,2,4.9,2h17.9c1.2,0,1.7-.2,2.5-.9.8-.7,2.5-2.5,2.9-3,.2-.3.1-.5,0-.8-.9-1.5-2.6-2-4.9-2h-17.9,0Z"/>
        </g>
        <g class="cls-5">
          <path class="cls-4" d="M132.9,13.9c-1.1-.6-1.6-.6-2.6-.3-1.1.3-3.4,1.1-3.9,1.4-.3.2-.3.4-.3.7.1,1.8,1.4,3,3.5,4l15.9,8.1c1.1.6,1.6.6,2.6.3,1.1-.3,3.3-1.1,3.9-1.4.3-.2.3-.4.3-.7-.1-1.8-1.4-3-3.5-4l-15.9-8.1h0ZM119.6,4.6c-.2-.1-.5-.2-.7,0-.5.4-2.2,2-2.9,2.7-.7.7-.8,1.2-.8,2.3v22.9c0,2.2.4,3.8,1.9,4.6.2.1.5.2.7,0,.5-.4,2.2-2,2.9-2.7.7-.7.8-1.2.8-2.3V9.2c0-2.2-.4-3.8-1.9-4.6M161.2,4.6c-.2-.1-.5-.2-.7,0-.5.4-2.2,2-2.9,2.7-.7.7-.8,1.2-.8,2.3v22.9c0,2.2.4,3.8,1.9,4.6.2.1.5.2.7,0,.5-.4,2.2-2,2.9-2.7.7-.7.8-1.2.8-2.3V9.2c0-2.2-.4-3.8-1.9-4.6M45.8,13.9c-1.1-.6-1.6-.6-2.6-.3-1.1.3-3.4,1.1-3.9,1.4-.3.2-.3.4-.3.7.1,1.8,1.4,3,3.5,4l15.9,8.1c1.1.6,1.6.6,2.6.3,1.1-.3,3.3-1.1,3.9-1.4.3-.2.3-.4.3-.7-.1-1.8-1.4-3-3.5-4,0,0-15.9-8.1-15.9-8.1ZM32.5,4.6c-.2-.1-.5-.2-.7,0-.5.4-2.2,2-2.9,2.7-.7.7-.8,1.2-.8,2.3v22.9c0,2.2.4,3.8,1.9,4.6.2.1.5.2.7,0,.5-.4,2.2-2,2.9-2.7.7-.7.8-1.2.8-2.3V9.2c0-2.2-.4-3.8-1.9-4.6M74.2,4.6c-.2-.1-.5-.2-.7,0-.5.4-2.2,2-2.9,2.7-.7.7-.8,1.2-.8,2.3v22.9c0,2.2.4,3.8,1.9,4.6.2.1.5.2.7,0,.5-.4,2.2-2,2.9-2.7.7-.7.8-1.2.8-2.3V9.2c0-2.2-.4-3.8-1.9-4.6"/>
        </g>
      </g>
    </g>
  </g>
</svg>