<?xml version="1.0" encoding="UTF-8"?>
<svg xmlns="http://www.w3.org/2000/svg" xmlns:xlink="http://www.w3.org/1999/xlink" version="1.1" viewBox="0 0 292.5 42.7">
  <defs>
    <style>
      .cls-1 {
        fill: url(#linear-gradient-4);
      }

      .cls-2 {
        fill: url(#linear-gradient-3);
      }

      .cls-3 {
        fill: url(#linear-gradient-2);
      }

      .cls-4 {
        fill: url(#linear-gradient);
      }

      .cls-5 {
        fill: #59595b;
      }
    </style>
    <linearGradient id="linear-gradient" x1="32.4" y1="39.6" x2="21" y2="19.9" gradientUnits="userSpaceOnUse">
      <stop offset="0" stop-color="#65bef0"/>
      <stop offset=".6" stop-color="#0093d5"/>
      <stop offset=".7" stop-color="#0687c9"/>
      <stop offset=".9" stop-color="#1868ac"/>
      <stop offset="1" stop-color="#265397"/>
    </linearGradient>
    <linearGradient id="linear-gradient-2" x1="-2479.5" y1="-1986" x2="-2459.5" y2="-1986" gradientTransform="translate(-2449.7 -1952.9) rotate(-180)" gradientUnits="userSpaceOnUse">
      <stop offset="0" stop-color="#59595b"/>
      <stop offset=".5" stop-color="#a5a7a9"/>
      <stop offset="1" stop-color="#c4c6c8"/>
    </linearGradient>
    <linearGradient id="linear-gradient-3" x1="12" y1="6.1" x2="21.5" y2="22.6" gradientUnits="userSpaceOnUse">
      <stop offset="0" stop-color="#e8ad30"/>
      <stop offset=".6" stop-color="#d66f2c"/>
      <stop offset="1" stop-color="#ce422a"/>
    </linearGradient>
    <linearGradient id="linear-gradient-4" x1="12.8" y1="9.6" x2="32.9" y2="9.6" gradientTransform="matrix(1,0,0,1,0,0)" xlink:href="#linear-gradient-2"/>
  </defs>
  <!-- Generator: Adobe Illustrator 28.6.0, SVG Export Plug-In . SVG Version: 1.2.0 Build 709)  -->
  <g>
    <g id="_레이어_1" data-name="레이어_1">
      <g>
        <g>
          <g>
            <path class="cls-4" d="M16,41.6c-2.6,0-5.2-.5-7.3-1.5,4.1,1.9,8.6,2.6,12.7,2.6,11.7,0,21.3-9.6,21.3-21.3s-1-7.5-2.9-10.7c-.4-.7-1.3-.9-2-.5l-12.4,7.1c-.6.3-.5,1.2.1,1.5,2.9,1.1,5,3.2,5.8,5.8.4,1.1.6,2.3.6,3.6,0,7.5-7.2,13.5-16,13.5Z"/>
            <path class="cls-3" d="M16,41.6c8.8,0,16-6,16-13.5s-.2-2.5-.6-3.6c.2.7.3,1.4.3,2.2,0,4.8-4.7,8.6-10.4,8.6s-6.1-1.2-8-3.1c-.3-.3-.9-.3-1.2,0l-5,6c-.3.4-.2,1,.2,1.3,2.5,1.3,5.4,2.1,8.6,2.1Z"/>
          </g>
          <g>
            <path class="cls-2" d="M26.7,1.1c2.6,0,5.2.5,7.3,1.5C29.9.7,25.4,0,21.3,0,9.6,0,0,9.6,0,21.3s1,7.5,2.9,10.7c.4.7,1.3.9,2,.5l12.4-7.1c.6-.3.5-1.2-.1-1.5-2.9-1.1-5-3.2-5.8-5.8-.4-1.1-.6-2.3-.6-3.6,0-7.5,7.2-13.5,16-13.5Z"/>
            <path class="cls-1" d="M26.7,1.1c-8.8,0-16,6-16,13.5s.2,2.5.6,3.6c-.2-.7-.3-1.4-.3-2.2,0-4.8,4.7-8.6,10.4-8.6s6.1,1.2,8,3.1c.3.3.9.3,1.2,0l5-6c.3-.4.2-1-.2-1.3-2.5-1.3-5.4-2.1-8.6-2.1Z"/>
          </g>
        </g>
        <g>
          <path class="cls-5" d="M63.4,13.4c.6.6,1,1.3,1.3,2.1.3.8.5,1.6.5,2.5,0,1.9-.7,3.5-2,4.8-1.4,1.4-3.1,2.1-5,2.1s-3.6-.7-5-2.1c-1.3-1.3-2-3-2-4.8s.2-1.7.5-2.5c.3-.8.7-1.5,1.3-2.1h-2.7v-3h5.6v-3.3h4.6v3.3h5.6v3h-2.7ZM53.5,32.2v-6.1h4.3v6.1h15.5v3h-16.8c-1.6,0-3-1.3-3-3ZM56.2,20.7c.5.8,1.2,1.2,2,1.2s1.4-.4,2-1.2c.5-.8.8-1.8.8-2.9s-.3-2.1-.8-2.9c-.5-.8-1.2-1.2-2-1.2s-1.5.4-2,1.2c-.5.8-.8,1.8-.8,2.9s.2,2,.8,2.9ZM72.7,19.5v8.4h-4.3V8.2h4.3v8h3.7v3.3h-3.7Z"/>
          <path class="cls-5" d="M96.6,35.2v-7.5h-16.1v-3h8v-4.5h-10.2v-3h18.3v-6h-16v-3h17.5c1.5,0,2.8,1.2,2.8,2.8v6.2h2.4v3h-10.3v4.5h5c1.5,0,2.8,1.2,2.8,2.8v7.7h-4.3Z"/>
          <path class="cls-5" d="M147.7,10.1c-.2,3.8-1.6,6.2-4.2,8.4-2.3,2-5.3,3.2-8.9,3.6l-1.1-3c2.6-.2,4.7-.9,6.4-2.1,1.8-1.3,2.8-3.1,3-5.8h-8.6v-3h13.5v1.9ZM152.3,34.7c-1.5,1.3-3.4,2-5.6,2s-4-.7-5.5-2c-1.5-1.4-2.3-3-2.3-5s.8-3.7,2.3-5.1c1.5-1.4,3.3-2,5.5-2s1.5,0,2.3.3c.7.2,1.4.5,2,.9v-15.5h4.3v6.2h3.7v3.3h-3.7v6.6h-3.5c.8.6,1.5,1.4,2,2.3.5,1,.8,2,.8,3.1,0,2-.8,3.7-2.3,5ZM149.2,26.6c-.7-.8-1.5-1.2-2.5-1.2s-1.8.4-2.5,1.2c-.7.8-1,1.9-1,3.1s.3,2.2,1,3c.7.8,1.5,1.2,2.5,1.2s1.8-.4,2.5-1.2c.7-.8,1.1-1.8,1.1-3s-.4-2.3-1.1-3.1Z"/>
          <path class="cls-5" d="M174.8,11.7c0,4-1.2,6.9-3.6,10-2.3,2.9-5.3,5-9.1,6.1l-1.8-3c3.1-.9,5.5-2.4,7.2-4.6,1.8-2.3,2.8-5.1,2.8-9h-9.2v-3h13.7v3.4ZM178.6,35.2V8.2h4.3v27h-4.3Z"/>
          <path class="cls-5" d="M199.5,20.9c-1.5,1.5-3.3,2.2-5.5,2.2s-4-.7-5.6-2.2c-1.5-1.5-2.3-3.3-2.3-5.5s.8-4,2.3-5.6c1.5-1.5,3.4-2.3,5.6-2.3s4,.8,5.5,2.3c1.5,1.5,2.3,3.4,2.3,5.6s-.8,4-2.3,5.5ZM189.8,32.2v-6.8h4.3v6.8h15.3v3h-16.6c-1.6,0-3-1.3-3-3ZM196.5,11.8c-.7-.9-1.5-1.4-2.4-1.4s-1.8.5-2.5,1.4c-.7,1-1,2.2-1,3.6s.3,2.6,1,3.5c.7.9,1.5,1.3,2.5,1.3s1.8-.4,2.4-1.3c.7-.9,1-2,1-3.5s-.3-2.6-1-3.6ZM208.7,18.5v9.5h-4.3V8.2h4.3v7h3.7v3.3h-3.7Z"/>
          <path class="cls-5" d="M215.6,23.7l-1.8-2.8c1.8-.7,3.2-1.8,4.2-3.3,1.1-1.6,1.7-3.5,1.7-6.4h-4.9v-3h14v3h-4.9c0,2.9.6,4.8,1.7,6.4,1,1.5,2.4,2.6,4.2,3.3l-1.8,2.8c-1.5-.5-5.6-3.7-6.3-5-.8,1.3-4.7,4.5-6.3,5ZM217.3,32.2v-6.8h4.3v6.8h15.6v3h-16.9c-1.6,0-3-1.3-3-3ZM227.6,17.2v-3.1h4.9v-5.9h4.3v19.8h-4.3v-10.8h-4.9Z"/>
          <g>
            <path class="cls-5" d="M271.5,20v-8.8h9.5v-3h-13.8v11.8c0,1.6,1.3,3,3,3h12.5v-3h-11.2Z"/>
            <path class="cls-5" d="M273.6,25.5h-4.3v6.7c0,1.6,1.3,3,3,3h16.6v-3h-15.3v-6.7Z"/>
            <polygon class="cls-5" points="288.8 15 288.8 8.2 284.5 8.2 284.5 20 284.5 23 284.5 27.9 288.8 27.9 288.8 18.3 292.5 18.3 292.5 15 288.8 15"/>
          </g>
          <g>
            <path class="cls-5" d="M239.8,22.3v-3h8.7v-4.8h4.3v4.8h5.3v-8.1h-16v-3h17.5c1.5,0,2.8,1.2,2.8,2.8v8.3h2.4v3h-25Z"/>
            <path class="cls-5" d="M258.6,25.8c-1.8-1.2-3.9-1.8-6.4-1.8-2.5,0-4.7.6-6.4,1.8-1.8,1.2-2.7,2.7-2.6,4.5,0,1.8.9,3.3,2.7,4.6,1.7,1.2,3.9,1.8,6.4,1.8,2.5,0,4.6-.6,6.4-1.8,1.8-1.2,2.7-2.8,2.7-4.6,0-1.8-.9-3.3-2.7-4.5ZM255.4,33c-.8.7-1.9,1-3.1,1-1.3,0-2.3-.3-3.2-1-.9-.7-1.3-1.6-1.3-2.7,0-1.1.4-1.9,1.3-2.6.9-.7,1.9-1,3.2-1,1.2,0,2.2.3,3.1,1,.9.7,1.3,1.6,1.3,2.6,0,1.1-.4,2-1.3,2.7Z"/>
          </g>
          <g>
            <path class="cls-5" d="M112.4,22.5h-6.5v-3h25v3h-18.6ZM108.5,17.9l-1.2-3.1c2.6-.3,4.7-1.1,6.4-2.5,1.6-1.3,2.5-2.9,2.5-4.7h4.4c0,1.8.9,3.4,2.5,4.7,1.7,1.4,3.8,2.2,6.4,2.5l-1.3,3.1c-4.3-.7-8.8-3.5-9.9-4.9-1.1,1.5-5.3,4.2-9.9,4.9Z"/>
            <path class="cls-5" d="M124.8,25.8c-1.8-1.2-3.9-1.8-6.4-1.8-2.5,0-4.7.6-6.4,1.8-1.8,1.2-2.7,2.7-2.6,4.5,0,1.8.9,3.3,2.7,4.6,1.7,1.2,3.9,1.8,6.4,1.8,2.5,0,4.6-.6,6.4-1.8,1.8-1.2,2.7-2.8,2.7-4.6,0-1.8-.9-3.3-2.7-4.5ZM121.5,33c-.8.7-1.9,1-3.1,1-1.3,0-2.3-.3-3.2-1-.9-.7-1.3-1.6-1.3-2.7,0-1.1.4-1.9,1.3-2.6.9-.7,1.9-1,3.2-1,1.2,0,2.2.3,3.1,1,.9.7,1.3,1.6,1.3,2.6,0,1.1-.4,2-1.3,2.7Z"/>
          </g>
        </g>
      </g>
    </g>
  </g>
</svg>