<?xml version="1.0" encoding="UTF-8"?>
<svg xmlns="http://www.w3.org/2000/svg" version="1.1" viewBox="0 0 383.1 48">
  <defs>
    <style>
      .cls-1 {
        fill: #485157;
      }

      .cls-2 {
        fill: #0098d8;
      }
    </style>
  </defs>
  <!-- Generator: Adobe Illustrator 28.6.0, SVG Export Plug-In . SVG Version: 1.2.0 Build 709)  -->
  <g>
    <g id="_레이어_1" data-name="레이어_1">
      <g>
        <g>
          <path class="cls-2" d="M157.1,0v7.4c0,9.7-7.9,17.5-17.5,17.5s-17.5-7.9-17.5-17.5V0h-4.9v7.4c0,12.4,10,22.4,22.4,22.4s22.4-10,22.4-22.4v-2.8h14v38.7H4.9V4.6h14.3c-.2.9-.2,1.9-.2,2.8,0,12.4,10,22.4,22.4,22.4s22.4-10,22.4-22.4v-.3h-22.7v4.6h17.2c-1.9,7.8-9,13.2-16.9,13.2s-17.5-7.9-17.5-17.5.5-4.8,1.4-7l.2-.4H0v48h180.8V0h-23.8Z"/>
          <rect class="cls-2" x="69.5" width="4.9" height="28.9"/>
          <polygon class="cls-2" points="110.2 28.9 110.2 0 105.4 0 105.4 21.5 83.9 0 77 0 105.9 28.9 110.2 28.9"/>
        </g>
        <g>
          <rect class="cls-1" x="291.4" y="10.1" width="3.9" height="15.5"/>
          <polygon class="cls-1" points="356.1 35.1 383.1 35.1 383.1 31.8 373 31.8 373 21.1 369 21.1 369 31.8 365.6 31.8 365.6 21.1 361.7 21.1 361.7 31.8 356.1 31.8 356.1 35.1"/>
          <polygon class="cls-1" points="209.7 26.4 213.6 26.4 213.6 10.1 209.7 10.1 209.7 13.5 205.2 13.5 205.2 16.8 209.7 16.8 209.7 19.6 205.2 19.6 205.2 22.9 209.7 22.9 209.7 26.4"/>
          <path class="cls-1" d="M190.7,23.8l1.6,3c5.2-2.4,10.5-5.4,10.5-10.3v-5.9h-11.9v3.3h8v2.5c0,1,0,3.3-8.2,7.3Z"/>
          <path class="cls-1" d="M204.4,27.3c-6.1,0-9.8,2.5-9.8,6.5s3.7,6.5,9.8,6.5,9.8-2.5,9.8-6.5-3.7-6.5-9.8-6.5ZM204.4,37c-3.6,0-5.8-1.2-5.8-3.2s2.2-3.2,5.8-3.2,5.8,1.2,5.8,3.2-2.2,3.2-5.8,3.2Z"/>
          <path class="cls-1" d="M230.5,27.3c-6.1,0-9.8,2.5-9.8,6.5s3.7,6.5,9.8,6.5,9.8-2.5,9.8-6.5-3.7-6.5-9.8-6.5ZM230.5,37c-3.6,0-5.8-1.2-5.8-3.2s2.2-3.2,5.8-3.2,5.8,1.2,5.8,3.2-2.2,3.2-5.8,3.2Z"/>
          <polygon class="cls-1" points="235.7 26.4 239.7 26.4 239.7 19.5 244.2 19.5 244.2 16.2 239.7 16.2 239.7 10.1 235.7 10.1 235.7 26.4"/>
          <polygon class="cls-1" points="347.3 25.9 351.3 25.9 351.3 19.5 355.8 19.5 355.8 16.2 351.3 16.2 351.3 10.1 347.3 10.1 347.3 25.9"/>
          <path class="cls-1" d="M279,39.8h16.4v-12.3h-3.9v3.6h-8.5v-3.6h-3.9v12.3ZM291.4,36.9h-8.5v-3h8.5v3Z"/>
          <polygon class="cls-1" points="273.5 25.5 286.7 25.5 286.7 22.4 277.4 22.4 277.4 19.5 286.7 19.5 286.7 10.5 273.5 10.5 273.5 13.6 282.7 13.6 282.7 16.3 273.5 16.3 273.5 25.5"/>
          <polygon class="cls-1" points="299.9 28.8 311.3 28.8 311.3 25.5 303.8 25.5 303.8 13.8 311.3 13.8 311.3 10.5 299.9 10.5 299.9 28.8"/>
          <path class="cls-1" d="M328.2,14.4h3.5-.2c-1.4,1.3-2.1,3-2.1,5,0,3.9,2.9,6.5,7.3,6.5s7.3-2.6,7.3-6.5-.7-3.7-2.1-4.9h-.2c0-.1,3.5-.1,3.5-.1v-3.3h-6.5v-3.4h-3.9v3.4h-6.5v3.3ZM336.7,22.7c-2,0-3.4-1.4-3.4-3.4s1.3-3.4,3.4-3.4,3.4,1.4,3.4,3.4-1.3,3.4-3.4,3.4Z"/>
          <polygon class="cls-1" points="321.1 39.8 325 39.8 325 10.1 321.1 10.1 321.1 19.2 318.2 19.2 318.2 10.1 314.3 10.1 314.3 39.8 318.2 39.8 318.2 22.5 321.1 22.5 321.1 39.8"/>
          <polygon class="cls-1" points="376.6 27.7 380.6 27.7 380.6 11.1 359.3 11.1 359.3 14.3 376.6 14.3 376.6 27.7"/>
          <polygon class="cls-1" points="347.3 39.8 351.3 39.8 351.3 28.5 334 28.5 334 31.6 347.3 31.6 347.3 39.8"/>
          <polygon class="cls-1" points="263.1 39.8 267.1 39.8 267.1 28.8 258.1 28.8 258.1 24.6 270 24.6 270 21.4 266.3 21.4 266.3 10.7 247.6 10.7 247.6 14 262.4 14 262.4 21.4 244.7 21.4 244.7 24.6 254.1 24.6 254.1 28.8 247.6 28.8 247.6 32.1 263.1 32.1 263.1 39.8"/>
          <path class="cls-1" d="M216.1,23l2,3c3-2,5.5-3.6,7-5.2h0c0,0,0,0,0,0l6.1,5.2,2.5-2.9-6.8-5.8h0c.2-.9.3-1.9.3-3v-3.6h-4.1v3.6c0,3.1-.3,4.1-7.3,8.7Z"/>
        </g>
      </g>
    </g>
  </g>
</svg>