<?xml version="1.0" encoding="utf-8"?>
<!-- Generator: Adobe Illustrator 22.1.0, SVG Export Plug-In . SVG Version: 6.00 Build 0)  -->
<svg version="1.1" id="Layer_1" xmlns="http://www.w3.org/2000/svg" xmlns:xlink="http://www.w3.org/1999/xlink" x="0px" y="0px"
	 viewBox="0 0 371.9 96.9" style="enable-background:new 0 0 371.9 96.9;" xml:space="preserve">
<style type="text/css">
	.st0{fill:#FFFFFF;}
	.st1{fill:#003964;}
	.st2{fill:#ED193A;}
	.st3{fill:#58595B;}
</style>
<g>
	<g>
		<path class="st0" d="M96.9,48.4c0,26.8-21.7,48.4-48.4,48.4C21.7,96.9,0,75.2,0,48.4C0,21.7,21.7,0,48.4,0
			C75.2,0,96.9,21.7,96.9,48.4z"/>
		<g>
			<g>
				<g>
					<g>
						<g>
							<g>
								<path class="st1" d="M71.2,45.1c-7.7-5.2-17.6-3.1-22.8,4.8c-4.3,6.6-10.8,7.4-13.4,7.4c-8.2,0-13.9-5.8-15.6-11.8h0
									c0-0.1,0-0.1,0-0.2c0-0.1,0-0.1-0.1-0.2c-0.7-2.5-0.8-3.7-0.8-6.4c0-14.3,14.7-30.3,35.9-30.3c21.7,0,34.1,16.5,37.3,25.7
									c-0.1-0.2-0.1-0.3-0.2-0.5c-6.2-18-23.2-30.9-43.2-30.9C23.2,2.8,2.7,23.2,2.7,48.4C2.7,71,19,90.3,41.6,90.3
									c18,0,30.1-10.1,35.6-24C80.2,58.7,78.1,49.8,71.2,45.1z"/>
							</g>
							<g>
								<path class="st2" d="M92.1,35C89.4,26,76.9,8.4,54.5,8.4c-21.2,0-35.9,16-35.9,30.3c0,2.7,0.2,3.9,0.8,6.4
									C19.1,44,19,42.9,19,41.8c0-14.9,14.9-25.3,30.3-25.3C70.1,16.5,87,33.4,87,54.2c0,16.3-9.4,30.4-23,37.2v0
									c17.6-6.4,30.1-23.2,30.1-43C94.1,43.8,93.5,39.6,92.1,35z"/>
							</g>
						</g>
					</g>
				</g>
			</g>
		</g>
	</g>
	<g>
		<path class="st3" d="M143.9,66.6h-6.1V32.1h-19v-5.5h25.1V66.6z M156.3,23.5h6.1v49.5h-6.1V23.5z"/>
		<path class="st3" d="M202,27.1v5.1h-5.9c1.6,1.9,2.4,4,2.4,6.2c0,1.4-0.3,2.7-0.9,4c-0.6,1.2-1.5,2.3-2.5,3.3
			c-1.5,1.3-3.2,2.2-5.1,2.6v2.4h13.5v5.1h-32.9v-5.1h13.3v-2.4c-2.1-0.6-3.8-1.5-5.2-2.7c-1.1-0.9-1.9-2-2.5-3.3
			c-0.6-1.2-0.9-2.6-0.9-4c0-2.2,0.8-4.3,2.4-6.2h-6.1v-5.1h11.9v-4.9h6.7v4.9H202z M213.6,59.1v14h-6.1v-9h-33.8v-5.1H213.6z
			 M192.6,38.3c0-1.5-0.6-2.8-1.6-3.8c-1.1-1.1-2.4-1.6-4-1.6c-1.6,0-2.9,0.5-4,1.6c-1.1,1.1-1.6,2.4-1.6,3.8c0,1.5,0.5,2.8,1.6,3.8
			c1.1,1.1,2.4,1.6,4,1.6c1.6,0,2.9-0.5,4-1.6C192,41,192.6,39.7,192.6,38.3z M207.5,23.5h6.1v32.8h-6.1V23.5z"/>
		<path class="st3" d="M222.2,32v-5.4h24.2V32h-10l11.1,33.1l-5.2,1.6L234.6,43l-7.8,24.2l-5.5-1.7L232.5,32H222.2z M261.2,23.5h5.9
			v49.5h-5.9V49.8h-5.7v23h-5.7V23.6h5.7v20.5h5.7V23.5z"/>
		<path class="st3" d="M274.4,30.3V25h28.4v5.3h-12.1l12.6,15.4l-4.3,3.5l-10.1-12.6L278.8,50l-4.5-3.6l12.6-16.1H274.4z
			 M313.8,62.5c0,1.7-0.3,3.2-1,4.7c-0.7,1.5-1.6,2.7-2.7,3.8c-1.2,1.1-2.6,2-4.1,2.6c-1.6,0.6-3.2,1-5,1c-1.7,0-3.4-0.3-5-1
			c-1.6-0.6-3-1.5-4.2-2.6c-1.1-1.1-2-2.4-2.7-3.8c-0.7-1.5-1-3-1-4.7c0-1.7,0.3-3.2,1-4.7c0.7-1.5,1.6-2.8,2.7-3.9
			c1.2-1.1,2.6-2,4.2-2.6c1.6-0.6,3.3-1,5-1c1.7,0,3.4,0.3,5,1c1.6,0.6,2.9,1.5,4.1,2.6c1.1,1.1,2,2.4,2.7,3.9
			C313.4,59.3,313.8,60.9,313.8,62.5z M307.7,62.5c0-1.9-0.7-3.5-2-4.8c-1.4-1.3-3-2-4.8-2c-1.9,0-3.5,0.7-4.8,2
			c-1.3,1.3-2,2.9-2,4.8c0,1.9,0.7,3.5,2,4.8c1.3,1.3,2.9,2,4.8,2c1.9,0,3.5-0.7,4.8-2C307,65.9,307.7,64.3,307.7,62.5z M311.8,49.8
			V39.1h-9.2v-5.3h9.2V23.5h6.1v26.3H311.8z"/>
		<path class="st3" d="M326.4,54.9h45.5v5.5h-19.7v12.7h-6.2V60.3h-19.6V54.9z M336.2,30.6h26v-6.3h6.1v23.8h-38.2V24.4h6.1V30.6z
			 M362.2,36h-26v6.8h26V36z"/>
	</g>
</g>
</svg>
