<?xml version="1.0" encoding="utf-8"?>
<!-- Generator: Adobe Illustrator 28.2.0, SVG Export Plug-In . SVG Version: 6.00 Build 0)  -->
<svg version="1.1" xmlns="http://www.w3.org/2000/svg" xmlns:xlink="http://www.w3.org/1999/xlink" x="0px" y="0px"
	 viewBox="0 0 362.9 44.6" style="enable-background:new 0 0 362.9 44.6;" xml:space="preserve">
<style type="text/css">
	.st0{fill:#0055B8;}
	.st1{fill:#FF6C0E;}
	.st2{fill:#717071;}
</style>
<g id="_x3C_레이어_x3E_">
</g>
<g id="_x3C_레이어_x3E__00000114032211475622237240000003938366765102373544_">
</g>
<g id="_x3C_레이어_x3E__00000057110435771616976170000015367476453747774338_">
	<g>
		<g>
			<path class="st0" d="M8.1,44.6c-1.2,0-2.3-0.1-3.4-0.4c-1.1-0.2-2-0.7-2.8-1.3c-0.8-0.7-1.3-1.6-1.7-2.7
				c-0.4-1.2-0.4-2.7-0.1-4.6L5,8.8c1.3,0,2.5,0.2,3.6,0.6c1.1,0.4,2,1,2.7,1.8c0.7,0.8,1.2,1.7,1.5,2.8c0.3,1.1,0.3,2.3,0,3.5
				L8.1,44.6z"/>
			<path class="st0" d="M25.6,44.6c-1.2,0-2.3-0.1-3.4-0.4c-1.1-0.2-2-0.7-2.8-1.3c-0.8-0.7-1.3-1.6-1.7-2.7c-0.3-1.2-0.4-2.7,0-4.6
				l4.7-26.9C23.7,8.8,25,9,26,9.4c1.1,0.4,2,1,2.7,1.8c0.7,0.8,1.2,1.7,1.5,2.8c0.3,1.1,0.3,2.3,0,3.5L25.6,44.6z"/>
			<path class="st0" d="M106.6,22.2c-0.5,2.6-1.2,4.8-2.2,6.6c-1,1.7-2.2,3.1-3.7,4.2c-1.5,1-3.3,1.8-5.4,2.2
				c-2.1,0.4-4.5,0.6-7.2,0.6c-1.9,0-3.7,0-5.4,0c-1.8,0-3.6-0.1-5.6-0.4c-0.3,1.3-0.7,2.6-1.2,3.7c-0.5,1.1-1.3,2.1-2.2,2.9
				c-0.9,0.8-2,1.5-3.4,1.9c-1.3,0.5-2.9,0.7-4.8,0.7l3.9-22.5c0.4-2.5,1.1-4.6,2.1-6.3c0.9-1.7,2.1-3.1,3.6-4.1
				c1.5-1.1,3.3-1.8,5.4-2.3c2.1-0.5,4.6-0.7,7.4-0.7h5c2.6,0,4.9,0.2,6.8,0.6c1.9,0.4,3.5,1.1,4.6,2.1c1.1,1,1.9,2.4,2.3,4.1
				C107.2,17.3,107.1,19.5,106.6,22.2z M79.4,23.8c0,0.7,0.2,1.2,0.6,1.7c0.3,0.5,0.7,0.9,1.2,1.1c0.5,0.3,1.1,0.5,1.7,0.6
				c0.6,0.1,1.2,0.2,1.8,0.2h5.2c0.6,0,1.2-0.1,1.9-0.2c0.7-0.1,1.3-0.4,1.9-0.6c0.6-0.3,1.1-0.7,1.6-1.1c0.5-0.5,0.8-1.1,1.1-1.7
				c0.4-1,0.6-2,0.6-3.1c0-0.7-0.2-1.2-0.5-1.7c-0.3-0.5-0.8-0.9-1.3-1.1c-0.5-0.3-1.1-0.5-1.7-0.6c-0.6-0.1-1.2-0.2-1.8-0.2h-5.2
				c-0.6,0-1.2,0.1-1.9,0.2c-0.7,0.1-1.3,0.4-1.9,0.6c-0.6,0.3-1.1,0.7-1.6,1.1c-0.5,0.5-0.9,1.1-1.1,1.7c-0.2,0.4-0.3,1-0.4,1.5
				C79.4,22.8,79.4,23.3,79.4,23.8z"/>
			<path class="st1" d="M72.4,0C72.4,0,72.4,0,72.4,0c-3.5,9.6-28.7,9.5-34.8,9.1l-1.5,6.6C43.3,16.2,75.6,16.6,72.4,0L72.4,0z"/>
			<path class="st0" d="M55.9,17.2l-4.6,27.4h-9.5L46.6,18C49.5,17.9,52.7,17.7,55.9,17.2L55.9,17.2z"/>
		</g>
		<g>
			<g>
				<path class="st2" d="M133.7,17.1v0.4c0,3.5,2,6.9,6.2,7.9l-0.8,1.6c-0.5,0.8-1.5,0.8-2,0.5c-1.9-0.7-4.4-2.4-5.2-4.7
					c-1,2.5-3.8,4.6-5.5,5.2c-0.7,0.2-1.6,0.3-2.1-0.7l-0.8-1.6c3.8-0.9,6.2-4.1,6.2-8.2v-0.4h-5.1v-2.4h14.4v2.4H133.7z
					 M140.9,29.4c1.4-0.6,1.4-1.8,1.4-3.1V22h-5v-2.4h5v-5.8h3.9v12.6c0,2.2-1.2,3.6-2.7,4.3c1.4,1,2.2,2.5,2.2,4.4c0,3-2.6,6-7.6,6
					c-4,0-7.6-2-7.5-6c0.1-4.1,3.8-6,7.6-6C139.2,29.1,140.1,29.2,140.9,29.4z M134.6,35.1c0,1.9,1.2,3.6,3.6,3.6
					c2.4,0,3.6-1.6,3.6-3.6c0-2.3-1.6-3.5-3.6-3.5C135.9,31.5,134.6,33.2,134.6,35.1z"/>
				<path class="st2" d="M165.3,27.3v4.5h10.5v2.4h-24.3v-2.4h9.8v-4.5h-3.7c-2.2,0-3.2-1.2-3.2-2.9v-9.7h4v3.9h9.8v-3.9h3.9V25
					c0,1.7-0.4,2.3-2.2,2.3H165.3z M158.5,21v2.9c0,0.7,0.3,1,1.1,1h8.8V21H158.5z"/>
				<path class="st2" d="M199.2,24.4h-6.6v2.3h10.3v2.4h-24.4v-2.4h10.1v-2.3h-4.2c-1.7,0-2.9-1.2-2.9-2.9v-7.4h17.4v2.4h-13.4v1.4
					h13.4v2.4h-13.4v0.5c0,0.8,0.4,1.2,1.3,1.2h12.5V24.4z M198.2,35.7c0,3.6-3.3,5.4-7.3,5.4c-3.9,0-7.3-1.8-7.3-5.4
					c0-3.6,3.4-5.4,7.3-5.4C194.9,30.2,198.2,32.1,198.2,35.7z M187.4,35.7c0,1.8,1.3,3,3.4,3c2.1,0,3.4-1.2,3.4-3
					c0-1.8-1.2-3-3.4-3C188.7,32.7,187.4,33.9,187.4,35.7z"/>
				<path class="st2" d="M214.6,14.9v2.9c0,3.5,2.1,7.2,6.3,8.3l-0.9,1.6c-0.6,1.1-1.6,0.6-2.1,0.5c-1.8-0.6-4.2-2.7-5.1-4.9
					c-0.8,2.2-3.8,4.8-5.5,5.3c-0.7,0.2-1.6,0.5-2.2-0.6l-0.8-1.5c3.7-1.2,6.2-4.5,6.2-8.7v-2.9H214.6z M213.5,36.9
					c0,0.6,0.3,0.8,0.8,0.8h13.2v2.5h-14.8c-1.7,0-3.2-0.8-3.2-3.2v-5.8h4V36.9z M227.3,13.8v17c0,1-0.5,1.8-1.7,1.8h-2.8
					c0.3-0.2,0.5-0.5,0.5-1.2V13.8H227.3z"/>
				<path class="st2" d="M242.2,18.3c0-0.3-0.1-0.8-0.8-0.8h-8v-2.4h9.7c2.4,0,2.9,1.2,2.9,2.8v1.5c0,3.5-1.1,6.2-3.1,8.5
					c-1.8,2.1-4.1,3.7-7.1,4.8c-0.9,0.3-1.4,0.1-1.8-0.7l-0.7-1.4c3.2-1.4,5.3-2.9,6.8-4.8C241.9,23.5,242.2,20.8,242.2,18.3z
					 M254.3,35.3c0,1-0.5,1.8-1.8,1.8h-2.8c0.3-0.2,0.5-0.5,0.5-1.2V14.1h4V35.3z"/>
				<path class="st2" d="M272.9,19c0.5,0.7,0.8,1.5,0.8,2.5c0,2.4-1.8,3.9-4.1,4.5v1.5h3.7c2.1,0,3.5-0.4,4.3-1V13.8h3.9v15.4
					c0,1-0.5,2.1-1.7,2.1h-2.7c0.3-0.2,0.5-0.8,0.5-1.5V29c-1.2,0.7-2.7,1-4.2,1h-14.3v-2.4h6.6v-1.4c-2.3-0.5-4.4-2-4.4-4.5
					c0-1,0.3-1.8,0.8-2.5h-2.6v-2.5h6.2v-3.6h4v1.2c0,1.2-0.4,2-1.4,2.4h7.4V19H272.9z M281.4,38.7c0,1-0.5,1.8-1.8,1.8h-2.7
					c0.3-0.2,0.5-0.5,0.5-1.2v-4.6H263v-2.4h16.7c1.2,0,1.7,0.5,1.7,1.6V38.7z M267.5,23.9c1.5,0,2.4-0.9,2.4-2.4
					c0-1.6-0.9-2.4-2.3-2.4c-1.4,0-2.3,0.9-2.3,2.4C265.2,22.9,266.1,23.9,267.5,23.9z"/>
				<path class="st2" d="M301.8,26.7c-0.8,0.4-2,0.6-3.3,0.6H286v-2.4h3.4c-0.7-0.2-1-0.6-1-1.6v-6.2H286v-2.4h15.2v2.4h-2.6v6
					c0,1.1-0.3,1.5-1,1.8h1c1,0,2.1-0.2,3.2-0.7V26.7z M294.9,17.1H292v6.5c0,0.8,0.2,1.4,0.9,1.4h1.1c0.7,0,0.9-0.5,0.9-1.2V17.1z
					 M303,29.4c1.4-0.6,1.4-1.8,1.4-3.1v-2.5c-0.5,0.2-1.1,0.2-1.6,0.2h-2v-2.4h2.6c0.4,0,0.7,0,1-0.2v-1.4
					c-0.3-0.1-0.7-0.1-1.1-0.1h-2.6v-2.4h2.1c0.4,0,1.1,0.1,1.6,0.2v-4h3.9v12.6c0,2.2-1.2,3.6-2.7,4.3c1.4,1,2.2,2.5,2.2,4.4
					c0,3-2.6,6-7.6,6c-4,0-7.6-2-7.5-6c0.1-4.1,3.8-6,7.6-6C301.3,29.1,302.2,29.2,303,29.4z M296.7,35.1c0,1.9,1.2,3.6,3.6,3.6
					c2.4,0,3.6-1.6,3.6-3.6c0-2.3-1.6-3.5-3.6-3.5C298,31.5,296.7,33.2,296.7,35.1z"/>
				<path class="st2" d="M323,18.3c0-0.3-0.1-0.8-0.8-0.8h-8v-2.4h9.7c2.4,0,2.9,1.2,2.9,2.8v1.5c0,3.5-1.1,6.2-3.1,8.5
					c-1.8,2.1-4.1,3.7-7.1,4.8c-0.9,0.3-1.4,0.1-1.8-0.7l-0.7-1.4c3.2-1.4,5.3-2.9,6.8-4.8C322.7,23.5,323,20.8,323,18.3z
					 M334.5,22.8c0.3-0.3,0.8-0.7,2-0.7h2.4v2.4h-4.4v10.7c0,1-0.5,1.8-1.7,1.8H330c0.3-0.2,0.5-0.5,0.5-1.2V14.1h4V22.8z"/>
				<path class="st2" d="M340,27.7v-2.4H351c1.5,0,4.2,0,6.2-0.9v2.5c-1.5,0.7-4.4,0.8-6.2,0.8h-1.7v2.2c0,1-0.5,1.8-1.8,1.8h-2.8
					c0.3-0.2,0.5-0.5,0.5-1.2v-2.8H340z M355,18.9c0,3.2-2.9,5.2-6.8,5.2c-3.8,0-6.8-2-6.8-5.2c0-3.1,3-5.2,6.8-5.2
					C352.1,13.7,355,15.8,355,18.9z M348.3,36.9c0,0.6,0.3,0.8,0.8,0.8h13.8v2.5h-15.4c-1.7,0-3.2-0.8-3.2-3.2V33h4V36.9z
					 M348.2,21.6c1.8,0,3-1.1,3-2.7c0-1.6-1.2-2.7-3-2.7c-1.7,0-2.9,1.1-2.9,2.6C345.3,20.5,346.5,21.6,348.2,21.6z M353.4,29.2h5.3
					V13.8h4v18.5c0,1-0.5,1.8-1.8,1.8h-2.8c0.3-0.2,0.5-0.5,0.5-1.2v-1.3h-5.3V29.2z"/>
			</g>
		</g>
	</g>
</g>
</svg>
