<?xml version="1.0" encoding="UTF-8"?>
<svg xmlns="http://www.w3.org/2000/svg" version="1.1" viewBox="0 0 425.1 81.6">
  <defs>
    <style>
      .cls-1 {
        fill: #439d62;
      }

      .cls-2 {
        fill: #27509b;
      }

      .cls-3 {
        fill: #cb5032;
      }

      .cls-4 {
        fill: #e3a51a;
      }

      .cls-5 {
        fill: #222221;
      }
    </style>
  </defs>
  <!-- Generator: Adobe Illustrator 28.6.0, SVG Export Plug-In . SVG Version: 1.2.0 Build 709)  -->
  <g>
    <g id="_레이어_1" data-name="레이어_1">
      <g>
        <g>
          <path d="M247.5,33.8h6.2c2,0,4,0,5.8-.2,0-.5,0-.9,0-1.3h-12v-2.4h15.2c0,2.5-.3,5.7-.7,8.3h4.1v2.4h-21.9v-2.4h14.6c.2-.9.3-1.7.4-2.5-1.8.3-3.8.4-6,.4h-5.8v-2.2ZM247.6,52.4v-6.3h12.1v-1.5h-12.1v-2.4h15.2v6.2h-12.1v1.5h12.7v2.5h-15.7Z"/>
          <path d="M271,44.4h1.7c3,0,5.8-.4,8.2-1v2.5c-2.3.6-5.8,1-9,1h-4.1v-9.5h7.2v-3.9h-7.2v-2.6h10.4v9.1h-7.2v4.3ZM288.6,40.6h-3.6v11.8h-3.1v-23.1h3.1v8.7h3.6v2.6Z"/>
          <path d="M289,44.4v-2.6h21.4v2.6h-9v7.8h-3.1v-7.8h-9.3ZM307.7,35c0,2.7-2.6,5.2-7.8,5.2s-7.8-2.5-7.8-5.2,2.5-5.3,7.8-5.3,7.8,2.5,7.8,5.3ZM304.5,35c0-1.4-1.2-2.7-4.6-2.7s-4.5,1.3-4.5,2.7,1.2,2.6,4.5,2.6,4.6-1.2,4.6-2.6Z"/>
          <path d="M332.6,46.4v2.6h-21.4v-2.6h21.4ZM314.7,42.6v-11.4h14.7v2.6h-11.6v6.1h11.8v2.7h-14.9Z"/>
          <path d="M340.6,47.5l-2.2-1.8c4.2-3.1,7-7.4,6.5-15.1h3.2c0,2.2-.1,4.2-.5,6,1.3,3.6,3.3,6.2,6.5,8.3l-2.1,2.1c-2.4-1.7-4.3-3.8-5.7-6.4-1.3,2.8-3.2,5.1-5.7,6.9ZM355.2,29.2h3.1v23.1h-3.1v-23.1Z"/>
          <path d="M373.6,34.2h3.9v-5h3.1v13.3h-3.1v-5.7h-3.9v4.3h-10.9v-11.2h3v3.4h4.8v-3.4h3v4.3ZM370.6,35.8h-4.8v2.9h4.8v-2.9ZM380.6,52h-14.7v-8.5h14.7v8.5ZM377.5,46.1h-8.5v3.3h8.5v-3.3Z"/>
          <path d="M385,47.5l-2.2-1.8c4.2-3.1,7-7.4,6.5-15.1h3.2c0,2.2-.1,4.2-.5,6,1.3,3.6,3.3,6.2,6.5,8.3l-2.1,2.1c-2.4-1.7-4.3-3.8-5.7-6.4-1.3,2.8-3.2,5.1-5.7,6.9ZM405.5,40.1h-3.7v12.3h-3.1v-23.1h3.1v8.2h3.7v2.6Z"/>
          <path d="M418.8,33.9h3.2v-4.7h3.1v12h-3.1v-4.7h-3.2c-.5,2.7-2.7,4.5-5.9,4.5s-6-2.3-6-5.6,2.4-5.6,6-5.6,5.2,1.6,5.8,4.2ZM412.9,32.2c-1.8,0-2.9,1.2-2.9,3.1s1.1,3.1,2.9,3.1,2.9-1.1,2.9-3.1-1.1-3.1-2.9-3.1ZM425.1,52h-14.7v-9.7h3v2.4h8.6v-2.5h3.1v9.9ZM422.1,49.4v-2.3h-8.6v2.3h8.6Z"/>
        </g>
        <g>
          <g>
            <g>
              <path class="cls-5" d="M111.9,72.3c-2.3.7-4,.7-5.3.7-3.6,0-7.8-2.2-7.8-8.2s3.6-8.4,8.6-8.4,2.8.1,4.1.7l-.3,3.5c-1.1-.8-2.5-1-3.3-1-3,0-5.4,1.4-5.4,5.2s1.9,5.1,4.6,5.1,1,0,1.3-.3v-3.2h-2.1v-3h5.7v8.9Z"/>
              <path class="cls-5" d="M118.3,66.7l-5.1-10h4.2l2.7,6.4,2.6-6.4h4.2l-5,10v6.1h-3.6v-6.1Z"/>
              <path class="cls-5" d="M128.1,56.7h9.6v3h-6v3.3h5.7v3h-5.7v3.6h6.2v3h-9.8v-16.1Z"/>
              <path class="cls-5" d="M143.2,64.7c0-2.8.9-5.1,3.1-5.1s3.1,2.3,3.1,5.1-.9,5.1-3.1,5.1-3.1-2.5-3.1-5.1ZM139.5,64.7c0,5.1,2.4,8.3,6.8,8.3s6.8-3.2,6.8-8.3-2.3-8.3-6.8-8.3-6.8,3.2-6.8,8.3Z"/>
              <path class="cls-5" d="M155,56.7h4.6l4.6,10.9h0v-10.9c0,0,3.3,0,3.3,0v16.1h-4.5l-4.8-11h0v11c.1,0-3.2,0-3.2,0v-16.1Z"/>
              <path class="cls-5" d="M182.6,72.3c-2.3.7-4,.7-5.3.7-3.6,0-7.8-2.2-7.8-8.2s3.6-8.4,8.6-8.4,2.8.1,4.1.7l-.3,3.5c-1.1-.8-2.5-1-3.3-1-3,0-5.4,1.4-5.4,5.2s1.9,5.1,4.6,5.1,1,0,1.3-.3v-3.2h-2.1v-3h5.7v8.9Z"/>
              <path class="cls-5" d="M185.1,56.7h4.6l4.6,10.9h0v-10.9c0,0,3.3,0,3.3,0v16.1h-4.5l-4.8-11h0v11c.1,0-3.2,0-3.2,0v-16.1Z"/>
              <path class="cls-5" d="M208,66.3h-3.4l1.8-6.3h0l1.6,6.3ZM198.9,72.7h3.7l1.1-3.4h5.1l1,3.4h4l-5.3-16.1h-4.5l-5.2,16.1Z"/>
              <path class="cls-5" d="M215,56.7h5.7l2.9,10.7h0l3-10.7h5.5v16.1s-3.6,0-3.6,0v-12.3c0,0,0,0,0,0l-3.5,12.3h-3.3l-3.3-12.3h0v12.3c0,0-3.5,0-3.5,0v-16.1Z"/>
            </g>
            <g>
              <g>
                <polygon class="cls-5" points="188.5 24.7 176.4 24.7 176.4 13.4 171.5 13.4 171.5 28.6 188.5 28.6 188.5 24.7"/>
                <polygon class="cls-5" points="121.2 30.9 126.1 30.9 126.1 12.9 121.2 12.9 121.2 16.3 116 16.3 116 20.2 121.2 20.2 121.2 22.7 116 22.7 116 26.6 121.2 26.6 121.2 30.9"/>
                <polygon class="cls-5" points="221.7 41.3 221.7 32 230 32 230 28.1 212.4 28.1 212.4 17.9 230 17.9 230 14 207.5 14 207.5 32 216.9 32 216.9 41.3 205.1 41.3 205.1 45.1 232.4 45.1 232.4 41.3 221.7 41.3"/>
                <polygon class="cls-5" points="196.3 12.9 191.4 12.9 191.4 30.4 196.3 30.4 196.3 22.2 200.5 22.2 200.5 18.4 196.3 18.4 196.3 12.9"/>
                <path class="cls-5" d="M177,32.5v14.1h19.3v-14.1h-19.3ZM181.8,42.8v-6.4h9.5v6.4h-9.5Z"/>
                <path class="cls-5" d="M115.8,30.5c-5.4,0-9.8,4-9.8,8.9s4.4,8.9,9.8,8.9,9.8-4,9.8-8.9-4.4-8.9-9.8-8.9ZM115.8,44.1c-2.6,0-4.8-2.1-4.8-4.8s2.1-4.8,4.8-4.8,4.8,2.1,4.8,4.8-2.1,4.8-4.8,4.8Z"/>
                <path class="cls-5" d="M150,30.5c-5.4,0-9.8,4-9.8,8.9s4.4,8.9,9.8,8.9,9.8-4,9.8-8.9-4.4-8.9-9.8-8.9ZM150,44.1c-2.6,0-4.8-2.1-4.8-4.8s2.1-4.8,4.8-4.8,4.7,2.1,4.7,4.8-2.1,4.8-4.7,4.8Z"/>
                <path class="cls-5" d="M113.7,21.4s1.3-3.4,1.2-7.6h-16.1v3.9h10.2s.4,7.8-10.9,9.5l2,3.4c3.6-.3,10.7-2.1,13.6-9.2Z"/>
              </g>
              <path class="cls-5" d="M150.7,29.6l2-3.3c-7.6-2.5-7.6-10.2-7.6-11v-1.8h-6v1.8c0,.7.3,9-7.5,11.9l2.1,3.2s5.4-1.6,8.6-6.9c2.7,4.8,8.4,6.1,8.4,6.1Z"/>
              <polygon class="cls-5" points="160.5 12.9 155.6 12.9 155.6 30.9 160.5 30.9 160.5 22.2 164.8 22.2 164.8 18.4 160.5 18.4 160.5 12.9"/>
            </g>
          </g>
          <g>
            <path class="cls-3" d="M41.6,0C27.3-.3,14.5,6.9,7,17.9c.1.2.3.3.4.5,0,0,.2.2.2.3,0,0,0,0,.1,0,.5,0,1.3.2,2,.9.4.4.7.8.9,1.2,0,.1.2.4.3.4.1.1.3.2.5.4.3.2.7.5,1,.8.3.3.5.6.8.9.2.2.3.4.5.6.1.1.3.3.5.5.3.3.6.5.9.9.4.4.6.9.8,1.3,0,.1.2.3.2.4h0c.3.3.5.7.8,1l.4.5c0,0,.2.2.4.4.3.3.7.6,1,1,.3.3.5.6.7,1,.2.2.3.4.4.6.3.4.5.9.7,1.2,0,.2.2.4.2.5,0,0,.2.3.4.4.3.3.6.6.9,1,.3.4.5.9.6,1.3,0,.1.1.3.2.4,0,0,.1,0,.2.1.4.2.9.6,1.3,1.3.2.4.4.7.5,1l.8.5c1.3.9,1.8.4,1.2-1l-7.2-16.4c-.6-1.4-.4-1.6.6-.3l10.7,14.2c.9,1.2,1.6,1,1.4-.6l-1.5-17.8c-.1-1.5.2-1.6.6-.1l5.2,16.8c.5,1.5,1.1,1.4,1.4,0l2.9-17.3c.3-1.5.6-1.5.7,0l.7,17.7c0,1.5.7,1.7,1.5.4l8.8-15.3c.8-1.3,1-1.2.6.3l-5,16.9c-.4,1.5.2,1.8,1.3.8l13.3-11.5c1.2-1,1.4-.8.5.4l-7.6,10.7c.4,0,.8,0,1.1-.2.6-.3,1-1.2,1.6-1.5.6-.3,1.5-.2,2.1-.5.6-.3,1.1-1.1,1.7-1.3.7-.3,1.3-.5,2-.7.7-.3,1.4-.7,2.1-.9.7-.2,1.5-.3,2.2-.6.7-.2,1.5,0,2.2-.1.7-.2,1.3-1,2-1.2.7-.2,1.5,0,2.2-.2.7-.2,1.5-.2,2.2-.3.8-.2,1.4-.6,2.1-.7.1,0,.3,0,.4,0C74.7,12.4,59.6.4,41.6,0Z"/>
            <path class="cls-1" d="M35.4,79s0,0,0-.1c0,0,0-.1,0-.2-.2-.3-.5-.8-.6-1.4,0-.2-.1-.5-.2-.8,0-.3-.2-.7-.3-1-.1-.5-.1-.9-.1-1.3,0-.2,0-.5,0-.6,0-.4-.1-.7-.2-1.1,0-.3,0-.5-.1-.7,0-.2-.1-.4-.2-.6-.1-.3-.3-.7-.4-1.1v-.4c-.1,0-.5-1.3-.5-1.3,0-.2-.2-.5-.2-.7-.1-.3-.2-.6-.3-1-.2-.6-.2-1.2-.1-1.6,0-.1,0-.3,0-.3,0-.2-.2-.5-.3-.8-.1-.3-.2-.6-.3-.9,0,0-.1-.2-.2-.3-.2-.3-.6-.8-.8-1.3,0-.2-.2-.4-.3-.6-.2-.3-.3-.6-.5-1-.1-.3-.2-.6-.4-.9l-.3-.7c-.3-.7-.2-1.4-.2-1.8,0,0,0-.1,0-.2,0-.1-.2-.3-.3-.5-.2-.3-.4-.6-.5-1,0-.1-.2-.3-.3-.5-.2-.3-.5-.7-.6-1.1-.2-.4-.3-.7-.4-1.1,0-.3-.1-.5-.2-.7-.1-.3-.2-.6-.4-.9-.1-.3-.2-.6-.3-.8l-.3-.7c-.1-.3-.3-.7-.4-1,0-.1-.2-.3-.3-.5-.2-.3-.5-.6-.7-1.1-.2-.5-.4-.9-.5-1.3,0-.1,0-.3,0-.4,0,0-.1-.1-.2-.2-.3-.3-.8-.6-1.1-1.3-.3-.6-.4-1.2-.5-1.6,0-.1,0-.3,0-.3-.2-.4-.4-.8-.5-1.1,0-.2-.1-.3-.2-.4,0,0-.1,0-.2-.1-.4-.3-.9-.6-1.3-1.2-.3-.4-.4-.9-.6-1.2,0-.2-.2-.4-.2-.5,0-.1-.2-.3-.4-.5-.3-.3-.5-.6-.8-.9-.3-.4-.5-.9-.6-1.2,0-.2-.2-.4-.2-.5-.2-.3-.4-.6-.6-.8-.2-.3-.3-.5-.5-.7,0,0-.3-.2-.4-.4-.3-.2-.6-.5-.9-.9l-.4-.5c-.2-.3-.5-.6-.7-.9-.4-.4-.6-.9-.8-1.2,0-.1-.2-.3-.2-.4-.2-.2-.4-.4-.6-.6-.2-.2-.5-.4-.8-.7-.2-.2-.4-.5-.6-.7-.2-.3-.4-.5-.6-.7-.1-.1-.4-.3-.6-.5-.3-.2-.5-.4-.8-.7-.4-.4-.7-.8-.9-1.2,0,0,0-.1-.1-.2,0,0,0,0-.1,0-.5,0-1.2-.2-1.9-.8-.1-.1-.2-.2-.3-.3C1.9,27.1.1,33.3,0,40c-.4,21,15.1,38.5,35.4,41.2,0-.1,0-.3-.1-.4-.1-.7,0-1.4.1-1.8Z"/>
            <path class="cls-2" d="M31.8,53c0,.2.2.4.3.6.2.3.4.7.6,1.1.3.7.2,1.4.2,1.8,0,0,0,.2,0,.2l.2.5c.1.3.3.7.4,1.1,0,.2.2.4.3.6.2.3.4.7.5,1.1,0,0,0,0,0,0,0,0,.1.2.2.3.2.3.6.8.8,1.4,0,.2.2.5.3.7.1.3.3.7.4,1.1.2.6.2,1.2.2,1.7,0,.1,0,.3,0,.4,0,.2.1.4.2.6.1.3.3.7.4,1.1l.4,1.4v.4c.1.2.2.4.3.6.1.3.3.7.4,1.2,0,.4.2.8.2,1.1,0,.3,0,.5.1.7.1.5.1,1,.1,1.3,0,.2,0,.4,0,.6,0,.2.1.5.2.7,0,.3.2.7.3,1.1,0,0,0,.2.2.3.2.4.5.8.6,1.5.1.7,0,1.4-.1,1.8,0,0,0,.1,0,.2,0,.1,0,.3.1.5,0,.3.2.6.3.9.1,0,.2,0,.3,0,12.1.2,23-4.8,30.6-13-14.2-10.9-31.5-14.7-38.9-15.9,0,0,0,.2.1.3Z"/>
            <path class="cls-4" d="M81.4,41.6c0-3.1-.2-6.1-.8-9-.3,0-.5,0-.8.1-.7.1-1.3.6-2,.7-.7.1-1.3.3-2,.5-.7.2-1.5.2-2.1.4-.7.2-1.5.1-2.1.3-.7.2-1.2.7-1.9.9-.7.2-1.5.3-2.1.5-.7.2-1.5.2-2.1.5-.7.3-1.2.8-1.8,1.1-.7.3-1.4.4-2.1.7-.7.3-1.2,1-1.8,1.3-.6.3-1.3.6-1.9,1-.6.4-1.3.6-1.9,1-.6.4-1.1,1-1.6,1.4-.6.5-1.1,1-1.6,1.4-.6.5-1.4.7-1.8,1.2-.5.4-1,.7-1.4,1.1l-.9,1.5c-.2.7-.2,1.2-.5.8l-2,3.2c8.3,2.5,18.2,6.7,27,13.5,5-6.6,8.1-14.9,8.3-23.9Z"/>
          </g>
        </g>
      </g>
    </g>
  </g>
</svg>