<?xml version="1.0" encoding="utf-8"?>
<!-- Generator: Adobe Illustrator 28.2.0, SVG Export Plug-In . SVG Version: 6.00 Build 0)  -->
<svg version="1.1" id="레이어_1" xmlns="http://www.w3.org/2000/svg" xmlns:xlink="http://www.w3.org/1999/xlink" x="0px"
	 y="0px" viewBox="0 0 291.7 62.3" style="enable-background:new 0 0 291.7 62.3;" xml:space="preserve">
<style type="text/css">
	.st0{fill:#4D94B4;}
	.st1{fill:#496A98;}
	.st2{fill:#D1AC77;}
	.st3{fill:#C7605B;}
	.st4{fill:#7C7C7C;}
</style>
<g>
	<g>
		
			<rect x="42.1" y="16.9" transform="matrix(0.9659 -0.2589 0.2589 0.9659 -7.1906 14.1389)" class="st0" width="16" height="34.9"/>
		
			<rect x="10.5" y="42.1" transform="matrix(0.9659 -0.2588 0.2588 0.9659 -12.0111 8.9415)" class="st1" width="34.9" height="16"/>
		<rect x="16.9" y="4.2" transform="matrix(0.9659 -0.2588 0.2588 0.9659 -1.9967 9.3132)" class="st2" width="34.9" height="16"/>
		<rect x="4.2" y="10.5" transform="matrix(0.9659 -0.2588 0.2588 0.9659 -6.8191 4.1206)" class="st3" width="16" height="34.9"/>
	</g>
	<g>
		<g>
			<polygon class="st4" points="199.8,24.9 196.4,24.9 196.4,16.5 192.6,16.5 192.6,37.3 196.4,37.3 196.4,29.1 199.8,29.1 			"/>
			<path class="st4" d="M188.7,17.3h-3.8v5h-8.2v-5h-3.8v18.9h15.8V17.3z M184.9,26.5v5.6h-8.2v-5.6H184.9z"/>
			<polygon class="st4" points="179,51.1 179,48.9 196.5,48.9 196.5,45 179,45 179,42.7 196.5,42.7 196.5,38.8 175.2,38.8 
				175.2,55.1 196.9,55.1 196.9,51.1 			"/>
		</g>
		<g>
			<polygon class="st4" points="225.4,16.9 225.4,28.1 222.4,28.1 222.4,16.9 218.6,16.9 218.6,42.3 208.2,42.3 208.2,22.2 
				215.3,22.2 215.3,17.9 204.5,17.9 204.5,46.6 218.6,46.6 218.6,56.2 222.4,56.2 222.4,32.4 225.4,32.4 225.4,56.2 229.2,56.2 
				229.2,16.9 			"/>
		</g>
		<g>
			<polygon class="st4" points="281.9,49.1 281.9,29.7 278.1,29.7 278.1,49.1 274.5,49.1 274.5,29.7 270.7,29.7 270.7,49.1 
				265.5,49.1 265.5,53.4 291.7,53.4 291.7,49.1 			"/>
			<polygon class="st4" points="289.8,17.9 267.7,17.9 267.7,22.2 286,22.2 286,45.5 289.8,45.5 			"/>
		</g>
		<g>
			<path class="st4" d="M140.7,31.6c0-5.4,3.3-9,8.3-9c4.9,0,8.3,3.6,8.3,9c0,5.4-3.3,9-8.3,9C144.1,40.6,140.7,37,140.7,31.6z
				 M149,36.5c2.7,0,4.6-2,4.6-5c0-3.1-1.9-5-4.6-5c-2.7,0-4.6,2-4.6,5C144.4,34.5,146.3,36.5,149,36.5z"/>
			<polygon class="st4" points="146.9,50.9 146.9,41.8 143.1,41.8 143.1,55.1 165.6,55.1 165.6,50.9 			"/>
			<polygon class="st4" points="168.3,27.5 165,27.5 165,16.4 161.2,16.4 161.2,43.2 165,43.2 165,31.8 168.3,31.8 			"/>
			<polygon class="st4" points="150.9,18.6 150.9,15.7 147.1,15.7 147.1,18.6 140.6,18.6 140.6,22.7 157.6,22.7 157.6,18.6 			"/>
		</g>
		<g>
			<path class="st4" d="M236.1,31.6c0-5.4,3.3-9,8.3-9c4.9,0,8.3,3.6,8.3,9c0,5.4-3.3,9-8.3,9C239.5,40.6,236.1,37,236.1,31.6z
				 M244.4,36.5c2.7,0,4.6-2,4.6-5c0-3.1-1.9-5-4.6-5c-2.7,0-4.6,2-4.6,5C239.8,34.5,241.6,36.5,244.4,36.5z"/>
			<polygon class="st4" points="246.3,18.6 246.3,15.7 242.5,15.7 242.5,18.6 236,18.6 236,22.7 253,22.7 253,18.6 			"/>
			<g>
				<polygon class="st4" points="263.5,25.8 259.9,25.8 259.9,16.4 256.1,16.4 256.1,41.4 259.9,41.4 259.9,30.1 263.5,30.1 				"/>
				<polygon class="st4" points="236.7,43.1 236.7,47.4 256.1,47.4 256.1,56.2 259.9,56.2 259.9,43.1 				"/>
			</g>
		</g>
		<g>
			<polygon class="st4" points="127.6,37.3 127.6,33.2 113.7,33.2 113.7,29.5 126.6,29.5 126.6,17.9 109.9,17.9 109.9,22 122.8,22 
				122.8,25.4 109.9,25.4 109.9,37.3 			"/>
			<rect x="130.8" y="16.5" class="st4" width="3.8" height="21.5"/>
			<path class="st4" d="M130.8,42.6h-15.3v-3.3h-3.8v15.9h22.9V39.2h-3.8V42.6z M130.8,46.8v4h-15.3v-4H130.8z"/>
		</g>
		<polygon class="st4" points="103.3,34.5 103.3,30.2 101.8,30.2 101.8,16.7 78.2,16.7 78.2,21 98,21 98,30.2 77.4,30.2 77.4,34.5 
			88.3,34.5 88.3,40.7 77.6,40.7 77.6,45 98.3,45 98.3,55.1 102.1,55.1 102.1,40.7 92.1,40.7 92.1,34.5 		"/>
	</g>
</g>
</svg>
