<?xml version="1.0" encoding="utf-8"?>
<!-- Generator: Adobe Illustrator 28.2.0, SVG Export Plug-In . SVG Version: 6.00 Build 0)  -->
<svg version="1.1" id="레이어_1" xmlns="http://www.w3.org/2000/svg" xmlns:xlink="http://www.w3.org/1999/xlink" x="0px"
	 y="0px" viewBox="0 0 363.6 88.3" style="enable-background:new 0 0 363.6 88.3;" xml:space="preserve">
<style type="text/css">
	.st0{fill:#FFFFFF;stroke:#000000;stroke-width:0.2;stroke-miterlimit:10;}
	.st1{fill:#DC3726;}
	.st2{fill:#1D2088;}
</style>
<g>
	<g>
		<path d="M43.6,32V0h0C29,0,17.2,11.8,17.2,26.4v17.1h14.9C32.4,37.3,37.4,32.3,43.6,32z"/>
		<path class="st0" d="M32.1,44.8h-32c0,14.6,11.8,26.4,26.4,26.4h17.1V56.3C37.4,56,32.4,51,32.1,44.8z"/>
		<path class="st1" d="M44.9,56.3v32c14.6,0,26.4-11.8,26.4-26.4V44.8H56.4C56.1,51,51.1,56,44.9,56.3z"/>
		<path class="st2" d="M56.4,43.5h32c0-14.6-11.8-26.4-26.4-26.4H44.9V32C51.1,32.3,56.1,37.3,56.4,43.5z"/>
	</g>
	<g>
		<path d="M104.2,67.4c-5.4-5.9-8-13.2-8-21.9c0-8.5,2.7-15.9,8-22.3h5.6c-5.1,6.6-7.7,14-7.7,22.2c0,8.2,2.6,15.5,7.7,21.9H104.2z"
			/>
		<path d="M136.4,49.5v18.2h-6.2V49.5h-18.8v-5.2h43.8v5.2H136.4z M150.4,41.2c-7.4-1.5-13.1-4.4-17.2-8.9c-1.4,1.8-3.7,3.7-7,5.4
			c-3.3,1.8-6.6,3-9.9,3.5l-3.7-4.7c4-0.3,7.6-1.3,10.9-3s5.4-3.8,6.3-6.1h-13.5v-5.2h34.2v5.2h-13.7c0.9,2.2,2.9,4.1,6,5.8
			c3.1,1.7,6.8,2.7,11,3.2L150.4,41.2z"/>
		<path d="M156.8,67.4c5.2-6.4,7.7-13.7,7.7-21.9c0-8.2-2.6-15.6-7.7-22.2h5.7c5.4,6.4,8.1,13.8,8.1,22.3c0,8.6-2.7,15.9-8.1,21.9
			H156.8z"/>
		<path d="M199.8,43.5c-2.5,3-5.8,4.6-10.1,4.6c-3.7,0-6.7-1.2-9.2-3.6c-2.5-2.4-3.7-5.5-3.7-9.4s1.2-7,3.7-9.4
			c2.5-2.4,5.5-3.6,9.2-3.6c4.4,0,7.8,1.6,10.3,4.8h9.7v-6.6h6.1v34.1h-6.1V43.5H199.8z M189.7,27.4c-2.1,0-3.7,0.7-5,2.1
			c-1.2,1.4-1.9,3.3-1.9,5.7c0,2.4,0.6,4.4,1.9,5.7c1.2,1.4,2.9,2.1,5,2.1c2,0,3.7-0.7,4.9-2.1c1.3-1.4,1.9-3.3,1.9-5.7
			c0-2.4-0.6-4.3-1.9-5.7C193.4,28.1,191.7,27.4,189.7,27.4z M185.4,66.1V50.5h6.1v10.4h25.2v5.2H185.4z M202.1,38.7h7.6V32h-7.5
			c0.2,1,0.3,2.1,0.3,3.2C202.5,36.4,202.4,37.6,202.1,38.7z"/>
		<path d="M248.5,51.6v16.2h-6.2V51.6h-18.8v-5.2h43.8v5.2H248.5z M230.3,41V22.3h30.1V41H230.3z M254.4,27.4h-17.9v8.4h17.9V27.4z"
			/>
		<path d="M297.9,24.7c-0.1,6.7-2,13-5.7,18.7c-3.7,5.7-8.9,10.4-15.6,14.1l-4.7-4.5c4.8-1.8,9.1-4.9,12.7-9.2
			c3.7-4.3,5.9-8.9,6.8-13.9h-16.6v-5.2H297.9z M305.1,67.7V20.5h6v47.2H305.1z"/>
		<path d="M326.2,66.9V54.9H351v-2.4h-24.8v-5h12.4v-3h-18.8v-5h43.8v5h-18.8v3h12.4v12.1h-24.8v2.5h26v5H326.2z M358.9,36.6
			c-7.6-1.1-13.3-3.7-17.2-7.8c-3.6,3.9-9.2,6.5-17,7.8l-3.3-4.6c5.2-0.4,9.3-1.5,12.5-3.4c3.1-1.9,4.7-3.8,4.7-5.8v-2h6.1v2
			c0,2,1.6,3.9,4.9,5.8c3.2,1.9,7.3,3,12.3,3.4L358.9,36.6z"/>
	</g>
</g>
</svg>
