<?xml version="1.0" encoding="UTF-8"?>
<svg xmlns="http://www.w3.org/2000/svg" version="1.1" viewBox="0 0 190.2 55.8">
  <defs>
    <style>
      .cls-1 {
        fill: #868686;
      }

      .cls-2 {
        fill: #4b4b4a;
      }
    </style>
  </defs>
  <!-- Generator: Adobe Illustrator 28.6.0, SVG Export Plug-In . SVG Version: 1.2.0 Build 709)  -->
  <g>
    <g id="_레이어_1" data-name="레이어_1">
      <g id="_레이어_1-2" data-name="_레이어_1">
        <g>
          <g>
            <path class="cls-1" d="M42.6,45c0,.4-.3.8-.8.8s-.8-.3-.8-.8.3-.8.8-.8c.4,0,.8.4.8.8ZM41.2,53v-6.3h1.2v6.3h-1.2Z"/>
            <path class="cls-1" d="M44,48.5v-1.7h1.1v1.1h0c.3-.6,1.1-1.2,2.1-1.2s2.4.5,2.4,2.7v3.8h-1.2v-3.6c0-1-.4-1.8-1.5-1.8s-1.4.5-1.6,1.2c0,0,0,.3,0,.5v3.8h-1.2v-4.6h0v-.2Z"/>
            <path class="cls-1" d="M52.6,45.3v1.5h1.7v.9h-1.7v3.4c0,.8.2,1.2.9,1.2s.5,0,.6,0v.9c-.2,0-.6.2-1.1.2s-1-.2-1.3-.5-.4-.9-.4-1.6v-3.4h-1v-.9h1v-1.2l1.3-.3h0Z"/>
            <path class="cls-1" d="M55.9,50.1c0,1.5,1.1,2.1,2.3,2.1s1.4,0,1.8-.3l.2.9c-.4.2-1.2.4-2.1.4-2,0-3.2-1.3-3.2-3.2s1.2-3.4,3.1-3.4,2.7,1.8,2.7,3v.5h-4.8ZM59.3,49.3c0-.8-.3-1.8-1.6-1.8s-1.7,1.1-1.8,1.8c0,0,3.4,0,3.4,0Z"/>
            <rect class="cls-1" x="61.6" y="43.8" width="1.2" height="9.2"/>
            <rect class="cls-1" x="64.5" y="43.8" width="1.2" height="9.2"/>
            <path class="cls-1" d="M68.7,45c0,.4-.3.8-.8.8s-.8-.3-.8-.8.3-.8.8-.8c.4,0,.8.4.8.8ZM67.4,53v-6.3h1.2v6.3h-1.2Z"/>
            <path class="cls-1" d="M75.8,52.2c0,1.4-.3,2.4-1,2.9-.6.5-1.5.8-2.4.8s-1.6-.2-2.1-.5l.3-.9c.4.2,1.1.5,1.9.5s2.1-.6,2.1-2.1v-.8h0c-.3.5-1.1,1.1-2,1.1-1.6,0-2.8-1.3-2.8-3.1s1.4-3.3,2.9-3.3,1.7.5,2,1.1h0v-1h1.1v5.4h0,0ZM74.6,49.3c0-.2,0-.3,0-.5-.2-.6-.8-1.2-1.7-1.2s-1.9,1-1.9,2.4.6,2.3,1.9,2.3,1.4-.4,1.6-1.2c0-.2,0-.4,0-.6v-1.1h0Z"/>
            <path class="cls-1" d="M78,50.1c0,1.5,1.1,2.1,2.3,2.1s1.4,0,1.8-.3l.2.9c-.4.2-1.2.4-2.1.4-2,0-3.2-1.3-3.2-3.2s1.2-3.4,3.1-3.4,2.7,1.8,2.7,3v.5h-4.8ZM81.5,49.3c0-.8-.3-1.8-1.6-1.8s-1.7,1.1-1.8,1.8h3.4Z"/>
            <path class="cls-1" d="M83.8,48.5v-1.7h1.1v1.1h0c.3-.6,1.1-1.2,2.1-1.2s2.4.5,2.4,2.7v3.8h-1.2v-3.6c0-1-.4-1.8-1.5-1.8s-1.4.5-1.6,1.2c0,0,0,.3,0,.5v3.8h-1.2v-4.6h0v-.2Z"/>
            <path class="cls-1" d="M92.4,45.3v1.5h1.7v.9h-1.7v3.4c0,.8.2,1.2.9,1.2s.5,0,.6,0v.9c0,0-.5.2-1,.2s-1-.2-1.3-.5-.4-.9-.4-1.6v-3.4h-1v-.9h1v-1.2l1.2-.3h0Z"/>
            <path class="cls-1" d="M103.3,53c-.2-.2-.5-.5-.9-.9-.8.8-1.6,1-2.7,1-1.8,0-2.8-1.2-2.8-2.5s.8-2,1.8-2.6h0c-.4-.5-.8-1.2-.8-1.8,0-1.1.8-2.1,2.4-2.1s2,.8,2,1.8-.5,1.6-2,2.4h0c.8.9,1.6,1.8,2.3,2.5.4-.6.8-1.5.9-2.6h1.1c-.2,1.4-.6,2.5-1.3,3.2l1.5,1.5h-1.5ZM100,52.4c.8,0,1.4-.3,1.8-.8-.5-.5-1.6-1.6-2.6-2.8-.5.3-1.2.9-1.2,1.8,0,1,.9,1.7,1.9,1.7h0ZM100.3,45c-.8,0-1.2.6-1.2,1.3s.3,1.1.6,1.6c1-.5,1.5-1,1.5-1.7s-.2-1.2-1-1.2h0Z"/>
            <path class="cls-1" d="M112.7,52.8c-.3,0-1,.4-1.9.4-1.9,0-3.2-1.3-3.2-3.2s1.4-3.3,3.5-3.3,1.3.2,1.6.3l-.2.9c-.3,0-.8-.3-1.4-.3-1.5,0-2.4,1.1-2.4,2.4s1,2.4,2.3,2.4,1.1-.2,1.5-.3l.2.9v-.2Z"/>
            <path class="cls-1" d="M113.6,48.7v-1.9h1.1v1.3h0c.3-.9,1-1.4,1.8-1.4h.3v1.1h-.4c-.9,0-1.4.6-1.6,1.5,0,0,0,.3,0,.5v3.3h-1.2s0-4.4,0-4.4Z"/>
            <path class="cls-1" d="M118.2,50.1c0,1.5,1.1,2.1,2.3,2.1s1.4,0,1.8-.3l.2.9c-.4.2-1.2.4-2.1.4-2,0-3.2-1.3-3.2-3.2s1.2-3.4,3.1-3.4,2.7,1.8,2.7,3v.5h-4.8ZM121.8,49.3c0-.8-.3-1.8-1.6-1.8s-1.7,1.1-1.8,1.8h3.4Z"/>
            <path class="cls-1" d="M128.7,51.5c0,.5,0,1.1.1,1.5h-1.1v-.8h0c-.3.5-1.1,1-2,1s-2-.9-2-1.8c0-1.5,1.4-2.4,4-2.4h0c0-.6,0-1.6-1.5-1.6s-1.3.2-1.7.4l-.3-.8c.5-.3,1.3-.5,2.1-.5,2,0,2.5,1.3,2.5,2.6v2.4h.1-.1ZM127.5,49.8c-1.3,0-2.8.2-2.8,1.4s.5,1.1,1.1,1.1c.9,0,1.4-.5,1.6-1.1,0,0,0-.2,0-.3,0,0,0-1.1,0-1.1Z"/>
            <path class="cls-1" d="M131.7,45.3v1.5h1.7v.9h-1.7v3.4c0,.8.2,1.2.9,1.2s.5,0,.6,0v.9c-.1,0-.5.2-1,.2s-1-.2-1.3-.5-.4-.9-.4-1.6v-3.4h-1v-.9h1v-1.2l1.2-.3h0Z"/>
            <path class="cls-1" d="M135.6,45c0,.4-.3.8-.8.8s-.8-.3-.8-.8.3-.8.8-.8c.4,0,.8.4.8.8ZM134.3,53v-6.3h1.2v6.3h-1.2Z"/>
            <path class="cls-1" d="M137.6,46.8l1.3,3.5c.2.5.4,1.1.5,1.6h0c.1-.5.3-1.1.5-1.6l1.3-3.5h1.3l-2.6,6.3h-1.1l-2.5-6.3h1.3Z"/>
            <path class="cls-1" d="M143.8,50.1c0,1.5,1.1,2.1,2.3,2.1s1.4,0,1.8-.3l.2.9c-.4.2-1.2.4-2.1.4-2,0-3.2-1.3-3.2-3.2s1.2-3.4,3.1-3.4,2.7,1.8,2.7,3v.5h-4.8ZM147.3,49.3c0-.8-.3-1.8-1.6-1.8s-1.7,1.1-1.8,1.8h3.4Z"/>
          </g>
          <g>
            <path class="cls-2" d="M0,5.2v5.7h4.4c2.9,0,5.2-2.3,5.2-5.2V0h-4.4C2.3,0,0,2.3,0,5.2Z"/>
            <path class="cls-2" d="M2.6,12.8H0v20.1c0,3,2.4,5.4,5.4,5.4h2.6v-20.1c0-3-2.4-5.4-5.4-5.4Z"/>
            <path class="cls-2" d="M47.4,13.3c-1.4,0-2.5,1.1-2.5,2.5v11.1c0,3.3-2.3,5-5.2,5s-5.2-1.7-5.2-5v-10.5h0c0-1.7-1.4-3.1-3.1-3.1s-3.1,1.4-3.1,3.1h0v10.5c0,3.3-2.3,5-5.2,5s-5.2-1.7-5.2-5v-11.1c0-1.4-1.1-2.5-2.5-2.5s-2.5,1.1-2.5,2.5v11.1c0,6,4.6,11,10.2,11s6.4-1.8,8.3-4.6c1.9,2.8,4.9,4.6,8.3,4.6,5.6,0,10.2-4.9,10.2-11v-11.1c0-1.4-1.1-2.5-2.5-2.5Z"/>
            <path class="cls-2" d="M75.1,13.7h-9.6c-6,0-10.9,4.9-10.9,10.9v1.9c0,6,4.9,10.9,10.9,10.9h9.6c6,0,10.9-4.9,10.9-10.9v-1.9c0-6-4.9-10.9-10.9-10.9ZM80.3,26.4c0,3.1-2.5,5.5-5.5,5.5h-8.9c-3.1,0-5.5-2.5-5.5-5.5v-1.8c0-3.1,2.5-5.5,5.5-5.5h8.9c3.1,0,5.5,2.5,5.5,5.5,0,0,0,1.8,0,1.8Z"/>
            <path class="cls-2" d="M141.3,25.4c7.5-3,12.4-7.5,12.8-7.8,1.1-1,1.1-2.6.2-3.7-1-1.1-2.6-1.1-3.7-.2,0,0-9,8-20.5,9v-6.9c0-1.6-1.3-2.9-2.9-2.9s-2.9,1.3-2.9,2.9v19c0,1.6,1.3,2.9,2.9,2.9s2.9-1.3,2.9-2.9v-6.6c4.9.4,13.9,2.2,20.4,8.9.5.5,1.2.8,1.9.8s1.3-.2,1.8-.7c1-1,1-2.7,0-3.7-3.9-4-8.5-6.5-12.9-8.1Z"/>
            <path class="cls-2" d="M182.4,23h-17.1c-1.5,0-2.7-1-2.7-2.2s1.2-2.2,2.7-2.2h20.5c1.4,0,2.5-1.1,2.5-2.5s-1.1-2.5-2.5-2.5h-20.5c-4.3,0-7.7,3.2-7.7,7.2s3.5,7.2,7.7,7.2h17.1c1.5,0,2.7,1,2.7,2.2s-1.2,2.2-2.7,2.2h-20.5c-1.4,0-2.5,1.1-2.5,2.5s1.1,2.5,2.5,2.5h20.5c4.3,0,7.7-3.2,7.7-7.2s-3.5-7.2-7.7-7.2Z"/>
            <path class="cls-2" d="M118.6,33.2l-7.3-5.9h1.2c3.8,0,6.8-3.1,6.8-6.8s-3.1-6.8-6.8-6.8h-20.5c-1.4,0-2.5,1.1-2.5,2.5s1.1,2.5,2.5,2.5h20.5c1,0,1.8.8,1.8,1.8s-.8,1.8-1.8,1.8h-17.7c-2.9,0-5.3,2.4-5.3,5.3v7.2c0,1.4,1.1,2.5,2.5,2.5s2.5-1.1,2.5-2.5v-4.5s0-2.1,2-2.1c3.4,0,7.4,1.4,10.3,3.3l9,5.9c.4.3.9.4,1.4.4.8,0,1.6-.4,2.1-1.1.8-1.2.4-2.7-.7-3.5Z"/>
          </g>
        </g>
      </g>
    </g>
  </g>
</svg>