<?xml version="1.0" encoding="UTF-8"?>
<svg xmlns="http://www.w3.org/2000/svg" version="1.1" viewBox="0 0 189.8 64">
  <defs>
    <style>
      .cls-1 {
        fill: #263669;
      }

      .cls-2 {
        fill: #5c791b;
      }

      .cls-3 {
        fill: #3e3e3e;
      }

      .cls-4 {
        fill: #a5cd39;
      }

      .cls-5 {
        fill: #00567e;
      }

      .cls-6 {
        fill: #4b5da9;
      }

      .cls-7 {
        fill: #a6a8ab;
      }

      .cls-8 {
        fill: #0090d0;
      }
    </style>
  </defs>
  <!-- Generator: Adobe Illustrator 28.6.0, SVG Export Plug-In . SVG Version: 1.2.0 Build 709)  -->
  <g>
    <g id="_레이어_1" data-name="레이어_1">
      <g>
        <path class="cls-4" d="M53.2,31.2c-9-1.3-17.3,5-18.6,14s5,17.3,14,18.6c9,1.3,17.3-5,18.6-14h0c1.3-9-5-17.3-14-18.6ZM57.2,48.4c-.5,3.5-3.7,5.9-7.2,5.4-3.5-.5-5.9-3.7-5.4-7.2.5-3.5,3.7-5.9,7.2-5.4,3.5.5,5.9,3.7,5.4,7.2h0s0,0,0,0Z"/>
        <path class="cls-8" d="M22.7,1.7C11.7.2,1.6,7.9.2,18.9s6.3,21,17.2,22.5c11,1.4,21-6.3,22.5-17.2h0c1.4-11-6.3-21-17.2-22.5ZM29.7,22.8c-.7,5.4-5.6,9.1-11,8.4-5.4-.7-9.1-5.6-8.4-11s5.6-9.1,11-8.4c0,0,0,0,0,0,5.4.7,9.1,5.6,8.4,11Z"/>
        <path class="cls-6" d="M43.2,12.2c-.9,7.6,4.5,14.5,12.1,15.4,7.6.9,14.5-4.5,15.4-12.1.9-7.6-4.5-14.5-12.1-15.4h0c-7.6-.9-14.5,4.5-15.4,12.1"/>
        <path class="cls-1" d="M53.9,27.3v-10.5h-10.5c1.2,5.2,5.3,9.3,10.5,10.5"/>
        <path class="cls-2" d="M34.6,45.3c0,.6-.1,1.3-.2,1.9h10.1c0-.2,0-.3,0-.5.5-3.5,3.7-5.9,7.2-5.4.8.1,1.5.3,2.2.7v-10.6c-.2,0-.5,0-.7-.1-9-1.3-17.3,5-18.6,14"/>
        <path class="cls-5" d="M39.9,24.2c.3-2.4.2-4.9-.4-7.3h-10.9c2.6,4.8.8,10.7-3.9,13.3-.4.2-.8.4-1.1.5v10.6c8.6-1.5,15.2-8.5,16.3-17.1"/>
        <path class="cls-7" d="M23.6,30.7c5-2,7.5-7.6,5.6-12.7-.2-.4-.3-.8-.5-1.1h-5.1v13.8Z"/>
        <path class="cls-7" d="M53.9,41.9c-3.1-1.7-7-.5-8.6,2.6-.4.7-.6,1.4-.7,2.2,0,.2,0,.3,0,.5h9.4v-5.3Z"/>
        <g>
          <path class="cls-3" d="M81.9,48.8h10.3v-19.4c0-.3-.3-.6-.6-.6h-11.5v18.1c0,1,.8,1.8,1.8,1.8M83.6,31h4.9v15.5h-4.3c-.3,0-.6-.3-.6-.6h0v-14.9Z"/>
          <path class="cls-3" d="M94.9,51.1h3.6v-22.6c0-.3-.3-.6-.6-.6h-3v23.2h0Z"/>
          <path class="cls-3" d="M117.6,35.4h-1.1v-6.9c0-.3-.3-.6-.6-.6h-2.9v19.2h-6.9c-.3,0-.6-.3-.6-.6v-6.8h5.9v-10.3c0-.3-.3-.6-.6-.6h-8.9v2.2h5.9v6.4h-5.9v10.1c0,1,.8,1.8,1.8,1.8h9.3v1.8h3.5v-13.4h1.1v13.4h3.5v-22.6c0-.3-.3-.6-.6-.6h-2.9v7.5h0Z"/>
          <path class="cls-3" d="M139.8,44.4h3.6v-14.7c0-.3-.3-.6-.6-.6h-17.7v2.2h14.7v13.1h0Z"/>
          <path class="cls-3" d="M137.8,38.7h-3v9.1h-2.6v-8.5c0-.3-.3-.6-.6-.6h-3v9.1h-4.6v2.2h20.8v-2.2h-6.3v-8.5c0-.3-.3-.6-.6-.6"/>
          <path class="cls-3" d="M186.1,27.9v10.9h-15.8v2.2h4.4v3.1h3.6v-3.1h7.8v1.9h-4.8v2.2h4.8v3.9h-10.1c-.3,0-.6-.3-.6-.6v-2.7c0-.3-.3-.6-.6-.6h-3v4.3c0,1,.8,1.8,1.8,1.8h16.1v-22.6c0-.3-.3-.6-.6-.6h-3Z"/>
          <path class="cls-3" d="M146.9,40.9h4.4v2h-3.2v2.2h14.7v6.1h3.6v-7.7c0-.3-.3-.6-.6-.6h-2.3v-2h4.3v-2.2h-20.8v2.2ZM154.9,40.9h4.9v2h-4.9v-2Z"/>
          <path class="cls-3" d="M157.4,37.9c5.7,0,9.2-1.9,9.2-5s-3.5-5-9.2-5-9.2,1.9-9.2,5,3.5,5,9.2,5M157.4,30c3.4,0,5.5,1.1,5.5,2.9s-2.1,2.9-5.5,2.9-5.5-1.1-5.5-2.9,2.1-2.9,5.5-2.9"/>
          <path class="cls-3" d="M177.7,37.7c4.2,0,7-2,7-4.9s-2.8-4.9-7-4.9-7,2-7,4.9,2.8,4.9,7,4.9M177.7,30.1c1.6,0,3.3.8,3.3,2.7s-1.6,2.7-3.3,2.7-3.3-.8-3.3-2.7,1.6-2.7,3.3-2.7"/>
          <path class="cls-3" d="M88.6,12.7h-1.3v1.3h-1.5c0-.3,0-.6,0-.9h-5.9v1h4.1c-.1.6-.7,2.8-4.1,2.8h-.3l.3.9h0s4.3.2,5.5-2.8h1.7v1h-2v1h2v1.7c-.8-.3-1.6-.4-2.4-.4-2.6,0-4,.9-4,2.6s1.5,2.6,4,2.6,4-.9,4-2.6h0v-8c0-.2-.1-.3-.3-.3M84.9,22.5c-1.5,0-2.4-.6-2.4-1.6s.9-1.6,2.4-1.6,2.4.6,2.4,1.6-.9,1.6-2.4,1.6"/>
          <path class="cls-3" d="M98.8,12.7h-1.3v6.1c-.8-.3-1.6-.4-2.4-.4-2.6,0-4,.9-4,2.6s1.5,2.6,4,2.6,4-.9,4-2.6h0s0-5.1,0-5.1h1.1v-1h-1.1v-1.9c0-.2-.1-.3-.3-.3M95,22.5c-1.5,0-2.4-.6-2.4-1.6s.9-1.6,2.4-1.6,2.4.6,2.4,1.6-.9,1.6-2.4,1.6"/>
          <path class="cls-3" d="M109.3,12.7h-1.3v3.9h-5c-.2,0-.3-.1-.3-.3h0v-3.4h-1.6v3.8c0,.5.4.8.8.8h6v1h-6.4v3.7c0,.5.4.8.8.8h7.2v-7.2h1.1v-1h-1.1v-1.9c0-.2-.1-.3-.3-.3h0M108,22.1h-4.5c-.2,0-.3-.1-.3-.3v-2.2h4.8v2.5Z"/>
          <path class="cls-3" d="M116.8,19.2h3.3v-1h-6.3c-.2,0-.3-.1-.3-.3v-3.9h6.4v-1h-8.1v5.3c0,.5.4.8.8.8h2.4v2.5h-3.8v1h9.1v-1h-3.7v-2.5Z"/>
          <path class="cls-3" d="M128.6,20.1h1.6v-6.6c0-.2-.1-.3-.3-.3h-7.9v1h6.6v5.9Z"/>
          <path class="cls-3" d="M127.7,17.5h-1.3v4.1h-1.2v-3.8c0-.2-.1-.3-.3-.3h-1.3v4.1h-2.1v1h9.3v-1h-2.8v-3.8c0-.2-.1-.3-.3-.3"/>
          <path class="cls-3" d="M131.8,18.5h2v.9h-1.4v1h6.6v2.7h1.6v-3.4c0-.2-.1-.3-.3-.3h-1v-.9h1.9v-1h-9.3v1ZM135.4,18.5h2.2v.9h-2.2v-.9Z"/>
          <path class="cls-3" d="M93.3,16.1c.8.9,1.8,1.6,3,1.9h0s.5-.8.5-.8h-.1c-1.6-.4-2.6-1.9-2.6-3.5v-.7c0-.2-.1-.3-.3-.3h-1.4v.9c0,1.6-1,3.1-2.6,3.4h-.1c0,0,.5.8.5.8h0c1.2-.3,2.2-1,3-1.9"/>
          <path class="cls-3" d="M136.4,17.1c2.5,0,4.1-.9,4.1-2.3s-1.6-2.3-4.1-2.3-4.1.9-4.1,2.3,1.6,2.3,4.1,2.3M136.4,13.6c1.5,0,2.5.5,2.5,1.3s-.9,1.3-2.5,1.3-2.5-.5-2.5-1.3.9-1.3,2.5-1.3"/>
          <path class="cls-3" d="M145.2,16.1c.7.9,1.7,1.6,2.8,1.9h0s.5-.8.5-.8h-.1c-1.3-.4-2.3-1.5-2.5-2.9h2.1v-1h-2.1v-.7c0-.2-.1-.3-.3-.3h-1.4v1h-2.1v1h2.1c-.1,1.4-1.1,2.5-2.5,2.8h-.1s.5.8.5.8h0c1.1-.3,2.1-1,2.8-2"/>
          <path class="cls-3" d="M151.1,20.9h0v-8c0-.2-.1-.3-.3-.3h-1.3v2.3h-1.7v1h1.7v2.8c-.8-.3-1.6-.4-2.4-.4-2.6,0-4,.9-4,2.6s1.5,2.6,4,2.6,4-.9,4-2.6h0M147.1,22.5c-1.5,0-2.4-.6-2.4-1.6s.9-1.6,2.4-1.6,2.4.6,2.4,1.6-.9,1.6-2.4,1.6"/>
        </g>
      </g>
    </g>
  </g>
</svg>