<?xml version="1.0" encoding="utf-8"?>
<!-- Generator: Adobe Illustrator 28.2.0, SVG Export Plug-In . SVG Version: 6.00 Build 0)  -->
<svg version="1.1" id="레이어_1" xmlns="http://www.w3.org/2000/svg" xmlns:xlink="http://www.w3.org/1999/xlink" x="0px"
	 y="0px" viewBox="0 0 191.8 54.1" style="enable-background:new 0 0 191.8 54.1;" xml:space="preserve">
<style type="text/css">
	.st0{fill-rule:evenodd;clip-rule:evenodd;fill:#FFFFFF;}
	.st1{fill-rule:evenodd;clip-rule:evenodd;fill:#AD0A5A;}
	.st2{fill-rule:evenodd;clip-rule:evenodd;fill:#365C8F;}
	.st3{fill:#2F2D2B;}
</style>
<g>
	<path class="st0" d="M21.6,17.3c7.2,0,13,5.8,13,13c0,7.2-5.8,13-13,13s-13-5.8-13-13C8.6,23.1,14.4,17.3,21.6,17.3"/>
	<path class="st1" d="M6,45.1C2.3,41.2,0,36,0,30.3c0-4.9,1.6-9.4,4.4-13.1H4.3C1.9,17.2,0,15.3,0,13c0-2.4,1.9-4.3,4.3-4.3h13.1
		V4.3c0-2.4,1.9-4.3,4.3-4.3c2.4,0,4.3,1.9,4.3,4.3v4.8c9.9,2,17.3,10.7,17.3,21.2c0,5.7-2.3,10.9-6,14.8l0,0l-4.4-6.6
		c1.7-2.3,2.7-5.1,2.7-8.2c0-7.7-6.3-14-14-14c-7.7,0-14,6.3-14,14c0,3.1,1,5.9,2.6,8.2L6,45.1L6,45.1z"/>
	<path class="st2" d="M10.9,37.6l10.7-16.4l11.4,17.2l10.3,15.6h-9.5l-2.9-4.3c-2.8,1.3-5.9,2.1-9.3,2.1c-3.3,0-6.4-0.8-9.2-2.1
		l-2.8,4.3H0.1l10.2-15.6c2.6,3.6,6.9,5.8,11.3,5.8c1.7,0,3.4-0.3,5-0.9l-5-7.6l-4.4,6.8C14.5,41.6,12.4,39.8,10.9,37.6"/>
	<path class="st3" d="M191.8,36h-6.3v-8.1h-2.8V36h-2.2v-8.1h-2.8V36h-2v2h16V36z M176.7,21.7v2.2h11.6v5.6c0,1.2-0.1,2.4-0.2,3.5
		c-0.2,1-0.4,2-0.7,3h2.7c0.3-1.1,0.6-2.3,0.8-3.6c0.2-1.2,0.3-2.5,0.3-3.9v-6.8H176.7z M156.6,32.7v2h11.2v4.5h2.8v-6.6H156.6z
		 M167.7,21.3v10.2h2.8v-3.9h1.9v-2.1h-1.9v-4.2H167.7z M160.6,25.5c0.8,0,1.5,0.2,1.9,0.6c0.4,0.4,0.7,0.8,0.7,1.3
		c0,0.5-0.2,1-0.7,1.4c-0.5,0.4-1.1,0.7-1.9,0.7c-0.8,0-1.4-0.2-1.9-0.7c-0.4-0.4-0.6-0.9-0.6-1.4c0-0.5,0.2-1,0.6-1.3
		C159.1,25.7,159.7,25.5,160.6,25.5z M155.3,22.4v1.9h2.8c-1.2,0.3-2,0.8-2.5,1.6c-0.4,0.7-0.5,1.5-0.3,2.5c0.2,0.8,0.8,1.5,1.6,2.1
		c1,0.6,2.2,1,3.6,1c1.4,0,2.6-0.3,3.6-0.9c0.9-0.5,1.4-1.2,1.7-2.1c0.2-1,0.1-1.8-0.3-2.5c-0.5-0.8-1.3-1.3-2.5-1.6h2.8v-1.9H162
		v-1.2h-2.8v1.2H155.3z M141.3,21.7h-6v13.3c0,0.7,0.2,1.3,0.5,1.6c0.4,0.4,1,0.6,1.8,0.6h5.3v2.1h2.8v-8.8h2.1v8.8h2.8v-18h-2.8
		v7.1h-2.1v-7.1H143v13.9h-4.9V23.6h3.2V21.7z M122.9,32c-2.3,0-4,0.4-5.3,1.2c-1.1,0.7-1.7,1.6-1.7,2.7c0,1,0.6,1.9,1.7,2.6
		c1.3,0.8,3.1,1.2,5.3,1.2c2.2,0,4-0.4,5.3-1.2c1.2-0.7,1.7-1.6,1.7-2.6c0-1.1-0.6-1.9-1.7-2.7C126.9,32.4,125.2,32,122.9,32z
		 M122.8,34.1c1.4,0,2.5,0.2,3.3,0.6c0.7,0.3,1.1,0.8,1.1,1.3c0,0.5-0.4,0.9-1.1,1.2c-0.8,0.4-1.9,0.6-3.3,0.6
		c-1.4,0-2.4-0.2-3.2-0.6c-0.7-0.3-1-0.7-1-1.2c0-0.5,0.3-0.9,1-1.3C120.4,34.3,121.4,34.1,122.8,34.1z M126.9,21.3v10.2h2.8v-3.9
		h1.9v-2.1h-1.9v-4.2H126.9z M121.3,21.5h-2.8c0,2.2-0.5,4-1.5,5.5c-0.7,1-1.7,1.9-3,2.6l1.1,1.5c1-0.5,2-1.1,2.9-1.9
		c0.9-0.7,1.5-1.5,1.9-2.1c0.3,0.7,1,1.4,1.8,2.2c0.9,0.7,1.8,1.4,2.9,1.9l1.3-1.5c-1.4-0.6-2.5-1.5-3.2-2.6
		C121.8,25.5,121.3,23.7,121.3,21.5z M102.5,32.1c-2.3,0-4.1,0.4-5.4,1.2c-1.2,0.7-1.8,1.6-1.8,2.7c0,1,0.6,1.9,1.8,2.6
		c1.3,0.8,3.1,1.2,5.4,1.2c2.3,0,4.1-0.4,5.5-1.2c1.2-0.7,1.8-1.6,1.8-2.6c0-1-0.6-1.9-1.8-2.7C106.7,32.5,104.9,32.1,102.5,32.1z
		 M102.5,34.1c1.4,0,2.6,0.2,3.4,0.6c0.7,0.3,1.1,0.8,1.1,1.2c0,0.5-0.4,0.9-1.1,1.2c-0.8,0.4-1.9,0.6-3.4,0.6
		c-1.4,0-2.5-0.2-3.3-0.6c-0.7-0.3-1.1-0.7-1.1-1.2c0-0.5,0.4-0.9,1.1-1.2C100,34.3,101.1,34.1,102.5,34.1z M103.9,28.8v0.5h2.9v2.1
		h2.8V21.3h-2.8V23h-2.8v0.3c-0.4-0.6-1-1.2-1.7-1.5c-0.8-0.4-1.7-0.6-2.7-0.6c-1.7,0-3,0.5-3.9,1.5c-0.8,0.9-1.2,2-1.2,3.4
		c0,1.4,0.4,2.5,1.2,3.4c0.9,1,2.2,1.5,3.9,1.5c1,0,1.9-0.2,2.7-0.6C103,30,103.5,29.5,103.9,28.8z M106.8,25v2.5h-2.2
		c0-0.2,0.1-0.4,0.1-0.7c0-0.2,0.1-0.5,0.1-0.7c0-0.2,0-0.4,0-0.6c0-0.2-0.1-0.4-0.1-0.5H106.8z M99.5,23.2c0.8,0,1.4,0.3,1.8,0.8
		c0.4,0.5,0.6,1.2,0.6,2c0,0.8-0.2,1.5-0.6,2c-0.4,0.6-1,0.9-1.8,0.9c-0.8,0-1.4-0.3-1.9-0.9c-0.4-0.5-0.5-1.2-0.5-2
		c0-0.9,0.2-1.5,0.5-2C98.1,23.5,98.7,23.2,99.5,23.2z M89.8,28.2h-1.2c0.1-0.7,0.2-1.4,0.3-2.3c0.1-0.8,0.1-1.5,0.1-2.3v-1.9H74.7
		v2h11.6v1c0,0.7,0,1.3-0.1,1.8c-0.1,0.6-0.1,1.2-0.3,1.7H73.8v2h6.5v2.5h-5.7v2h11.6v4.5H89v-6.5h-5.9v-2.5h6.7V28.2z M57.7,33.3
		h-2.8v3.9c0,0.6,0.2,1.1,0.5,1.4c0.3,0.3,0.7,0.4,1.3,0.4h11.9v-2H57.7V33.3z M65.7,21.3v13h2.8v-5.4h1.9v-2.1h-1.9v-5.5H65.7z
		 M58.6,25.8c0.8,0,1.5,0.2,2,0.7c0.4,0.4,0.7,1,0.7,1.6c0,0.6-0.2,1.1-0.7,1.5c-0.5,0.4-1.2,0.7-2,0.7c-0.8,0-1.5-0.2-1.9-0.7
		c-0.4-0.4-0.6-0.9-0.6-1.6c0-0.6,0.2-1.2,0.6-1.6C57.1,26,57.7,25.8,58.6,25.8z M53.3,22.7v2h2.9c-1.2,0.3-2,0.9-2.5,1.8
		c-0.5,0.8-0.6,1.7-0.3,2.7c0.2,0.9,0.8,1.6,1.6,2.2c1,0.7,2.2,1,3.6,1c1.5,0,2.7-0.3,3.7-0.9c0.9-0.6,1.4-1.3,1.7-2.1
		c0.2-1.1,0.1-2-0.4-2.8c-0.5-0.9-1.4-1.5-2.6-1.8h2.9v-2H60v-1.4h-2.8v1.4H53.3z"/>
</g>
</svg>
