<?xml version="1.0" encoding="UTF-8"?>
<svg xmlns="http://www.w3.org/2000/svg" xmlns:xlink="http://www.w3.org/1999/xlink" version="1.1" viewBox="0 0 860.203 860.203">
  <defs>
    <style>
      .cls-1 {
        fill: none;
      }

      .cls-2 {
        fill: #1c1c1c;
      }

      .cls-3 {
        fill: #fff;
      }

      .cls-4 {
        fill: #f06400;
      }

      .cls-5 {
        clip-path: url(#clippath);
      }
    </style>
    <clipPath id="clippath">
      <circle class="cls-1" cx="430.102" cy="430.101" r="416.879"/>
    </clipPath>
  </defs>
  <!-- Generator: Adobe Illustrator 28.6.0, SVG Export Plug-In . SVG Version: 1.2.0 Build 709)  -->
  <g>
    <g id="_레이어_1" data-name="레이어_1">
      <g>
        <path class="cls-2" d="M430.105,860.203C192.945,860.203,0,667.258,0,430.098S192.945,0,430.105,0s430.098,192.938,430.098,430.098-192.938,430.105-430.098,430.105ZM430.105,13.223C200.237,13.223,13.223,200.23,13.223,430.098s187.014,416.882,416.882,416.882,416.875-187.014,416.875-416.882S659.973,13.223,430.105,13.223Z"/>
        <circle class="cls-4" cx="430.102" cy="430.101" r="416.879"/>
        <g class="cls-5">
          <g>
            <path class="cls-3" d="M430.102,870.429h214.706s-42.398-72.641-42.398-72.641c-33.192-51.812-31.776-150.796-31.776-150.796,85.813,1.619,90.428-32.234,90.428-32.234,9.922,32.128,70.818,27.876,70.818,27.876,72.339,0,73.904-94.541,73.904-94.541,0-85.344-53.81-117.252-53.81-117.252-8.905-222.628-116.576-266.344-116.576-266.344-108.506-59.911-177.377-21.295-198.43-5.677h-13.733c-21.053-15.618-89.925-54.234-198.43,5.677,0,0-107.671,43.716-116.576,266.344,0,0-53.81,31.908-53.81,117.252,0,0,1.565,94.541,73.904,94.541,0,0,60.896,4.252,70.818-27.876,0,0,4.615,33.853,90.428,32.234,0,0,1.416,98.984-31.776,150.796l-42.398,72.641h214.706Z"/>
            <path class="cls-2" d="M758.364,427.238c-9.703-216.95-111.782-265.069-120.119-268.631-28.873-15.889-127.102-62.086-204.323-5.662-.932.27-2.221.541-3.546.64-.093-.003-.182.005-.274,0-.093.005-.182-.003-.274,0-1.325-.099-2.614-.37-3.546-.64-77.221-56.424-175.451-10.226-204.323,5.662-8.337,3.562-110.416,51.681-120.119,268.631-11.944,8.452-53.96,43.689-53.96,120.961.581,34.918,18.129,100.962,79.966,100.955h.026c2.343.14,51.56,3.275,71.221-20.753,2.253,2.713,5.279,5.617,9.352,8.445,15.882,11.043,40.944,16.667,74.547,16.738-.396,22.604-3.785,98.657-30.839,140.91l-42.399,72.638c-1.181,2.017-1.194,4.52-.026,6.549,1.168,2.03,3.326,3.281,5.669,3.281h429.412c2.343,0,4.5-1.251,5.669-3.281,1.168-2.03,1.155-4.532-.026-6.549l-42.399-72.638c-27.053-42.252-30.443-118.306-30.839-140.91,33.603-.07,58.664-5.694,74.547-16.738,4.073-2.828,7.098-5.732,9.352-8.445,19.661,24.028,68.878,20.893,71.221,20.753h.026c61.837.006,79.385-66.037,79.966-100.955,0-77.272-42.016-112.509-53.96-120.961ZM731.879,636.094c-15.978,1.034-57.707-1.028-64.576-23.262,0,0-2.253-4.784-1.615-11.696,0,0-4.497,35.143-94.936,39.318h-6.336l-.322,6.441c-.057,4.124-1.047,101.555,32.811,154.417l36.52,62.578H226.777l36.52-62.578c33.858-52.862,32.869-150.293,32.811-154.417l-.322-6.441h-6.336c-90.438-4.175-94.936-39.318-94.936-39.318.638,6.912-1.615,11.696-1.615,11.696-6.869,22.234-48.598,24.296-64.576,23.262-65.01,0-67.308-84.518-67.372-88.003,0-80.273,48.559-110.396,50.608-111.628l3.058-1.716.14-3.647c8.605-215.029,111.488-260.122,112.503-260.543.243-.096.472-.211.702-.338,26.849-14.823,119.991-59.079,191.378-6.154l10.759,9.329,10.759-9.329c71.387-52.926,164.529-8.669,191.378,6.154.23.128.46.243.702.338,1.015.421,103.898,45.514,112.503,260.543l.14,3.647,3.058,1.716c2.049,1.232,50.608,31.356,50.608,111.628-.064,3.485-2.362,88.003-67.372,88.003Z"/>
          </g>
          <path class="cls-2" d="M175.587,587.659s25.109,13.434-9.35,31.519c0,0-68.292,28.517-90.806-33.771,0,0-18.781-55.353,22.571-122.064.362-.584.755-1.127,1.198-1.651,2.9-3.436,14.368-16.475,18.434-12.778,0,0,3.049,1.645,1.819,7.644,0,0,1.384,95.767,56.134,131.101Z"/>
          <path class="cls-2" d="M339.317,226.795s75.991,22.705,30.582,85.721c0,0-46.336,80.624-151.055,80.624,0,0-48.653,3.707-48.653-69.04,0,0-12.974-124.18,59.31-120.01,0,0,56.066,1.853,109.816,22.705Z"/>
          <circle class="cls-3" cx="304.776" cy="284.472" r="24.013"/>
          <path class="cls-2" d="M520.886,226.795s-75.991,22.705-30.582,85.721c0,0,46.336,80.624,151.055,80.624,0,0,48.653,3.707,48.653-69.04,0,0,12.974-124.18-59.31-120.01,0,0-56.066,1.853-109.816,22.705Z"/>
          <circle class="cls-3" cx="555.427" cy="284.472" r="24.013"/>
          <path class="cls-2" d="M429.552,343.76s24.196-3.002,24.196-18.011c0,0,2.746-10.506-24.196-9.756-26.942-.75-24.196,9.756-24.196,9.756,0,15.009,24.196,18.011,24.196,18.011Z"/>
          <path class="cls-2" d="M429.549,377.23c-49.472,0-50.902-16.489-50.902-18.372,0-1.807,1.462-3.268,3.268-3.268,1.755,0,3.185,1.385,3.262,3.122.421,3.249,8.669,11.439,41.103,11.956v-26.906c0-1.807,1.462-3.268,3.268-3.268s3.268,1.462,3.268,3.268v30.2c0,1.807-1.462,3.268-3.268,3.268ZM385.184,358.858h.064-.064Z"/>
          <path class="cls-2" d="M429.549,377.23c-1.807,0-3.268-1.462-3.268-3.268v-30.2c0-1.807,1.462-3.268,3.268-3.268s3.268,1.462,3.268,3.268v26.906c32.524-.517,40.733-8.752,41.11-11.982,0-1.807,1.462-3.185,3.268-3.185s3.262,1.551,3.262,3.358c0,1.883-1.43,18.372-50.908,18.372Z"/>
          <path class="cls-2" d="M429.555,654.654c41.982,0,41.825-11.179,41.825-11.179,0-3.272-11.955,1.487-11.955,1.487,0,0-8.933,3.133-29.865,3.133-20.933,0-29.671-3.406-29.671-3.406,0,0-12.16-4.486-12.16-1.214,0,0-.156,11.179,41.825,11.179Z"/>
          <path class="cls-2" d="M683.516,587.659s-25.109,13.434,9.35,31.519c0,0,68.292,28.517,90.806-33.771,0,0,18.781-55.353-22.571-122.064-.362-.584-.755-1.127-1.198-1.651-2.9-3.436-14.368-16.475-18.434-12.778,0,0-3.049,1.645-1.819,7.644,0,0-1.384,95.767-56.134,131.101Z"/>
        </g>
      </g>
    </g>
  </g>
</svg>