<?xml version="1.0" encoding="UTF-8"?>
<svg xmlns="http://www.w3.org/2000/svg" version="1.1" viewBox="0 0 150 150">
  <defs>
    <style>
      .cls-1 {
        fill: #f06400;
      }
    </style>
  </defs>
  <!-- Generator: Adobe Illustrator 28.6.0, SVG Export Plug-In . SVG Version: 1.2.0 Build 709)  -->
  <g>
    <g id="_레이어_1" data-name="레이어_1">
      <g>
        <path class="cls-1" d="M150,75c-8.4,0-12.8-3.3-16.7-6.2-3.6-2.7-6.7-5-13.3-5s-9.7,2.3-13.3,5c-3.9,2.9-8.3,6.2-16.7,6.2s-12.8-3.3-16.7-6.2c-3.6-2.7-6.7-5-13.3-5s-9.7,2.3-13.3,5c-3.9,2.9-8.3,6.2-16.7,6.2s-12.8-3.3-16.7-6.2c-3.6-2.7-6.7-5-13.3-5v-5.9c8.4,0,12.8,3.3,16.7,6.2,3.6,2.7,6.7,5,13.3,5s9.7-2.3,13.3-5c3.9-2.9,8.3-6.2,16.7-6.2s12.8,3.3,16.7,6.2c3.6,2.7,6.7,5,13.3,5s9.7-2.3,13.3-5c3.9-2.9,8.3-6.2,16.7-6.2s12.8,3.3,16.7,6.2c3.6,2.7,6.7,5,13.3,5v5.9Z"/>
        <path class="cls-1" d="M150,58.5c-8.4,0-12.8-3.3-16.7-6.2-3.6-2.7-6.7-5-13.3-5s-9.7,2.3-13.3,5c-3.9,2.9-8.3,6.2-16.7,6.2s-12.8-3.3-16.7-6.2c-3.6-2.7-6.7-5-13.3-5s-9.7,2.3-13.3,5c-3.9,2.9-8.3,6.2-16.7,6.2s-12.8-3.3-16.7-6.2c-3.6-2.7-6.7-5-13.3-5v-5.9c8.4,0,12.8,3.3,16.7,6.2,3.6,2.7,6.7,5,13.3,5s9.7-2.3,13.3-5c3.9-2.9,8.3-6.2,16.7-6.2s12.8,3.3,16.7,6.2c3.6,2.7,6.7,5,13.3,5s9.7-2.3,13.3-5c3.9-2.9,8.3-6.2,16.7-6.2s12.8,3.3,16.7,6.2c3.6,2.7,6.7,5,13.3,5v5.9Z"/>
        <path class="cls-1" d="M150,91.8c-8.4,0-12.8-3.3-16.7-6.2-3.6-2.7-6.7-5-13.3-5s-9.7,2.3-13.3,5c-3.9,2.9-8.3,6.2-16.7,6.2s-12.8-3.3-16.7-6.2c-3.6-2.7-6.7-5-13.3-5s-9.7,2.3-13.3,5c-3.9,2.9-8.3,6.2-16.7,6.2s-12.8-3.3-16.7-6.2c-3.6-2.7-6.7-5-13.3-5v-5.9c8.4,0,12.8,3.3,16.7,6.2,3.6,2.7,6.7,5,13.3,5s9.7-2.3,13.3-5c3.9-2.9,8.3-6.2,16.7-6.2s12.8,3.3,16.7,6.2c3.6,2.7,6.7,5,13.3,5s9.7-2.3,13.3-5c3.9-2.9,8.3-6.2,16.7-6.2s12.8,3.3,16.7,6.2c3.6,2.7,6.7,5,13.3,5v5.9Z"/>
        <path class="cls-1" d="M150,108.5c-8.4,0-12.8-3.3-16.7-6.2-3.6-2.7-6.7-5-13.3-5s-9.7,2.3-13.3,5c-3.9,2.9-8.3,6.2-16.7,6.2s-12.8-3.3-16.7-6.2c-3.6-2.7-6.7-5-13.3-5s-9.7,2.3-13.3,5c-3.9,2.9-8.3,6.2-16.7,6.2s-12.8-3.3-16.7-6.2c-3.6-2.7-6.7-5-13.3-5v-5.9c8.4,0,12.8,3.3,16.7,6.2,3.6,2.7,6.7,5,13.3,5s9.7-2.3,13.3-5c3.9-2.9,8.3-6.2,16.7-6.2s12.8,3.3,16.7,6.2c3.6,2.7,6.7,5,13.3,5s9.7-2.3,13.3-5c3.9-2.9,8.3-6.2,16.7-6.2s12.8,3.3,16.7,6.2c3.6,2.7,6.7,5,13.3,5v5.9Z"/>
      </g>
    </g>
  </g>
</svg>