<?xml version="1.0" encoding="UTF-8"?>
<svg xmlns="http://www.w3.org/2000/svg" version="1.1" viewBox="0 0 1283.746 311.532">
  <defs>
    <style>
      .cls-1 {
        fill: #fff;
      }
    </style>
  </defs>
  <!-- Generator: Adobe Illustrator 28.6.0, SVG Export Plug-In . SVG Version: 1.2.0 Build 709)  -->
  <g>
    <g id="_레이어_1" data-name="레이어_1">
      <g>
        <path class="cls-1" d="M438.021,79.731c-49.461,0-87.574,43.098-101.294,112.171-15.511,76.125,7.028,119.63,65.627,119.63,62.317,0,90.559-52.945,102.236-111.389,13.667-68.025-1.446-120.412-66.569-120.412ZM453.251,196.187c-10.042,45.845-25.5,72.926-46.403,72.926-22.204,0-29.402-20.554-19.185-71.155,7.057-35.284,23.034-75.377,47.063-75.377,29.334,0,27.266,33.357,18.525,73.606Z"/>
        <path class="cls-1" d="M248.639,133.579h-94.966l15.075-73.29h100.668l10.289-45.612h-116.678c-21.065,0-39.261,14.729-43.651,35.332l-41.935,196.87c-8.655,35.65-40.553,60.948-77.44,60.948h50.97c38.145,0,71.089-26.687,79.009-64.001l5.816-27.402.157-.051,7.87-37.181h94.961l9.857-45.612Z"/>
        <path class="cls-1" d="M354.175,0h-52.067l-39.828,187.243s-.039-.024-.038-.022l-12.099,55.779c-7.919,37.314-40.047,64.001-78.192,64.001h50.971c38.145,0,71.089-26.687,79.008-64.001l6.216-26.8.041-.013L354.175,0Z"/>
        <path class="cls-1" d="M944.383,279.263l-.917-3.65-.18-1.008s.041.306.114.747l-32.954-131.108c-1.534-6.104-.024-12.573,4.054-17.366l95.457-112.2h-61.958c-31.066,40.128-79.119,100.164-103.541,131.579l28.606-131.579h-51.703l-14.599,68.53h-13.252l.002-.006h-28.242c-15.156,0-28.765,9.373-34.202,23.52-18.836,49.007-30.741,81.361-38.739,104.689-3.31,7.847-10.245,6.376-10.032-2.186l1.238-45.773-.148.715c.403-19.037.769-40.079,1.131-62.626.161-10.06-7.936-18.339-17.997-18.338h-14.354c-9.588,0-16.178,4.481-18.926,11.29-21.302,52.772-36.879,90.434-47.369,117.312-3.392,7.56-11.706,5.891-11.495-2.579l.034-.786c1.162-24.456,2.361-56.791,4.007-97.949.595-14.876-11.301-27.287-26.189-27.287h-15.264c-.019,0-.036.005-.053.005h-32.838s23.531,2.375,23.531,17.627l.024-.034,2.077,177.236c.195,16.624,13.729,29.997,30.354,29.992h1.101c12.138-.004,23.113-7.277,27.904-18.429,25.084-58.385,45.115-101.196,54.591-130.01h.432c-1.755,26.56-1.132,64.634-2.028,116.464-.254,14.716,9.537,28.283,23.941,31.309,14.315,3.007,28.265-4.405,34.039-17.19l85.747-189.862c6.352-12.681,16.402-15.958,20.913-16.805l-47.825,224.524h51.703l16.173-75.777c2.413-11.307,7.81-21.761,15.629-30.277l25.046-27.278,25.444,111.629c2.894,12.696,14.184,21.702,27.205,21.702h31.542l-.005-.02,29.479-.153c-25.946-4.782-34.17-20.633-36.706-28.592Z"/>
        <path class="cls-1" d="M1075.661,79.731c-52.965,0-72.451,29.406-80.585,64.535h48.873c4.145-15.822,10.702-26.907,27.111-26.907,23.592,0,23.544,17.763,19.933,34.939l-.595,2.629c-1.805,7.996-8.576,13.914-16.739,14.666-10.702.986-21.051,2.156-31.151,3.988-38.759,6.906-68.612,21.185-77.324,64.244-7.008,35.095,3.509,73.708,48.558,73.708,23.961,0,37.089-7.615,48.335-22.549l-.044.191c-2.121,9.704,5.424,18.853,15.356,18.853h31.911s0-.01.002-.014h19.673c-14.735-4.703-13.177-30.776-12.786-35.342,1.415-6.567,2.868-13.309,4.215-19.9l20.224-95.354c11.502-53.314-14.206-77.688-64.967-77.688ZM1076.787,219.934c-6.523,33.061-18.491,50.378-40.783,50.378-19.083,0-23.121-14.555-19.549-31.086,3.747-17.292,16.754-24.946,34.206-29.314,8.62-2.169,18.545-3.038,28.863-3.941l-2.737,13.963Z"/>
        <path class="cls-1" d="M1238.52,270.827l-.015.065c-4.346.855-12.146.58-17.681.58-15.958,0-17.084-7.629-14.38-20.661l27.703-126.027h33.085l8.654-41.584h-32.682l12.216-55.493h-51.635l-12.211,55.493h-28.208l-9.056,41.584h28.208l-29.44,131.667c-8.532,40.87,7.634,54.615,43.423,54.615,8.275,0,23.233-.107,33.624-3.47,40.409-6.199,53.622-62.686,53.622-62.686-14.118,23.724-45.226,25.918-45.226,25.918Z"/>
      </g>
    </g>
  </g>
</svg>