<?xml version="1.0" encoding="UTF-8"?>
<svg id="_레이어_1" data-name="레이어_1" xmlns="http://www.w3.org/2000/svg" xmlns:xlink="http://www.w3.org/1999/xlink" version="1.1" viewBox="0 0 1283.746 718.56">
  <!-- Generator: Adobe Illustrator 29.0.0, SVG Export Plug-In . SVG Version: 2.1.0 Build 186)  -->
  <defs>
    <style>
      .st0 {
        fill: none;
      }

      .st1 {
        fill: #1c1c1c;
      }

      .st2 {
        fill: #fff;
      }

      .st3 {
        fill: #f06400;
      }

      .st4 {
        clip-path: url(#clippath);
      }
    </style>
    <clipPath id="clippath">
      <circle class="st0" cx="641.872" cy="206.691" r="200.336"/>
    </clipPath>
  </defs>
  <g>
    <path class="st1" d="M641.874,413.382c-113.97,0-206.693-92.722-206.693-206.693S527.903,0,641.874,0s206.689,92.719,206.689,206.689-92.719,206.693-206.689,206.693ZM641.874,6.354c-110.466,0-200.338,89.869-200.338,200.335s89.872,200.338,200.338,200.338,200.335-89.872,200.335-200.338S752.34,6.354,641.874,6.354Z"/>
    <circle class="st3" cx="641.872" cy="206.691" r="200.336"/>
    <g class="st4">
      <g>
        <g>
          <path class="st2" d="M641.872,418.296h103.18l-20.375-34.909c-15.951-24.899-15.27-72.467-15.27-72.467,41.238.778,43.456-15.49,43.456-15.49,4.768,15.439,34.033,13.396,34.033,13.396,34.764,0,35.516-45.433,35.516-45.433,0-41.013-25.859-56.347-25.859-56.347-4.279-106.987-56.022-127.995-56.022-127.995-52.144-28.791-85.241-10.234-95.358-2.728h-6.6c-10.117-7.506-43.214-26.063-95.358,2.728,0,0-51.743,21.008-56.022,127.995,0,0-25.859,15.334-25.859,56.347,0,0,.752,45.433,35.516,45.433,0,0,29.265,2.043,34.033-13.396,0,0,2.218,16.268,43.456,15.49,0,0,.68,47.568-15.27,72.467l-20.375,34.909h103.18-.002Z"/>
          <path class="st1" d="M799.623,205.315c-4.663-104.258-53.718-127.382-57.725-129.094-13.875-7.635-61.081-29.836-98.19-2.721-.448.13-1.068.26-1.704.308-.044-.002-.087.002-.132,0-.044.002-.087-.002-.132,0-.637-.048-1.256-.178-1.704-.308-37.11-27.115-84.315-4.914-98.19,2.721-4.006,1.712-53.062,24.836-57.725,129.094-5.74,4.062-25.931,20.995-25.931,58.129.279,16.78,8.712,48.518,38.429,48.515h.012c1.126.067,24.778,1.574,34.226-9.973,1.083,1.304,2.537,2.7,4.494,4.059,7.632,5.307,19.676,8.01,35.824,8.043-.19,10.863-1.819,47.411-14.82,67.716l-20.376,34.907c-.568.969-.574,2.172-.012,3.147s1.598,1.577,2.724,1.577h206.36c1.126,0,2.163-.601,2.724-1.577.561-.976.555-2.178-.012-3.147l-20.376-34.907c-13.001-20.305-14.63-56.853-14.82-67.716,16.148-.034,28.192-2.736,35.824-8.043,1.957-1.359,3.411-2.755,4.494-4.059,9.448,11.547,33.1,10.041,34.226,9.973h.012c29.717.003,38.15-31.735,38.429-48.515,0-37.134-20.191-54.068-25.931-58.129h.002ZM786.895,305.683c-7.678.497-27.732-.494-31.033-11.179,0,0-1.083-2.299-.776-5.621,0,0-2.161,16.888-45.623,18.895h-3.045l-.155,3.095c-.028,1.982-.503,48.804,15.768,74.207l17.55,30.072h-195.42l17.55-30.072c16.271-25.403,15.795-72.225,15.768-74.207l-.155-3.095h-3.045c-43.461-2.006-45.623-18.895-45.623-18.895.307,3.322-.776,5.621-.776,5.621-3.301,10.685-23.354,11.676-31.033,11.179-31.241,0-32.346-40.616-32.376-42.291,0-38.576,23.336-53.052,24.321-53.645l1.469-.824.067-1.752c4.135-103.335,53.577-125.005,54.065-125.207.117-.046.227-.101.337-.163,12.903-7.123,57.663-28.391,91.969-2.957l5.171,4.483,5.171-4.483c34.306-25.434,79.066-4.166,91.969,2.957.11.061.221.117.337.163.488.202,49.93,21.873,54.065,125.207l.067,1.752,1.469.824c.985.592,24.321,15.068,24.321,53.645-.031,1.675-1.135,42.291-32.376,42.291h.002Z"/>
        </g>
        <path class="st1" d="M519.562,282.407s12.067,6.456-4.493,15.147c0,0-32.819,13.704-43.638-16.229,0,0-9.026-26.601,10.847-58.66.174-.28.363-.541.575-.794,1.394-1.651,6.905-7.917,8.859-6.141,0,0,1.465.791.874,3.673,0,0,.665,46.022,26.976,63.002v.002Z"/>
        <path class="st1" d="M598.244,108.989s36.518,10.911,14.696,41.195c0,0-22.267,38.745-72.591,38.745,0,0-23.381,1.781-23.381-33.178,0,0-6.235-59.676,28.502-57.672,0,0,26.943.891,52.774,10.911h0Z"/>
        <circle class="st2" cx="581.645" cy="136.707" r="11.54"/>
        <path class="st1" d="M685.5,108.989s-36.518,10.911-14.696,41.195c0,0,22.267,38.745,72.591,38.745,0,0,23.381,1.781,23.381-33.178,0,0,6.235-59.676-28.502-57.672,0,0-26.943.891-52.774,10.911h0Z"/>
        <circle class="st2" cx="702.099" cy="136.707" r="11.54"/>
        <path class="st1" d="M641.608,165.198s11.628-1.443,11.628-8.655c0,0,1.319-5.049-11.628-4.688-12.947-.361-11.628,4.688-11.628,4.688,0,7.213,11.628,8.655,11.628,8.655Z"/>
        <path class="st1" d="M641.607,181.283c-23.775,0-24.462-7.924-24.462-8.829,0-.868.702-1.571,1.571-1.571.844,0,1.531.666,1.568,1.5.202,1.561,4.166,5.497,19.753,5.746v-12.93c0-.868.702-1.571,1.571-1.571s1.571.702,1.571,1.571v14.513c0,.868-.702,1.571-1.571,1.571h0ZM620.286,172.454h.031-.031Z"/>
        <path class="st1" d="M641.607,181.283c-.868,0-1.571-.702-1.571-1.571v-14.513c0-.868.702-1.571,1.571-1.571s1.571.702,1.571,1.571v12.93c15.63-.248,19.575-4.206,19.756-5.758,0-.868.702-1.531,1.571-1.531s1.568.745,1.568,1.614c0,.905-.687,8.829-24.465,8.829h0Z"/>
        <path class="st1" d="M641.61,314.602c20.175,0,20.1-5.372,20.1-5.372,0-1.572-5.745.714-5.745.714,0,0-4.293,1.506-14.352,1.506s-14.259-1.637-14.259-1.637c0,0-5.844-2.156-5.844-.583,0,0-.075,5.372,20.1,5.372Z"/>
        <path class="st1" d="M763.654,282.407s-12.067,6.456,4.493,15.147c0,0,32.819,13.704,43.638-16.229,0,0,9.026-26.601-10.847-58.66-.174-.28-.363-.541-.575-.794-1.394-1.651-6.905-7.917-8.859-6.141,0,0-1.465.791-.874,3.673,0,0-.665,46.022-26.976,63.002v.002Z"/>
      </g>
    </g>
  </g>
  <g>
    <path class="st1" d="M438.02,486.758c-49.461,0-87.574,43.098-101.294,112.171-15.511,76.125,7.028,119.63,65.627,119.63,62.317,0,90.559-52.945,102.236-111.389,13.667-68.025-1.446-120.412-66.569-120.412h0ZM453.25,603.214c-10.042,45.845-25.5,72.926-46.403,72.926-22.204,0-29.402-20.554-19.185-71.155,7.057-35.284,23.034-75.377,47.063-75.377,29.334,0,27.266,33.357,18.525,73.606Z"/>
    <path class="st1" d="M248.638,540.606h-94.966l15.075-73.29h100.668l10.289-45.612h-116.678c-21.065,0-39.261,14.729-43.651,35.332l-41.935,196.87c-8.655,35.65-40.553,60.948-77.44,60.948h50.97c38.145,0,71.089-26.687,79.009-64.001l5.816-27.402.157-.051,7.87-37.181h94.961l9.857-45.612h-.002Z"/>
    <path class="st1" d="M354.174,407.027h-52.067l-39.828,187.243s-.039-.024-.038-.022l-12.099,55.779c-7.919,37.314-40.047,64.001-78.192,64.001h50.971c38.145,0,71.089-26.687,79.008-64.001l6.216-26.8.041-.013,45.988-216.186h0Z"/>
    <path class="st1" d="M944.382,686.29l-.917-3.65-.18-1.008s.041.306.114.747l-32.954-131.108c-1.534-6.104-.024-12.573,4.054-17.366l95.457-112.2h-61.958c-31.066,40.128-79.119,100.164-103.541,131.579l28.606-131.579h-51.703l-14.599,68.53h-13.252l.002-.006h-28.242c-15.156,0-28.765,9.373-34.202,23.52-18.836,49.007-30.741,81.361-38.739,104.689-3.31,7.847-10.245,6.376-10.032-2.186l1.238-45.773-.148.715c.403-19.037.769-40.079,1.131-62.626.161-10.06-7.936-18.339-17.997-18.338h-14.354c-9.588,0-16.178,4.481-18.926,11.29-21.302,52.772-36.879,90.434-47.369,117.312-3.392,7.56-11.706,5.891-11.495-2.579l.034-.786c1.162-24.456,2.361-56.791,4.007-97.949.595-14.876-11.301-27.287-26.189-27.287h-15.264c-.019,0-.036.005-.053.005h-32.838s23.531,2.375,23.531,17.627l.024-.034,2.077,177.236c.195,16.624,13.729,29.997,30.354,29.992h1.101c12.138-.004,23.113-7.277,27.904-18.429,25.084-58.385,45.115-101.196,54.591-130.01h.432c-1.755,26.56-1.132,64.634-2.028,116.464-.254,14.716,9.537,28.283,23.941,31.309,14.315,3.007,28.265-4.405,34.039-17.19l85.747-189.862c6.352-12.681,16.402-15.958,20.913-16.805l-47.825,224.524h51.703l16.173-75.777c2.413-11.307,7.81-21.761,15.629-30.277l25.046-27.278,25.444,111.629c2.894,12.696,14.184,21.702,27.205,21.702h31.542l-.005-.02,29.479-.153c-25.946-4.782-34.17-20.633-36.706-28.592l-.002-.002Z"/>
    <path class="st1" d="M1075.66,486.758c-52.965,0-72.451,29.406-80.585,64.535h48.873c4.145-15.822,10.702-26.907,27.111-26.907,23.592,0,23.544,17.763,19.933,34.939l-.595,2.629c-1.805,7.996-8.576,13.914-16.739,14.666-10.702.986-21.051,2.156-31.151,3.988-38.759,6.906-68.612,21.185-77.324,64.244-7.008,35.095,3.509,73.708,48.558,73.708,23.961,0,37.089-7.615,48.335-22.549l-.044.191c-2.121,9.704,5.424,18.853,15.356,18.853h31.911s0-.01.002-.014h19.673c-14.735-4.703-13.177-30.776-12.786-35.342,1.415-6.567,2.868-13.309,4.215-19.9l20.224-95.354c11.502-53.314-14.206-77.688-64.967-77.688h0ZM1076.786,626.962c-6.523,33.061-18.491,50.378-40.783,50.378-19.083,0-23.121-14.555-19.549-31.086,3.747-17.292,16.754-24.946,34.206-29.314,8.62-2.169,18.545-3.038,28.863-3.941l-2.737,13.963Z"/>
    <path class="st1" d="M1238.519,677.855l-.015.065c-4.346.855-12.146.58-17.681.58-15.958,0-17.084-7.629-14.38-20.661l27.703-126.027h33.085l8.654-41.584h-32.682l12.216-55.493h-51.635l-12.211,55.493h-28.208l-9.056,41.584h28.208l-29.44,131.667c-8.532,40.87,7.634,54.615,43.423,54.615,8.275,0,23.233-.107,33.624-3.47,40.409-6.199,53.622-62.686,53.622-62.686-14.118,23.724-45.226,25.918-45.226,25.918h0Z"/>
  </g>
</svg>