<?xml version="1.0" encoding="UTF-8"?>
<svg id="_레이어_1" data-name="레이어_1" xmlns="http://www.w3.org/2000/svg" xmlns:xlink="http://www.w3.org/1999/xlink" version="1.1" viewBox="0 0 850 500">
  <!-- Generator: Adobe Illustrator 29.0.0, SVG Export Plug-In . SVG Version: 2.1.0 Build 186)  -->
  <defs>
    <style>
      .st0, .st1, .st2, .st3, .st4, .st5, .st6 {
        fill: none;
      }

      .st7 {
        fill: #d33b35;
      }

      .st8 {
        fill: #2b2b2b;
      }

      .st9, .st10, .st11, .st12, .st13, .st14, .st4, .st5, .st6 {
        isolation: isolate;
        opacity: .3;
      }

      .st10 {
        stroke: url(#_무제_그라디언트_7);
      }

      .st10, .st1, .st2, .st15, .st11, .st12, .st13, .st14, .st4, .st5, .st6 {
        stroke-miterlimit: 10;
      }

      .st10, .st16, .st11, .st12, .st13, .st14 {
        fill: #fff;
      }

      .st17 {
        font-family: ArialMT, Arial;
        font-size: 6.555px;
        letter-spacing: -.02em;
      }

      .st18 {
        fill: #e5e5e5;
      }

      .st1 {
        stroke: url(#_무제_그라디언트_75);
      }

      .st1, .st2 {
        stroke-width: 2px;
      }

      .st1, .st2, .st3 {
        stroke-linecap: round;
      }

      .st2 {
        stroke: url(#_무제_그라디언트_74);
      }

      .st19 {
        fill: url(#_무제_그라디언트_712);
      }

      .st20 {
        fill: url(#_무제_그라디언트_711);
      }

      .st21 {
        fill: url(#_무제_그라디언트_710);
      }

      .st22 {
        fill: url(#_무제_그라디언트_713);
      }

      .st23 {
        fill: url(#_무제_그라디언트_714);
      }

      .st24, .st15 {
        fill: #f06400;
      }

      .st3 {
        stroke-linejoin: round;
        stroke-width: 5px;
      }

      .st3, .st15 {
        stroke: #fff;
      }

      .st25 {
        fill: #1c1c1c;
        filter: url(#drop-shadow-2);
      }

      .st15 {
        stroke-width: 3px;
      }

      .st26 {
        fill: url(#_무제_그라디언트_79);
      }

      .st27 {
        fill: url(#_무제_그라디언트_78);
      }

      .st28 {
        fill: url(#_무제_그라디언트_77);
      }

      .st11 {
        stroke: url(#_무제_그라디언트_73);
      }

      .st12 {
        stroke: url(#_무제_그라디언트_72);
      }

      .st13 {
        stroke: url(#_무제_그라디언트_71);
      }

      .st14 {
        stroke: url(#_무제_그라디언트_76);
      }

      .st29 {
        fill: #eab73f;
      }

      .st30 {
        fill: #71bb67;
      }

      .st31 {
        fill: #fdeee3;
      }

      .st4 {
        stroke: url(#_무제_그라디언트_715);
      }

      .st5 {
        stroke: url(#_무제_그라디언트_717);
      }

      .st6 {
        stroke: url(#_무제_그라디언트_716);
      }

      .st32 {
        clip-path: url(#clippath);
      }
    </style>
    <clipPath id="clippath">
      <circle class="st0" cx="98.634" cy="67.298" r="5.732"/>
    </clipPath>
    <linearGradient id="_무제_그라디언트_7" data-name="무제 그라디언트 7" x1="60.23" y1="130.212" x2="702.921" y2="130.212" gradientUnits="userSpaceOnUse">
      <stop offset=".3" stop-color="#f06400"/>
      <stop offset=".9" stop-color="#f06400"/>
      <stop offset="1" stop-color="#f06400"/>
    </linearGradient>
    <linearGradient id="_무제_그라디언트_71" data-name="무제 그라디언트 7" x1="276.049" y1="231.664" x2="662.68" y2="231.664" xlink:href="#_무제_그라디언트_7"/>
    <linearGradient id="_무제_그라디언트_72" data-name="무제 그라디언트 7" x1="276.049" y1="361.026" x2="490.317" y2="361.026" xlink:href="#_무제_그라디언트_7"/>
    <linearGradient id="_무제_그라디언트_73" data-name="무제 그라디언트 7" x1="499.317" y1="361.026" x2="713.584" y2="361.026" xlink:href="#_무제_그라디언트_7"/>
    <linearGradient id="_무제_그라디언트_74" data-name="무제 그라디언트 7" x1="384.478" y1="140.974" x2="386.478" y2="140.974" gradientTransform="translate(0 502) scale(1 -1)" xlink:href="#_무제_그라디언트_7"/>
    <linearGradient id="_무제_그라디언트_75" data-name="무제 그라디언트 7" x1="364.472" y1="-140.022" x2="366.472" y2="-140.022" gradientTransform="translate(525.5 -4.5) rotate(90) scale(1 -1)" xlink:href="#_무제_그라디언트_7"/>
    <linearGradient id="_무제_그라디언트_76" data-name="무제 그라디언트 7" y1="296.398" x2="267.049" y2="296.398" xlink:href="#_무제_그라디언트_7"/>
    <linearGradient id="_무제_그라디언트_77" data-name="무제 그라디언트 7" x1="71.401" y1="197.943" x2="154.1" y2="197.943" xlink:href="#_무제_그라디언트_7"/>
    <linearGradient id="_무제_그라디언트_78" data-name="무제 그라디언트 7" x1="71.401" y1="213.134" x2="245.602" y2="213.134" xlink:href="#_무제_그라디언트_7"/>
    <linearGradient id="_무제_그라디언트_79" data-name="무제 그라디언트 7" x1="71.401" y1="227.004" x2="128.757" y2="227.004" xlink:href="#_무제_그라디언트_7"/>
    <linearGradient id="_무제_그라디언트_710" data-name="무제 그라디언트 7" x1="71.401" y1="239.846" x2="210.388" y2="239.846" xlink:href="#_무제_그라디언트_7"/>
    <linearGradient id="_무제_그라디언트_711" data-name="무제 그라디언트 7" x1="71.401" y1="257.943" x2="154.1" y2="257.943" xlink:href="#_무제_그라디언트_7"/>
    <linearGradient id="_무제_그라디언트_712" data-name="무제 그라디언트 7" x1="71.401" y1="273.134" x2="245.602" y2="273.134" xlink:href="#_무제_그라디언트_7"/>
    <linearGradient id="_무제_그라디언트_713" data-name="무제 그라디언트 7" x1="71.401" y1="287.004" x2="128.757" y2="287.004" xlink:href="#_무제_그라디언트_7"/>
    <linearGradient id="_무제_그라디언트_714" data-name="무제 그라디언트 7" x1="71.401" y1="299.846" x2="210.388" y2="299.846" xlink:href="#_무제_그라디언트_7"/>
    <filter id="drop-shadow-2" x="580" y="77" width="243" height="245" filterUnits="userSpaceOnUse">
      <feOffset dx="0" dy="0"/>
      <feGaussianBlur result="blur" stdDeviation="5"/>
      <feFlood flood-color="#f06400" flood-opacity=".3"/>
      <feComposite in2="blur" operator="in"/>
      <feComposite in="SourceGraphic"/>
    </filter>
    <linearGradient id="_무제_그라디언트_715" data-name="무제 그라디언트 7" x1="609" y1="150.686" x2="696.519" y2="150.686" xlink:href="#_무제_그라디언트_7"/>
    <linearGradient id="_무제_그라디언트_716" data-name="무제 그라디언트 7" x1="706.471" y1="248.156" x2="793.989" y2="248.156" xlink:href="#_무제_그라디언트_7"/>
    <linearGradient id="_무제_그라디언트_717" data-name="무제 그라디언트 7" x1="706.471" y1="150.686" x2="793.989" y2="150.686" xlink:href="#_무제_그라디언트_7"/>
  </defs>
  <rect class="st31" width="850" height="500"/>
  <g>
    <rect class="st18" x="37" y="53.489" width="699.814" height="393.021" rx="12" ry="12"/>
    <path class="st16" d="M725.942,446.511H47.872c-6.005,0-10.872-4.868-10.872-10.872V77.259h46.762c2.976,0,5.388-2.412,5.388-5.388v-8.455c0-2.976,2.412-5.388,5.388-5.388h96.645c2.976,0,5.388,2.412,5.388,5.388v8.455c0,2.976,2.412,5.388,5.388,5.388h534.854v358.379c0,6.005-4.868,10.872-10.872,10.872Z"/>
    <circle class="st7" cx="54.929" cy="67.298" r="3.102"/>
    <circle class="st29" cx="66.957" cy="67.298" r="3.102"/>
    <circle class="st30" cx="78.985" cy="67.298" r="3.102"/>
    <text class="st17" transform="translate(107.193 69.13)"><tspan x="0" y="0">FlowKat</tspan></text>
    <g>
      <g>
        <circle class="st24" cx="98.634" cy="67.298" r="5.732"/>
        <path class="st24" d="M98.634,73.166c-3.235,0-5.868-2.632-5.868-5.868s2.632-5.868,5.868-5.868,5.868,2.632,5.868,5.868-2.632,5.868-5.868,5.868ZM98.634,61.703c-3.085,0-5.596,2.51-5.596,5.595s2.51,5.596,5.596,5.596,5.595-2.51,5.595-5.596-2.51-5.595-5.595-5.595Z"/>
      </g>
      <circle class="st8" cx="98.634" cy="67.298" r="5.732"/>
      <g class="st32">
        <g>
          <g>
            <path class="st16" d="M98.634,73.409h-2.98l.588-1.008c.461-.719.441-2.093.441-2.093-1.191.022-1.255-.447-1.255-.447-.138.446-.983.387-.983.387-1.004,0-1.026-1.312-1.026-1.312,0-1.184.747-1.627.747-1.627.124-3.09,1.618-3.696,1.618-3.696,1.506-.831,2.462-.296,2.754-.079,0,0,.109.042.191,0,.292-.217,1.248-.753,2.754.079,0,0,1.494.607,1.618,3.696,0,0,.747.443.747,1.627,0,0-.022,1.312-1.026,1.312,0,0-.845.059-.983-.387,0,0-.064.47-1.255.447,0,0-.02,1.374.441,2.093l.588,1.008h-2.98"/>
            <path class="st24" d="M101.613,73.5h-5.959c-.033,0-.062-.017-.079-.046s-.016-.063,0-.091l.588-1.008c.375-.586.422-1.642.428-1.956-.466,0-.814-.079-1.035-.232-.057-.039-.099-.08-.13-.117-.273.333-.956.29-.988.288h0c-.858,0-1.102-.916-1.11-1.401,0-1.072.583-1.561.749-1.679.135-3.011,1.551-3.679,1.667-3.728.401-.22,1.764-.862,2.836-.079.026.008.072.015.102.003,1.072-.788,2.439-.145,2.84.075.116.049,1.532.717,1.667,3.728.166.117.749.606.749,1.677-.008.486-.252,1.403-1.116,1.403-.027.002-.709.045-.982-.288-.031.038-.073.078-.13.117-.22.153-.568.231-1.035.232.005.314.052,1.369.426,1.952l.59,1.011c.016.028.017.063,0,.091s-.046.046-.079.046ZM95.812,73.318h5.643l-.509-.872c-.468-.73-.454-2.083-.453-2.14,0-.024.01-.047.028-.064s.04-.024.065-.026c1.078.02,1.163-.367,1.164-.371.008-.041.043-.072.084-.075.042-.001.08.023.092.062.095.308.675.338.89.323.908,0,.94-1.173.941-1.223,0-1.112-.674-1.53-.703-1.548-.026-.016-.043-.044-.044-.074-.119-2.984-1.547-3.61-1.562-3.616-.003-.001-.006-.003-.009-.005-.373-.206-1.666-.82-2.656-.085-.004.003-.008.006-.012.008-.114.059-.25.01-.265.004-.008-.003-.015-.007-.022-.012-.991-.734-2.283-.12-2.656.085-.003.002-.006.003-.01.005-.014.006-1.442.632-1.561,3.616-.001.031-.018.059-.044.074-.028.017-.702.435-.702,1.549,0,.048.033,1.221.935,1.221.222.014.801-.014.896-.323.012-.041.051-.066.094-.064.042.004.077.036.082.078,0,.001.084.389,1.163.369.022-.002.047.009.065.026s.027.04.028.064c0,.057.015,1.409-.455,2.143l-.507.868Z"/>
          </g>
          <path d="M94.347,68.01s.114,1.267.755,1.475c0,0,.348.186-.13.437,0,0-.948.396-1.26-.469,0,0-.26-.739.479-1.552,0,0,.187-.149.156.108Z"/>
          <path d="M102.918,68.01s-.114,1.267-.755,1.475c0,0-.348.186.13.437,0,0,.948.396,1.26-.469,0,0,.26-.739-.479-1.552,0,0-.187-.149-.156.108Z"/>
          <path d="M97.374,64.477s1.055.315.424,1.19c0,0-.643,1.119-2.096,1.119,0,0-.675.051-.675-.958,0,0-.18-1.723.823-1.665,0,0,.778.026,1.524.315Z"/>
          <circle class="st16" cx="96.894" cy="65.277" r=".333"/>
          <path d="M99.894,64.477s-1.055.315-.424,1.19c0,0,.643,1.119,2.096,1.119,0,0,.675.051.675-.958,0,0,.18-1.723-.823-1.665,0,0-.778.026-1.524.315Z"/>
          <circle class="st16" cx="100.373" cy="65.277" r=".333"/>
          <path d="M98.626,66.1s.336-.042.336-.25c0,0,.038-.146-.336-.135-.374-.01-.336.135-.336.135,0,.208.336.25.336.25Z"/>
          <path d="M98.626,66.565c-.687,0-.706-.229-.706-.255,0-.025.02-.045.045-.045.024,0,.044.019.045.043.006.045.12.159.57.166v-.373c0-.025.02-.045.045-.045s.045.02.045.045v.419c0,.025-.02.045-.045.045ZM98.01,66.31h0,0Z"/>
          <path d="M98.626,66.565c-.025,0-.045-.02-.045-.045v-.419c0-.025.02-.045.045-.045s.045.02.045.045v.373c.451-.007.565-.121.571-.166,0-.025.02-.044.045-.044s.045.022.045.047c0,.026-.02.255-.707.255Z"/>
          <path d="M98.626,70.578c.583,0,.58-.444.58-.444,0-.13-.173,0-.173,0,0,0-.117.124-.407.124s-.407-.124-.407-.124c0,0-.173-.13-.173,0,0,0-.002.444.58.444Z"/>
        </g>
      </g>
    </g>
    <g>
      <rect class="st10" x="60.73" y="97.965" width="641.692" height="64.494" rx="7.82" ry="7.82"/>
      <g>
        <rect class="st13" x="276.549" y="172.459" width="385.631" height="118.411" rx="7.82" ry="7.82"/>
        <rect class="st12" x="276.549" y="301.821" width="213.267" height="118.411" rx="7.82" ry="7.82"/>
        <rect class="st11" x="499.817" y="301.821" width="213.267" height="118.411" rx="7.82" ry="7.82"/>
        <g>
          <line class="st2" x1="385.478" y1="349.472" x2="385.478" y2="372.58"/>
          <line class="st1" x1="397.086" y1="360.972" x2="373.869" y2="360.972"/>
        </g>
        <g>
          <rect class="st14" x="60.73" y="172.459" width="205.82" height="247.878" rx="7.82" ry="7.82"/>
          <g class="st9">
            <rect class="st28" x="71.401" y="192.953" width="82.699" height="9.981"/>
            <rect class="st27" x="71.401" y="208.143" width="174.2" height="9.981"/>
            <rect class="st26" x="71.401" y="222.014" width="57.355" height="9.981"/>
            <rect class="st21" x="71.401" y="234.856" width="138.987" height="9.981"/>
          </g>
          <g class="st9">
            <rect class="st20" x="71.401" y="252.953" width="82.699" height="9.981"/>
            <rect class="st19" x="71.401" y="268.143" width="174.2" height="9.981"/>
            <rect class="st22" x="71.401" y="282.014" width="57.355" height="9.981"/>
            <rect class="st23" x="71.401" y="294.856" width="138.987" height="9.981"/>
          </g>
        </g>
      </g>
    </g>
    <g>
      <rect class="st25" x="595.263" y="92.094" width="212.463" height="214.653" rx="12" ry="12"/>
      <g>
        <g>
          <rect class="st24" x="577.138" y="203.107" width="119.921" height="119.921" rx="18.07" ry="18.07"/>
          <g>
            <polyline class="st3" points="579.109 298.606 623.135 264.656 651.5 279.878 669.789 234.319 695.087 255.456"/>
            <circle class="st15" cx="623.463" cy="265.422" r="7.995"/>
            <circle class="st15" cx="650.733" cy="276.702" r="7.995"/>
            <circle class="st15" cx="669.899" cy="235.086" r="7.995"/>
          </g>
        </g>
        <g>
          <g>
            <path d="M675.265,314.924h-.438c-1.095-.548-2.19-1.205-3.066-1.971-.438-.329-.438-.876-.11-1.205.329-.438.876-.438,1.205-.11.876.657,1.862,1.314,2.847,1.862.438.219.657.767.329,1.205-.11.329-.438.438-.767.438v-.219Z"/>
            <path d="M667.708,307.915c-.329,0-.548-.11-.767-.438-1.314-2.081-2.19-4.271-2.628-6.571,0-.438.219-.986.657-1.095.438,0,.986.219,1.095.657.438,2.081,1.314,4.162,2.409,6.023.219.438.11.986-.329,1.205-.11,0-.329.11-.438.11v.109ZM664.97,294.882h-.11c-.438,0-.876-.548-.767-.986.329-2.409,1.095-4.6,2.19-6.79.219-.438.767-.548,1.205-.329s.548.767.329,1.205c-.986,1.971-1.643,4.052-1.971,6.133,0,.438-.438.767-.876.767h0ZM700.782,286.997c-.329,0-.548-.11-.767-.438-1.205-1.862-2.628-3.395-4.381-4.709-.438-.329-.438-.876-.11-1.205.329-.438.876-.438,1.205-.11,1.862,1.424,3.505,3.176,4.819,5.257.219.438.11.986-.219,1.205-.11,0-.329.11-.438.11l-.109-.11ZM671.213,283.054c-.219,0-.438,0-.657-.329-.329-.329-.329-.876,0-1.205,1.752-1.643,3.833-2.847,6.023-3.833.438-.219.986,0,1.205.438s0,.986-.438,1.205c-1.971.876-3.833,1.971-5.476,3.505-.219.11-.438.219-.548.219h-.11ZM690.269,278.893h-.219c-2.081-.657-4.162-.876-6.352-.876-.438,0-.986-.329-.986-.876,0-.438.329-.876.767-.876h.767c2.081,0,4.162.329,6.133.986.438.11.767.657.548,1.095-.11.329-.438.657-.876.657l.219-.11Z"/>
            <path d="M703.849,296.854c-.438,0-.876-.329-.876-.876,0-1.095-.219-2.3-.438-3.395,0-.438.219-.986.657-1.095.438,0,.986.219,1.095.657.219,1.205.438,2.409.438,3.724,0,.438-.329.876-.876.876h0v.11Z"/>
          </g>
          <g>
            <polygon points="684.136 298.058 690.707 343.179 701.001 332.775 709.982 347.122 716.772 342.851 708.339 328.942 722.905 325.876 684.355 296.306 684.136 298.058"/>
            <path class="st16" d="M710.748,348.436c-1.533,0-3.066-.767-3.943-2.19l-5.804-9.747-7.885,8.542c-.767.767-1.752,1.095-2.847.767-.986-.329-1.752-1.205-1.862-2.19l-5.914-45.34c-.11-1.095.329-2.081,1.314-2.628.986-.548,2.081-.438,2.957.11l37.345,27.598c.876.657,1.205,1.752.986,2.738s-1.095,1.862-2.081,2.081l-11.499,2.409,5.695,9.747c.657.986.767,2.3.438,3.395-.329,1.205-1.095,2.19-2.19,2.738l-2.738,1.533c-.657.438-1.533.548-2.3.548l.329-.11ZM701.658,330.475l8.214,13.909c.219.438.876.657,1.424.329l2.628-1.533c.219-.109.438-.329.438-.548v-.657l-8.323-14.018,14.456-2.957-34.169-25.298,5.366,41.507,9.857-10.733h.11ZM722.029,326.204h0ZM686.107,297.73h0Z"/>
          </g>
        </g>
      </g>
      <g>
        <g>
          <g>
            <rect class="st24" x="622.192" y="125.497" width="12.89" height="50.378" rx="5.885" ry="5.885"/>
            <rect class="st24" x="638.273" y="125.497" width="12.89" height="50.378" rx="5.885" ry="5.885"/>
            <rect class="st24" x="654.355" y="125.497" width="12.89" height="50.378" rx="5.885" ry="5.885"/>
            <rect class="st24" x="670.437" y="125.497" width="12.89" height="50.378" rx="5.885" ry="5.885"/>
          </g>
          <rect class="st4" x="609.5" y="107.426" width="86.518" height="86.518" rx="7.82" ry="7.82"/>
          <rect class="st6" x="706.971" y="204.897" width="86.518" height="86.518" rx="7.82" ry="7.82"/>
          <rect class="st5" x="706.971" y="107.426" width="86.518" height="86.518" rx="7.82" ry="7.82"/>
        </g>
        <g>
          <rect class="st24" x="715.533" y="152.305" width="13.349" height="30.427"/>
          <rect class="st24" x="735.851" y="118.639" width="13.349" height="64.093"/>
          <rect class="st24" x="754.401" y="161.63" width="13.349" height="21.102"/>
          <rect class="st24" x="771.578" y="131.595" width="13.349" height="51.137"/>
        </g>
      </g>
    </g>
  </g>
</svg>