<?xml version="1.0" encoding="UTF-8"?>
<svg id="_레이어_1" data-name="레이어_1" xmlns="http://www.w3.org/2000/svg" xmlns:xlink="http://www.w3.org/1999/xlink" version="1.1" viewBox="0 0 850 500">
  <!-- Generator: Adobe Illustrator 29.0.0, SVG Export Plug-In . SVG Version: 2.1.0 Build 186)  -->
  <defs>
    <style>
      .st0, .st1, .st2, .st3, .st4, .st5, .st6, .st7, .st8, .st9, .st10, .st11, .st12 {
        fill: none;
      }

      .st13 {
        fill: #d33b35;
      }

      .st14 {
        fill: #2b2b2b;
      }

      .st1 {
        stroke: url(#_무제_그라디언트_711);
      }

      .st1, .st2, .st3, .st4 {
        stroke-width: 8px;
      }

      .st1, .st2, .st3, .st4, .st5, .st6, .st7, .st8, .st9, .st15, .st16, .st17, .st10, .st11, .st12 {
        stroke-miterlimit: 10;
      }

      .st2 {
        stroke: url(#_무제_그라디언트_712);
      }

      .st3 {
        stroke: url(#_무제_그라디언트_710);
      }

      .st4 {
        stroke: url(#_무제_그라디언트_713);
      }

      .st18 {
        font-family: ArialMT, Arial;
        font-size: 6.555px;
        letter-spacing: -.02em;
      }

      .st19 {
        font-size: 9.834px;
      }

      .st19, .st20, .st21 {
        isolation: isolate;
      }

      .st19, .st22, .st21 {
        fill: #fff;
      }

      .st19, .st21 {
        font-family: Pretendard-Bold-KSCpc-EUC-H, Pretendard;
        font-weight: 700;
      }

      .st23 {
        stroke-linecap: round;
        stroke-linejoin: round;
      }

      .st23, .st5, .st6, .st7, .st8, .st9, .st15, .st16, .st17, .st12 {
        stroke-width: 2px;
      }

      .st23, .st10, .st11 {
        stroke: #f06400;
      }

      .st24 {
        fill: #e5e5e5;
      }

      .st25 {
        fill: url(#_무제_그라디언트_7);
      }

      .st26 {
        fill: url(#_무제_그라디언트_714);
      }

      .st27 {
        fill: #f06400;
      }

      .st28 {
        fill: url(#_무제_그라디언트_73);
      }

      .st29 {
        fill: #eab73f;
      }

      .st30 {
        fill: #71bb67;
      }

      .st31 {
        fill: #fdeee3;
      }

      .st5 {
        stroke: url(#_무제_그라디언트_76);
      }

      .st6 {
        stroke: url(#_무제_그라디언트_74);
      }

      .st7 {
        stroke: url(#_무제_그라디언트_75);
      }

      .st8 {
        stroke: url(#_무제_그라디언트_72);
      }

      .st9 {
        stroke: url(#_무제_그라디언트_71);
      }

      .st15 {
        stroke: url(#_무제_그라디언트_78);
      }

      .st16 {
        stroke: url(#_무제_그라디언트_77);
      }

      .st17 {
        stroke: url(#_무제_그라디언트_79);
      }

      .st10 {
        stroke-width: 24px;
      }

      .st32 {
        clip-path: url(#clippath);
      }

      .st21 {
        font-size: 22.595px;
      }

      .st11 {
        stroke-width: 9px;
      }

      .st12 {
        stroke: #fff;
      }
    </style>
    <clipPath id="clippath">
      <circle class="st0" cx="98.634" cy="67.298" r="5.732"/>
    </clipPath>
    <linearGradient id="_무제_그라디언트_7" data-name="무제 그라디언트 7" x1="686.729" y1="194.024" x2="773.012" y2="194.024" gradientTransform="translate(0 502) scale(1 -1)" gradientUnits="userSpaceOnUse">
      <stop offset=".3" stop-color="#f06400"/>
      <stop offset=".9" stop-color="#f06400"/>
      <stop offset="1" stop-color="#f06400"/>
    </linearGradient>
    <linearGradient id="_무제_그라디언트_71" data-name="무제 그라디언트 7" x1="-1895.575" y1="1841.539" x2="-1881.058" y2="1841.539" gradientTransform="translate(-1080 2196) rotate(90) scale(1 -1)" xlink:href="#_무제_그라디언트_7"/>
    <linearGradient id="_무제_그라디언트_72" data-name="무제 그라디언트 7" x1="-3273.936" y1="872.016" x2="-3262.401" y2="872.016" gradientTransform="translate(-2166.192 2003.313) rotate(135) scale(1 -1)" xlink:href="#_무제_그라디언트_7"/>
    <linearGradient id="_무제_그라디언트_73" data-name="무제 그라디언트 7" x1="414.766" y1="39.955" x2="501.05" y2="39.955" xlink:href="#_무제_그라디언트_7"/>
    <linearGradient id="_무제_그라디언트_74" data-name="무제 그라디언트 7" x1="-3030.177" y1="672.317" x2="-3015.662" y2="672.317" gradientTransform="translate(-2123.192 2124.013) rotate(135) scale(1 -1)" xlink:href="#_무제_그라디언트_7"/>
    <linearGradient id="_무제_그라디언트_75" data-name="무제 그라디언트 7" x1="490.867" y1="36.835" x2="495.333" y2="36.835" gradientTransform="translate(-.3 502.1) scale(1 -1)" xlink:href="#_무제_그라디언트_7"/>
    <linearGradient id="_무제_그라디언트_76" data-name="무제 그라디언트 7" x1="484.31" y1="43.391" x2="488.886" y2="43.391" gradientTransform="translate(-.3 502.1) scale(1 -1)" xlink:href="#_무제_그라디언트_7"/>
    <linearGradient id="_무제_그라디언트_77" data-name="무제 그라디언트 7" x1="468.791" y1="127.819" x2="663.963" y2="127.819" xlink:href="#_무제_그라디언트_7"/>
    <linearGradient id="_무제_그라디언트_78" data-name="무제 그라디언트 7" x1="633.865" y1="102.062" x2="829.037" y2="102.062" xlink:href="#_무제_그라디언트_7"/>
    <linearGradient id="_무제_그라디언트_79" data-name="무제 그라디언트 7" x1="535.523" y1="71.623" x2="730.695" y2="71.623" xlink:href="#_무제_그라디언트_7"/>
    <linearGradient id="_무제_그라디언트_710" data-name="무제 그라디언트 7" x1="-3602.406" y1="-579.824" x2="-3507.576" y2="-579.824" gradientTransform="translate(-3070.8 818.2) rotate(-180) scale(1 -1)" xlink:href="#_무제_그라디언트_7"/>
    <linearGradient id="_무제_그라디언트_711" data-name="무제 그라디언트 7" x1="-2742.68" y1="-2003.933" x2="-2695.478" y2="-2003.933" gradientTransform="translate(-2878.013 -267.992) rotate(-135) scale(1 -1)" xlink:href="#_무제_그라디언트_7"/>
    <linearGradient id="_무제_그라디언트_712" data-name="무제 그라디언트 7" x1="-71.824" y1="32.846" x2="23.006" y2="32.846" gradientTransform="translate(575.8 303.3) scale(1 -1)" xlink:href="#_무제_그라디언트_7"/>
    <linearGradient id="_무제_그라디언트_713" data-name="무제 그라디언트 7" x1="-679.36" y1="925.722" x2="-632.057" y2="925.722" gradientTransform="translate(383.113 1389.492) rotate(45) scale(1 -1)" xlink:href="#_무제_그라디언트_7"/>
    <linearGradient id="_무제_그라디언트_714" data-name="무제 그라디언트 7" x1="453.986" y1="151.819" x2="487.937" y2="151.819" xlink:href="#_무제_그라디언트_7"/>
  </defs>
  <rect class="st31" width="850" height="500"/>
  <rect class="st24" x="37" y="53.489" width="699.814" height="393.021" rx="12" ry="12"/>
  <path class="st22" d="M725.942,446.511H47.872c-6.005,0-10.872-4.868-10.872-10.872V77.259h46.762c2.976,0,5.388-2.412,5.388-5.388v-8.455c0-2.976,2.412-5.388,5.388-5.388h96.645c2.976,0,5.388,2.412,5.388,5.388v8.455c0,2.976,2.412,5.388,5.388,5.388h534.854v358.379c0,6.005-4.868,10.872-10.872,10.872Z"/>
  <circle class="st13" cx="54.929" cy="67.298" r="3.102"/>
  <circle class="st29" cx="66.957" cy="67.298" r="3.102"/>
  <circle class="st30" cx="78.985" cy="67.298" r="3.102"/>
  <text class="st18" transform="translate(107.193 69.13)"><tspan x="0" y="0">FlowKat</tspan></text>
  <g>
    <g>
      <circle class="st27" cx="98.634" cy="67.298" r="5.732"/>
      <path class="st27" d="M98.634,73.166c-3.235,0-5.868-2.632-5.868-5.868s2.632-5.868,5.868-5.868,5.868,2.632,5.868,5.868-2.632,5.868-5.868,5.868ZM98.634,61.703c-3.085,0-5.596,2.51-5.596,5.595s2.51,5.596,5.596,5.596,5.595-2.51,5.595-5.596-2.51-5.595-5.595-5.595Z"/>
    </g>
    <circle class="st14" cx="98.634" cy="67.298" r="5.732"/>
    <g class="st32">
      <g>
        <g>
          <path class="st22" d="M98.634,73.409h-2.98l.588-1.008c.461-.719.441-2.093.441-2.093-1.191.022-1.255-.447-1.255-.447-.138.446-.983.387-.983.387-1.004,0-1.026-1.312-1.026-1.312,0-1.184.747-1.627.747-1.627.124-3.09,1.618-3.696,1.618-3.696,1.506-.831,2.462-.296,2.754-.079,0,0,.109.042.191,0,.292-.217,1.248-.753,2.754.079,0,0,1.494.607,1.618,3.696,0,0,.747.443.747,1.627,0,0-.022,1.312-1.026,1.312,0,0-.845.059-.983-.387,0,0-.064.47-1.255.447,0,0-.02,1.374.441,2.093l.588,1.008h-2.98"/>
          <path class="st27" d="M101.613,73.5h-5.959c-.033,0-.062-.017-.079-.046s-.016-.063,0-.091l.588-1.008c.375-.586.422-1.642.428-1.956-.466,0-.814-.079-1.035-.232-.057-.039-.099-.08-.13-.117-.273.333-.956.29-.988.288h0c-.858,0-1.102-.916-1.11-1.401,0-1.072.583-1.561.749-1.679.135-3.011,1.551-3.679,1.667-3.728.401-.22,1.764-.862,2.836-.079.026.008.072.015.102.003,1.072-.788,2.439-.145,2.84.075.116.049,1.532.717,1.667,3.728.166.117.749.606.749,1.677-.008.486-.252,1.403-1.116,1.403-.027.002-.709.045-.982-.288-.031.038-.073.078-.13.117-.22.153-.568.231-1.035.232.005.314.052,1.369.426,1.952l.59,1.011c.016.028.017.063,0,.091s-.046.046-.079.046ZM95.812,73.318h5.643l-.509-.872c-.468-.73-.454-2.083-.453-2.14,0-.024.01-.047.028-.064s.04-.024.065-.026c1.078.02,1.163-.367,1.164-.371.008-.041.043-.072.084-.075.042-.001.08.023.092.062.095.308.675.338.89.323.908,0,.94-1.173.941-1.223,0-1.112-.674-1.53-.703-1.548-.026-.016-.043-.044-.044-.074-.119-2.984-1.547-3.61-1.562-3.616-.003-.001-.006-.003-.009-.005-.373-.206-1.666-.82-2.656-.085-.004.003-.008.006-.012.008-.114.059-.25.01-.265.004-.008-.003-.015-.007-.022-.012-.991-.734-2.283-.12-2.656.085-.003.002-.006.003-.01.005-.014.006-1.442.632-1.561,3.616-.001.031-.018.059-.044.074-.028.017-.702.435-.702,1.549,0,.048.033,1.221.935,1.221.222.014.801-.014.896-.323.012-.041.051-.066.094-.064.042.004.077.036.082.078,0,.001.084.389,1.163.369.022-.002.047.009.065.026s.027.04.028.064c0,.057.015,1.409-.455,2.143l-.507.868Z"/>
        </g>
        <path d="M94.347,68.01s.114,1.267.755,1.475c0,0,.348.186-.13.437,0,0-.948.396-1.26-.469,0,0-.26-.739.479-1.552,0,0,.187-.149.156.108Z"/>
        <path d="M102.918,68.01s-.114,1.267-.755,1.475c0,0-.348.186.13.437,0,0,.948.396,1.26-.469,0,0,.26-.739-.479-1.552,0,0-.187-.149-.156.108Z"/>
        <path d="M97.374,64.477s1.055.315.424,1.19c0,0-.643,1.119-2.096,1.119,0,0-.675.051-.675-.958,0,0-.18-1.723.823-1.665,0,0,.778.026,1.524.315Z"/>
        <circle class="st22" cx="96.894" cy="65.277" r=".333"/>
        <path d="M99.894,64.477s-1.055.315-.424,1.19c0,0,.643,1.119,2.096,1.119,0,0,.675.051.675-.958,0,0,.18-1.723-.823-1.665,0,0-.778.026-1.524.315Z"/>
        <circle class="st22" cx="100.373" cy="65.277" r=".333"/>
        <path d="M98.626,66.1s.336-.042.336-.25c0,0,.038-.146-.336-.135-.374-.01-.336.135-.336.135,0,.208.336.25.336.25Z"/>
        <path d="M98.626,66.565c-.687,0-.706-.229-.706-.255,0-.025.02-.045.045-.045.024,0,.044.019.045.043.006.045.12.159.57.166v-.373c0-.025.02-.045.045-.045s.045.02.045.045v.419c0,.025-.02.045-.045.045ZM98.01,66.31h0,0Z"/>
        <path d="M98.626,66.565c-.025,0-.045-.02-.045-.045v-.419c0-.025.02-.045.045-.045s.045.02.045.045v.373c.451-.007.565-.121.571-.166,0-.025.02-.044.045-.044s.045.022.045.047c0,.026-.02.255-.707.255Z"/>
        <path d="M98.626,70.578c.583,0,.58-.444.58-.444,0-.13-.173,0-.173,0,0,0-.117.124-.407.124s-.407-.124-.407-.124c0,0-.173-.13-.173,0,0,0-.002.444.58.444Z"/>
      </g>
    </g>
  </g>
  <g>
    <circle class="st11" cx="546.937" cy="261.228" r="121.063"/>
    <path class="st10" d="M658.486,308.351c-18.378,43.451-61.403,73.94-111.55,73.94-66.861,0-121.063-54.202-121.063-121.063s54.202-121.063,121.063-121.063"/>
  </g>
  <g>
    <rect class="st27" x="76.311" y="125.708" width="125.147" height="15.103"/>
    <rect class="st27" x="76.311" y="157.25" width="263.616" height="15.103"/>
    <rect class="st27" x="76.311" y="188.793" width="86.795" height="15.103"/>
    <rect class="st27" x="76.311" y="220.335" width="210.328" height="15.103"/>
    <rect class="st27" x="76.311" y="251.877" width="125.147" height="15.103"/>
    <rect class="st27" x="76.311" y="283.419" width="263.616" height="15.103"/>
    <rect class="st27" x="76.311" y="314.961" width="86.795" height="15.103"/>
    <rect class="st27" x="76.311" y="346.503" width="210.328" height="15.103"/>
  </g>
  <g id="_레이어_11" data-name="_레이어_1">
    <g>
      <rect class="st23" x="445.205" y="254.766" width="274.187" height="211.904" rx="14.868" ry="14.868"/>
      <path class="st23" d="M460.074,254.766h244.567c8.195,0,14.868,6.673,14.868,14.868v18.966h-274.304v-18.966c0-8.195,6.673-14.868,14.868-14.868Z"/>
    </g>
    <g>
      <rect class="st25" x="686.729" y="296.913" width="86.283" height="22.127" rx="11.005" ry="11.005"/>
      <circle class="st22" cx="761.305" cy="308.035" r="10.185"/>
      <g>
        <line class="st9" x1="761.539" y1="300.425" x2="761.539" y2="314.942"/>
        <polyline class="st8" points="768.797 308.269 761.305 315.644 753.929 308.269"/>
      </g>
      <g class="st20">
        <text class="st19" transform="translate(697.5 311.079)"><tspan x="0" y="0">견수별 정렬</tspan></text>
      </g>
    </g>
    <g>
      <rect class="st28" x="414.766" y="450.982" width="86.283" height="22.127" rx="11.005" ry="11.005"/>
      <circle class="st22" cx="489.459" cy="462.104" r="10.185"/>
      <g>
        <line class="st6" x1="494.845" y1="456.835" x2="484.542" y2="467.021"/>
        <circle class="st7" cx="492.854" cy="465.265" r="1.288"/>
        <circle class="st5" cx="486.298" cy="458.709" r="1.288"/>
      </g>
      <g class="st20">
        <text class="st19" transform="translate(432.679 465.266)"><tspan x="0" y="0">평균 시간</tspan></text>
      </g>
    </g>
    <g>
      <rect class="st16" x="469.791" y="352.523" width="193.172" height="43.317" rx="12.527" ry="12.527"/>
      <g class="st20">
        <text class="st21" transform="translate(485.714 382.26)"><tspan x="0" y="0">URL</tspan></text>
      </g>
    </g>
    <g>
      <rect class="st15" x="634.865" y="378.279" width="193.172" height="43.317" rx="12.527" ry="12.527"/>
      <g class="st20">
        <text class="st21" transform="translate(650.788 408.017)"><tspan x="0" y="0">HTTP</tspan></text>
      </g>
    </g>
    <g>
      <rect class="st17" x="536.523" y="408.718" width="193.172" height="43.317" rx="12.527" ry="12.527"/>
      <g class="st20">
        <text class="st21" transform="translate(552.445 438.455)"><tspan x="0" y="0">SQL</tspan></text>
      </g>
    </g>
    <g>
      <line class="st3" x1="531.723" y1="238.376" x2="436.893" y2="238.376"/>
      <polyline class="st1" points="464.405 268.23 433.849 237.673 464.405 207"/>
    </g>
    <g>
      <line class="st2" x1="503.976" y1="270.454" x2="598.806" y2="270.454"/>
      <polyline class="st4" points="571.177 240.6 601.733 271.273 571.177 301.83"/>
    </g>
    <g>
      <circle class="st26" cx="470.962" cy="350.181" r="16.976"/>
      <polyline class="st12" points="458.435 345.381 470.025 356.854 483.488 343.508"/>
    </g>
  </g>
</svg>