<?xml version="1.0" encoding="UTF-8"?>
<svg id="_레이어_1" data-name="레이어 1" xmlns="http://www.w3.org/2000/svg" xmlns:xlink="http://www.w3.org/1999/xlink" viewBox="0 0 850 500">
  <defs>
    <style>
      .cls-1, .cls-2, .cls-3 {
        fill: none;
      }

      .cls-4 {
        fill: #d33b35;
      }

      .cls-5 {
        fill: #2b2b2b;
      }

      .cls-6 {
        filter: url(#drop-shadow-2);
      }

      .cls-7 {
        filter: url(#drop-shadow-3);
      }

      .cls-7, .cls-8 {
        stroke-width: 2px;
      }

      .cls-7, .cls-8, .cls-9, .cls-10, .cls-2, .cls-3 {
        stroke: #f06400;
        stroke-linecap: round;
      }

      .cls-7, .cls-8, .cls-9, .cls-2, .cls-3 {
        stroke-linejoin: round;
      }

      .cls-11 {
        stroke: url(#_무제_그라디언트_7);
      }

      .cls-11, .cls-12, .cls-13 {
        fill: #fff;
      }

      .cls-11, .cls-13 {
        isolation: isolate;
        opacity: .3;
        stroke-miterlimit: 10;
      }

      .cls-14 {
        fill: #1c1c1c;
      }

      .cls-15 {
        font-family: ArialMT, Arial;
        font-size: 6.555px;
        letter-spacing: -.02em;
      }

      .cls-16 {
        fill: #e5e5e5;
      }

      .cls-17 {
        clip-path: url(#clippath-1);
      }

      .cls-18 {
        clip-path: url(#clippath-2);
      }

      .cls-19 {
        fill: #f06400;
      }

      .cls-9, .cls-10, .cls-2 {
        stroke-width: 3px;
      }

      .cls-10 {
        stroke-linejoin: bevel;
      }

      .cls-20 {
        fill: #eab73f;
      }

      .cls-3 {
        stroke-width: 5px;
      }

      .cls-21 {
        fill: #71bb67;
      }

      .cls-22 {
        clip-path: url(#clippath);
      }

      .cls-13 {
        stroke: url(#_무제_그라디언트_7-2);
      }
    </style>
    <clipPath id="clippath">
      <circle class="cls-1" cx="98.634" cy="67.298" r="5.732"/>
    </clipPath>
    <linearGradient id="_무제_그라디언트_7" data-name="무제 그라디언트 7" x1="56.506" y1="186.051" x2="333.672" y2="186.051" gradientUnits="userSpaceOnUse">
      <stop offset=".3" stop-color="#f06400"/>
      <stop offset=".9" stop-color="#f06400"/>
      <stop offset="1" stop-color="#f06400"/>
    </linearGradient>
    <clipPath id="clippath-1">
      <circle class="cls-1" cx="108.166" cy="183.607" r="37.939"/>
    </clipPath>
    <linearGradient id="_무제_그라디언트_7-2" data-name="무제 그라디언트 7" y1="352.333" y2="352.333" xlink:href="#_무제_그라디언트_7"/>
    <clipPath id="clippath-2">
      <circle class="cls-1" cx="108.166" cy="349.89" r="37.939"/>
    </clipPath>
    <filter id="drop-shadow-2" x="546" y="216" width="172" height="203" filterUnits="userSpaceOnUse">
      <feOffset dx="2" dy="2"/>
      <feGaussianBlur result="blur" stdDeviation="5"/>
      <feFlood flood-color="#f06400" flood-opacity=".3"/>
      <feComposite in2="blur" operator="in"/>
      <feComposite in="SourceGraphic"/>
    </filter>
    <filter id="drop-shadow-3" x="558" y="225" width="145" height="181" filterUnits="userSpaceOnUse">
      <feOffset dx="2" dy="2"/>
      <feGaussianBlur result="blur-2" stdDeviation="5"/>
      <feFlood flood-color="#f06400" flood-opacity=".3"/>
      <feComposite in2="blur-2" operator="in"/>
      <feComposite in="SourceGraphic"/>
    </filter>
  </defs>
  <rect class="cls-16" x="37" y="53.489" width="699.814" height="393.021" rx="12" ry="12"/>
  <path class="cls-12" d="M725.942,446.511H47.872c-6.005,0-10.872-4.868-10.872-10.872V77.259h46.762c2.976,0,5.388-2.412,5.388-5.388v-8.455c0-2.976,2.412-5.388,5.388-5.388h96.645c2.976,0,5.388,2.412,5.388,5.388v8.455c0,2.976,2.412,5.388,5.388,5.388h534.854v358.379c0,6.005-4.868,10.872-10.872,10.872Z"/>
  <circle class="cls-4" cx="54.929" cy="67.298" r="3.102"/>
  <circle class="cls-20" cx="66.957" cy="67.298" r="3.102"/>
  <circle class="cls-21" cx="78.985" cy="67.298" r="3.102"/>
  <text class="cls-15" transform="translate(107.193 69.13)"><tspan x="0" y="0">FlowKat</tspan></text>
  <g>
    <g>
      <circle class="cls-19" cx="98.634" cy="67.298" r="5.732"/>
      <path class="cls-19" d="M98.634,73.166c-3.235,0-5.868-2.632-5.868-5.868s2.632-5.868,5.868-5.868,5.868,2.632,5.868,5.868-2.632,5.868-5.868,5.868ZM98.634,61.703c-3.085,0-5.596,2.51-5.596,5.595s2.51,5.596,5.596,5.596,5.595-2.51,5.595-5.596-2.51-5.595-5.595-5.595Z"/>
    </g>
    <circle class="cls-5" cx="98.634" cy="67.298" r="5.732"/>
    <g class="cls-22">
      <g>
        <g>
          <path class="cls-12" d="M98.634,73.409h-2.98l.588-1.008c.461-.719.441-2.093.441-2.093-1.191.022-1.255-.447-1.255-.447-.138.446-.983.387-.983.387-1.004,0-1.026-1.312-1.026-1.312,0-1.184.747-1.627.747-1.627.124-3.09,1.618-3.696,1.618-3.696,1.506-.831,2.462-.296,2.754-.079,0,0,.109.042.191,0,.292-.217,1.248-.753,2.754.079,0,0,1.494.607,1.618,3.696,0,0,.747.443.747,1.627,0,0-.022,1.312-1.026,1.312,0,0-.845.059-.983-.387,0,0-.064.47-1.255.447,0,0-.02,1.374.441,2.093l.588,1.008h-2.98"/>
          <path class="cls-19" d="M101.613,73.5h-5.959c-.033,0-.062-.017-.079-.046s-.016-.063,0-.091l.588-1.008c.375-.586.422-1.642.428-1.956-.466,0-.814-.079-1.035-.232-.057-.039-.099-.08-.13-.117-.273.333-.956.29-.988.288h0c-.858,0-1.102-.916-1.11-1.401,0-1.072.583-1.561.749-1.679.135-3.011,1.551-3.679,1.667-3.728.401-.22,1.764-.862,2.836-.079.026.008.072.015.102.003,1.072-.788,2.439-.145,2.84.075.116.049,1.532.717,1.667,3.728.166.117.749.606.749,1.677-.008.486-.252,1.403-1.116,1.403-.027.002-.709.045-.982-.288-.031.038-.073.078-.13.117-.22.153-.568.231-1.035.232.005.314.052,1.369.426,1.952l.59,1.011c.016.028.017.063,0,.091s-.046.046-.079.046ZM95.812,73.318h5.643l-.509-.872c-.468-.73-.454-2.083-.453-2.14,0-.024.01-.047.028-.064s.04-.024.065-.026c1.078.02,1.163-.367,1.164-.371.008-.041.043-.072.084-.075.042-.001.08.023.092.062.095.308.675.338.89.323.908,0,.94-1.173.941-1.223,0-1.112-.674-1.53-.703-1.548-.026-.016-.043-.044-.044-.074-.119-2.984-1.547-3.61-1.562-3.616-.003-.001-.006-.003-.009-.005-.373-.206-1.666-.82-2.656-.085-.004.003-.008.006-.012.008-.114.059-.25.01-.265.004-.008-.003-.015-.007-.022-.012-.991-.734-2.283-.12-2.656.085-.003.002-.006.003-.01.005-.014.006-1.442.632-1.561,3.616-.001.031-.018.059-.044.074-.028.017-.702.435-.702,1.549,0,.048.033,1.221.935,1.221.222.014.801-.014.896-.323.012-.041.051-.066.094-.064.042.004.077.036.082.078,0,.001.084.389,1.163.369.022-.002.047.009.065.026s.027.04.028.064c0,.057.015,1.409-.455,2.143l-.507.868Z"/>
        </g>
        <path d="M94.347,68.01s.114,1.267.755,1.475c0,0,.348.186-.13.437,0,0-.948.396-1.26-.469,0,0-.26-.739.479-1.552,0,0,.187-.149.156.108Z"/>
        <path d="M102.918,68.01s-.114,1.267-.755,1.475c0,0-.348.186.13.437,0,0,.948.396,1.26-.469,0,0,.26-.739-.479-1.552,0,0-.187-.149-.156.108Z"/>
        <path d="M97.374,64.477s1.055.315.424,1.19c0,0-.643,1.119-2.096,1.119,0,0-.675.051-.675-.958,0,0-.18-1.723.823-1.665,0,0,.778.026,1.524.315Z"/>
        <circle class="cls-12" cx="96.894" cy="65.277" r=".333"/>
        <path d="M99.894,64.477s-1.055.315-.424,1.19c0,0,.643,1.119,2.096,1.119,0,0,.675.051.675-.958,0,0,.18-1.723-.823-1.665,0,0-.778.026-1.524.315Z"/>
        <circle class="cls-12" cx="100.373" cy="65.277" r=".333"/>
        <path d="M98.626,66.1s.336-.042.336-.25c0,0,.038-.146-.336-.135-.374-.01-.336.135-.336.135,0,.208.336.25.336.25Z"/>
        <path d="M98.626,66.565c-.687,0-.706-.229-.706-.255,0-.025.02-.045.045-.045.024,0,.044.019.045.043.006.045.12.159.57.166v-.373c0-.025.02-.045.045-.045s.045.02.045.045v.419c0,.025-.02.045-.045.045ZM98.01,66.31h0,0Z"/>
        <path d="M98.626,66.565c-.025,0-.045-.02-.045-.045v-.419c0-.025.02-.045.045-.045s.045.02.045.045v.373c.451-.007.565-.121.571-.166,0-.025.02-.044.045-.044s.045.022.045.047c0,.026-.02.255-.707.255Z"/>
        <path d="M98.626,70.578c.583,0,.58-.444.58-.444,0-.13-.173,0-.173,0,0,0-.117.124-.407.124s-.407-.124-.407-.124c0,0-.173-.13-.173,0,0,0-.002.444.58.444Z"/>
      </g>
    </g>
  </g>
  <g>
    <rect class="cls-11" x="57.006" y="109.384" width="276.166" height="153.333" rx="7.82" ry="7.82"/>
    <g>
      <g class="cls-17">
        <g>
          <g>
            <path class="cls-12" d="M108.166,224.056h-19.723l3.895-6.673c3.049-4.759,2.919-13.852,2.919-13.852-7.883.149-8.307-2.961-8.307-2.961-.911,2.951-6.505,2.561-6.505,2.561-6.645,0-6.789-8.685-6.789-8.685,0-7.84,4.943-10.771,4.943-10.771.818-20.451,10.709-24.466,10.709-24.466,9.967-5.503,16.294-1.956,18.228-.521,0,0,.724.277,1.262,0,1.934-1.435,8.261-4.982,18.228.521,0,0,9.891,4.016,10.709,24.466,0,0,4.943,2.931,4.943,10.771,0,0-.144,8.685-6.789,8.685,0,0-5.594.391-6.505-2.561,0,0-.424,3.11-8.307,2.961,0,0-.13,9.093,2.919,13.852l3.895,6.673h-19.723"/>
            <path class="cls-14" d="M127.889,224.656h-39.446c-.215,0-.413-.115-.521-.301s-.106-.416.002-.602l3.895-6.673c2.485-3.881,2.797-10.868,2.833-12.944-3.087-.006-5.389-.523-6.848-1.538-.374-.26-.652-.527-.859-.776-1.806,2.207-6.327,1.919-6.542,1.906h-.002c-5.68,0-7.292-6.066-7.346-9.274,0-7.098,3.86-10.335,4.957-11.112.891-19.929,10.268-24.349,11.034-24.677,2.652-1.46,11.676-5.703,18.769-.52.172.05.477.1.673.021,7.099-5.214,16.143-.963,18.799.499.765.327,10.143,4.746,11.034,24.677,1.097.776,4.957,4.012,4.957,11.102-.053,3.218-1.667,9.285-7.39,9.285-.181.015-4.695.3-6.501-1.908-.207.249-.485.516-.859.776-1.459,1.014-3.761,1.531-6.848,1.538.036,2.076.345,9.059,2.82,12.923l3.908,6.694c.108.185.11.415.002.602s-.306.301-.521.301ZM89.489,223.455h37.355l-3.368-5.77c-3.097-4.835-3.006-13.785-3.001-14.164.002-.159.068-.312.183-.423s.264-.161.429-.169c7.137.135,7.698-2.432,7.703-2.458.053-.27.284-.478.559-.493.276-.007.527.151.607.413.631,2.042,4.467,2.236,5.89,2.138,6.013-.001,6.225-7.765,6.23-8.096,0-7.363-4.461-10.13-4.651-10.245-.173-.104-.284-.29-.292-.491-.79-19.753-10.241-23.895-10.337-23.935-.021-.008-.043-.019-.062-.03-2.466-1.362-11.025-5.427-17.58-.565-.026.019-.053.037-.082.052-.755.389-1.652.066-1.752.027-.051-.019-.099-.046-.143-.079-6.558-4.862-15.114-.796-17.58.565-.021.012-.042.022-.065.031-.093.039-9.544,4.181-10.335,23.934-.008.203-.118.389-.294.493-.188.113-4.649,2.88-4.649,10.254.006.32.217,8.084,6.189,8.084,1.468.095,5.301-.094,5.932-2.137.083-.269.341-.439.623-.422.281.023.508.239.546.518.002.009.556,2.575,7.7,2.441.148-.015.314.058.429.169s.181.263.183.423c.005.379.096,9.329-3.014,14.185l-3.355,5.748Z"/>
          </g>
          <path d="M79.791,188.315s.753,8.386,4.995,9.765c0,0,2.307,1.234-.859,2.895,0,0-6.273,2.62-8.341-3.102,0,0-1.723-4.895,3.171-10.272,0,0,1.241-.986,1.034.713Z"/>
          <path d="M136.527,188.315s-.753,8.386-4.995,9.765c0,0-2.307,1.234.859,2.895,0,0,6.273,2.62,8.341-3.102,0,0,1.723-4.895-3.171-10.272,0,0-1.241-.986-1.034.713Z"/>
          <path d="M99.827,164.931s6.981,2.086,2.809,7.874c0,0-4.256,7.406-13.876,7.406,0,0-4.469.341-4.469-6.342,0,0-1.192-11.407,5.448-11.024,0,0,5.15.17,10.088,2.086Z"/>
          <circle class="cls-12" cx="96.654" cy="170.229" r="2.206"/>
          <path d="M116.506,164.931s-6.981,2.086-2.809,7.874c0,0,4.256,7.406,13.876,7.406,0,0,4.469.341,4.469-6.342,0,0,1.192-11.407-5.448-11.024,0,0-5.15.17-10.088,2.086Z"/>
          <circle class="cls-12" cx="119.678" cy="170.229" r="2.206"/>
          <path d="M108.115,175.676s2.223-.276,2.223-1.654c0,0,.252-.965-2.223-.896-2.475-.069-2.223.896-2.223.896,0,1.379,2.223,1.654,2.223,1.654Z"/>
          <path d="M108.115,178.75c-4.545,0-4.676-1.515-4.676-1.688,0-.166.134-.3.3-.3.161,0,.293.127.3.287.039.298.796,1.051,3.776,1.098v-2.472c0-.166.134-.3.3-.3s.3.134.3.3v2.774c0,.166-.134.3-.3.3ZM104.04,177.063h.006-.006Z"/>
          <path d="M108.115,178.75c-.166,0-.3-.134-.3-.3v-2.774c0-.166.134-.3.3-.3s.3.134.3.3v2.472c2.988-.047,3.742-.804,3.776-1.101,0-.166.134-.293.3-.293s.3.142.3.308c0,.173-.131,1.688-4.676,1.688Z"/>
          <path d="M108.115,205.313c3.856,0,3.842-2.936,3.842-2.936,0-.859-1.146,0-1.146,0,0,0-.773.824-2.696.824-1.923,0-2.696-.824-2.696-.824,0,0-1.146-.859-1.146,0,0,0-.014,2.936,3.842,2.936Z"/>
        </g>
      </g>
      <path class="cls-14" d="M108.166,145.668c20.953,0,37.939,16.986,37.939,37.939s-16.986,37.939-37.939,37.939-37.939-16.986-37.939-37.939,16.986-37.939,37.939-37.939M108.166,144.968c-21.305,0-38.639,17.333-38.639,38.639s17.333,38.639,38.639,38.639,38.639-17.333,38.639-38.639-17.333-38.639-38.639-38.639h0Z"/>
    </g>
    <rect class="cls-19" x="176.968" y="161.156" width="117.002" height="10.023"/>
    <rect class="cls-19" x="176.968" y="186.583" width="57.601" height="1.037"/>
    <rect class="cls-19" x="176.969" y="191.763" width="72.974" height="1.037"/>
    <rect class="cls-19" x="176.969" y="196.943" width="107.937" height="1.037"/>
    <rect class="cls-19" x="176.968" y="202.122" width="34.126" height="1.037"/>
  </g>
  <g>
    <rect class="cls-13" x="57.006" y="275.667" width="276.166" height="153.333" rx="7.82" ry="7.82"/>
    <g>
      <g class="cls-18">
        <g>
          <g>
            <path class="cls-12" d="M108.166,390.338h-19.723l3.895-6.673c3.049-4.759,2.919-13.852,2.919-13.852-7.883.149-8.307-2.961-8.307-2.961-.911,2.951-6.505,2.561-6.505,2.561-6.645,0-6.789-8.685-6.789-8.685,0-7.84,4.943-10.771,4.943-10.771.818-20.451,10.709-24.466,10.709-24.466,9.967-5.503,16.294-1.956,18.228-.521,0,0,.724.277,1.262,0,1.934-1.435,8.261-4.982,18.228.521,0,0,9.891,4.016,10.709,24.466,0,0,4.943,2.931,4.943,10.771,0,0-.144,8.685-6.789,8.685,0,0-5.594.391-6.505-2.561,0,0-.424,3.11-8.307,2.961,0,0-.13,9.093,2.919,13.852l3.895,6.673h-19.723"/>
            <path class="cls-14" d="M127.889,390.938h-39.446c-.215,0-.413-.115-.521-.301s-.106-.416.002-.602l3.895-6.673c2.485-3.881,2.797-10.868,2.833-12.944-3.087-.006-5.389-.523-6.848-1.538-.374-.26-.652-.527-.859-.776-1.806,2.207-6.327,1.919-6.542,1.906h-.002c-5.68,0-7.292-6.066-7.346-9.274,0-7.098,3.86-10.335,4.957-11.112.891-19.929,10.268-24.349,11.034-24.677,2.652-1.46,11.676-5.703,18.769-.52.172.05.477.1.673.021,7.099-5.214,16.143-.963,18.799.499.765.327,10.143,4.746,11.034,24.677,1.097.776,4.957,4.012,4.957,11.102-.053,3.218-1.667,9.285-7.39,9.285-.181.015-4.695.3-6.501-1.908-.207.249-.485.516-.859.776-1.459,1.014-3.761,1.531-6.848,1.538.036,2.076.345,9.059,2.82,12.923l3.908,6.694c.108.185.11.415.002.602s-.306.301-.521.301ZM89.489,389.737h37.355l-3.368-5.77c-3.097-4.835-3.006-13.785-3.001-14.164.002-.159.068-.312.183-.423s.264-.161.429-.169c7.137.135,7.698-2.432,7.703-2.458.053-.27.284-.478.559-.493.276-.007.527.151.607.413.631,2.042,4.467,2.236,5.89,2.138,6.013-.001,6.225-7.765,6.23-8.096,0-7.363-4.461-10.13-4.651-10.245-.173-.104-.284-.29-.292-.491-.79-19.753-10.241-23.895-10.337-23.935-.021-.008-.043-.019-.062-.03-2.466-1.362-11.025-5.427-17.58-.565-.026.019-.053.037-.082.052-.755.389-1.652.066-1.752.027-.051-.019-.099-.046-.143-.079-6.558-4.862-15.114-.796-17.58.565-.021.012-.042.022-.065.031-.093.039-9.544,4.181-10.335,23.934-.008.203-.118.389-.294.493-.188.113-4.649,2.88-4.649,10.254.006.32.217,8.084,6.189,8.084,1.468.095,5.301-.094,5.932-2.137.083-.269.341-.439.623-.422.281.023.508.239.546.518.002.009.556,2.575,7.7,2.441.148-.015.314.058.429.169s.181.263.183.423c.005.379.096,9.329-3.014,14.185l-3.355,5.748Z"/>
          </g>
          <path d="M79.791,354.598s.753,8.386,4.995,9.765c0,0,2.307,1.234-.859,2.895,0,0-6.273,2.62-8.341-3.102,0,0-1.723-4.895,3.171-10.272,0,0,1.241-.986,1.034.713Z"/>
          <path d="M136.527,354.598s-.753,8.386-4.995,9.765c0,0-2.307,1.234.859,2.895,0,0,6.273,2.62,8.341-3.102,0,0,1.723-4.895-3.171-10.272,0,0-1.241-.986-1.034.713Z"/>
          <path d="M99.827,331.214s6.981,2.086,2.809,7.874c0,0-4.256,7.406-13.876,7.406,0,0-4.469.341-4.469-6.342,0,0-1.192-11.407,5.448-11.024,0,0,5.15.17,10.088,2.086Z"/>
          <circle class="cls-12" cx="96.654" cy="336.512" r="2.206"/>
          <path d="M116.506,331.214s-6.981,2.086-2.809,7.874c0,0,4.256,7.406,13.876,7.406,0,0,4.469.341,4.469-6.342,0,0,1.192-11.407-5.448-11.024,0,0-5.15.17-10.088,2.086Z"/>
          <circle class="cls-12" cx="119.678" cy="336.512" r="2.206"/>
          <path d="M108.115,341.958s2.223-.276,2.223-1.654c0,0,.252-.965-2.223-.896-2.475-.069-2.223.896-2.223.896,0,1.379,2.223,1.654,2.223,1.654Z"/>
          <path d="M108.115,345.033c-4.545,0-4.676-1.515-4.676-1.688,0-.166.134-.3.3-.3.161,0,.293.127.3.287.039.298.796,1.051,3.776,1.098v-2.472c0-.166.134-.3.3-.3s.3.134.3.3v2.774c0,.166-.134.3-.3.3ZM104.04,343.345h.006-.006Z"/>
          <path d="M108.115,345.033c-.166,0-.3-.134-.3-.3v-2.774c0-.166.134-.3.3-.3s.3.134.3.3v2.472c2.988-.047,3.742-.804,3.776-1.101,0-.166.134-.293.3-.293s.3.142.3.308c0,.173-.131,1.688-4.676,1.688Z"/>
          <path d="M108.115,371.595c3.856,0,3.842-2.936,3.842-2.936,0-.859-1.146,0-1.146,0,0,0-.773.824-2.696.824-1.923,0-2.696-.824-2.696-.824,0,0-1.146-.859-1.146,0,0,0-.014,2.936,3.842,2.936Z"/>
        </g>
      </g>
      <path class="cls-14" d="M108.166,311.951c20.953,0,37.939,16.986,37.939,37.939s-16.986,37.939-37.939,37.939-37.939-16.986-37.939-37.939,16.986-37.939,37.939-37.939M108.166,311.251c-21.305,0-38.639,17.333-38.639,38.639s17.333,38.639,38.639,38.639,38.639-17.333,38.639-38.639-17.333-38.639-38.639-38.639h0Z"/>
    </g>
    <rect class="cls-19" x="176.968" y="327.439" width="117.002" height="10.023"/>
    <rect class="cls-19" x="176.968" y="352.866" width="57.601" height="1.037"/>
    <rect class="cls-19" x="176.969" y="358.046" width="72.974" height="1.037"/>
    <rect class="cls-19" x="176.969" y="363.226" width="107.937" height="1.037"/>
    <rect class="cls-19" x="176.968" y="368.405" width="34.126" height="1.037"/>
  </g>
  <g>
    <g>
      <path class="cls-8" d="M731.752,304.082l-83.4-29.7c-4.5-1.6-8.1-7.4-7.9-12.9l2-73.9c.1-5.5,3.9-8.7,8.5-7.1l83.4,29.7c4.5,1.6,8.1,7.4,7.9,12.9l-2,73.9c-.1,5.5-3.9,8.7-8.5,7.1Z"/>
      <path class="cls-8" d="M742.152,228.182l-99.8-35.5v-5c.3-5.5,4.1-8.7,8.6-7.1l83.4,29.7c4.5,1.6,8.1,7.4,7.9,12.9v5h-.1Z"/>
      <g>
        <path class="cls-10" d="M673.452,226.182c-.1,4.7-3.3,7.4-7.2,6.1s-6.9-6.2-6.8-10.9c.1-4.7,3.3-7.4,7.2-6.1,3.9,1.4,6.9,6.2,6.8,10.9Z"/>
        <path class="cls-9" d="M675.952,245.482c-2.6-4.1-6-7.3-9.7-8.6-8.4-2.9-15.5,8.8-15.7,20.6v2.1l30.1,10.5c0-.7.1-1.4.1-2.1.1-6.5-1.6-17.5-4.8-22.6v.1Z"/>
      </g>
      <line class="cls-2" x1="691.252" y1="235.082" x2="729.152" y2="248.582"/>
      <line class="cls-2" x1="690.952" y1="245.282" x2="728.852" y2="258.782"/>
      <line class="cls-2" x1="690.652" y1="255.482" x2="728.552" y2="268.982"/>
    </g>
    <g>
      <path class="cls-8" d="M521.652,304.082l83.4-29.7c4.5-1.6,8.1-7.4,7.9-12.9l-2-73.9c-.1-5.5-3.9-8.7-8.5-7.1l-83.4,29.7c-4.5,1.6-8.1,7.4-7.9,12.9l2,73.9c.1,5.5,3.9,8.7,8.5,7.1Z"/>
      <path class="cls-8" d="M511.252,228.182l99.8-35.5v-5c-.3-5.5-4.1-8.7-8.6-7.1l-83.4,29.7c-4.5,1.6-8.1,7.4-7.9,12.9v5h.1Z"/>
      <g>
        <path class="cls-10" d="M533.652,244.382c.1,4.7,3.3,7.4,7.2,6.1,3.9-1.3,6.9-6.2,6.8-10.9-.1-4.7-3.3-7.4-7.2-6.1-3.9,1.4-6.9,6.2-6.8,10.9Z"/>
        <path class="cls-9" d="M531.252,263.682c2.6-4.1,6-7.3,9.7-8.6,8.4-2.9,15.5,8.8,15.7,20.6v2.1l-30.1,10.5c0-.7-.1-1.4-.1-2.1-.1-6.5,1.6-17.5,4.8-22.6v.1Z"/>
      </g>
      <line class="cls-2" x1="599.352" y1="224.382" x2="561.452" y2="237.882"/>
      <line class="cls-2" x1="599.552" y1="234.582" x2="561.652" y2="248.082"/>
      <line class="cls-2" x1="599.852" y1="244.782" x2="561.952" y2="258.282"/>
    </g>
    <g class="cls-6">
      <path class="cls-7" d="M658.752,362.682l-29.6,24.1c-.5.4-1.1.4-1.6,0l-29.6-24.1c-16.3-13.3-25.7-33.1-25.7-54.1v-36.9c0-1.8,1.2-3.3,3-3.6,19.7-3.6,36.4-12.9,50.3-27.4,1.5-1.6,4-1.5,5.4.1,13.7,15.7,30.6,24.6,50.4,27.4,1.8.3,3.1,1.8,3.1,3.6v36.8c0,21-9.5,40.9-25.7,54.1Z"/>
    </g>
    <path class="cls-8" d="M662.852,369.482l-33.7,27.4c-.5.4-1.3.4-1.8,0l-33.7-27.4c-18.5-15.1-29.3-37.7-29.3-61.6v-42c0-2,1.4-3.8,3.4-4.1,22.5-4.1,41.4-14.7,57.3-31.2,1.7-1.8,4.6-1.7,6.2.2,15.6,17.8,34.9,27.9,57.3,31.1,2.1.3,3.6,2.1,3.6,4.1v41.8c0,23.9-10.8,46.5-29.3,61.6v.1Z"/>
    <g>
      <rect class="cls-19" x="602.452" y="294.082" width="51.7" height="51.7" rx="25.5" ry="25.5"/>
      <path d="M633.252,314.082c0-2.7-2.2-4.9-4.9-4.9s-4.9,2.2-4.9,4.9,1.2,3.6,2.8,4.4v9.6c0,1.2.9,2.1,2.1,2.1s2.1-.9,2.1-2.1v-9.6c1.7-.8,2.8-2.5,2.8-4.4h0Z"/>
      <path class="cls-3" d="M611.952,302.282v-9.1c0-9,7.3-16.4,16.4-16.4h0c9,0,16.4,7.3,16.4,16.4v9.1"/>
    </g>
    <g>
      <path class="cls-8" d="M590.352,455.382l-97-42c-5.3-2.3-9.5-9.2-9.3-15.5l1.6-84.1c.1-6.3,4.5-9.5,9.8-7.2l97,42c5.3,2.3,9.5,9.2,9.3,15.5l-1.6,84.1c-.1,6.3-4.5,9.5-9.8,7.2Z"/>
      <path class="cls-8" d="M601.552,369.682l-116.2-50.3v-5.7c.2-6.3,4.6-9.5,9.9-7.2l97,42c5.3,2.3,9.5,9.2,9.3,15.5v5.7h0Z"/>
    </g>
    <g>
      <path class="cls-8" d="M666.252,455.382l97-42c5.3-2.3,9.5-9.2,9.3-15.5l-1.6-84.1c-.1-6.3-4.5-9.5-9.8-7.2l-97,42c-5.3,2.3-9.5,9.2-9.3,15.5l1.6,84.1c.1,6.3,4.5,9.5,9.8,7.2h0Z"/>
      <path class="cls-8" d="M655.052,369.682l116.2-50.3v-5.7c-.2-6.3-4.6-9.5-9.9-7.2l-97,42c-5.3,2.3-9.5,9.2-9.3,15.5v5.7h0Z"/>
    </g>
  </g>
</svg>