<?xml version="1.0" encoding="UTF-8"?>
<svg id="_레이어_1" data-name="레이어 1" xmlns="http://www.w3.org/2000/svg" xmlns:xlink="http://www.w3.org/1999/xlink" viewBox="0 0 850 500">
  <defs>
    <style>
      .cls-1, .cls-2, .cls-3, .cls-4, .cls-5, .cls-6, .cls-7 {
        fill: none;
      }

      .cls-8 {
        fill: #d33b35;
      }

      .cls-9 {
        fill: #2b2b2b;
      }

      .cls-2 {
        stroke-width: .5px;
      }

      .cls-2, .cls-10, .cls-3, .cls-4, .cls-5, .cls-6, .cls-7 {
        stroke-miterlimit: 10;
      }

      .cls-2, .cls-6, .cls-7 {
        stroke: #f06400;
      }

      .cls-10 {
        stroke: url(#_무제_그라디언트_7);
      }

      .cls-10, .cls-11, .cls-4, .cls-5 {
        opacity: .3;
      }

      .cls-10, .cls-11, .cls-4, .cls-5, .cls-12 {
        isolation: isolate;
      }

      .cls-10, .cls-13, .cls-12 {
        fill: #fff;
      }

      .cls-14 {
        font-family: ArialMT, Arial;
        font-size: 6.555px;
        letter-spacing: -.02em;
      }

      .cls-3 {
        stroke: #fff;
        stroke-width: 3px;
      }

      .cls-11 {
        fill: url(#_무제_그라디언트_2);
      }

      .cls-15 {
        fill: #e5e5e5;
      }

      .cls-16 {
        fill: #f06400;
      }

      .cls-17 {
        fill: #1c1c1c;
        filter: url(#drop-shadow-2);
      }

      .cls-18 {
        fill: #eab73f;
      }

      .cls-19 {
        fill: #71bb67;
      }

      .cls-4 {
        stroke: url(#_무제_그라디언트_7-3);
      }

      .cls-5 {
        stroke: url(#_무제_그라디언트_7-2);
      }

      .cls-6 {
        stroke-width: 24px;
      }

      .cls-20 {
        clip-path: url(#clippath);
      }

      .cls-7 {
        stroke-width: 9px;
      }
    </style>
    <clipPath id="clippath">
      <circle class="cls-1" cx="98.634" cy="67.298" r="5.732"/>
    </clipPath>
    <linearGradient id="_무제_그라디언트_7" data-name="무제 그라디언트 7" x1="60.23" y1="263.233" x2="507" y2="263.233" gradientUnits="userSpaceOnUse">
      <stop offset=".3" stop-color="#f06400"/>
      <stop offset=".9" stop-color="#f06400"/>
      <stop offset="1" stop-color="#f06400"/>
    </linearGradient>
    <linearGradient id="_무제_그라디언트_2" data-name="무제 그라디언트 2" x1="222.135" y1="184.307" x2="354.606" y2="184.307" gradientTransform="translate(0 502) scale(1 -1)" gradientUnits="userSpaceOnUse">
      <stop offset=".3" stop-color="#f37b26"/>
      <stop offset=".7" stop-color="#f27924"/>
      <stop offset=".8" stop-color="#f2751d"/>
      <stop offset=".9" stop-color="#f16e11"/>
      <stop offset="1" stop-color="#f06400"/>
      <stop offset="1" stop-color="#f06400"/>
    </linearGradient>
    <filter id="drop-shadow-2" x="439" y="196" width="385" height="248" filterUnits="userSpaceOnUse">
      <feOffset dx="0" dy="0"/>
      <feGaussianBlur result="blur" stdDeviation="5"/>
      <feFlood flood-color="#f06400" flood-opacity=".3"/>
      <feComposite in2="blur" operator="in"/>
      <feComposite in="SourceGraphic"/>
    </filter>
    <linearGradient id="_무제_그라디언트_7-2" data-name="무제 그라디언트 7" x1="444.5" y1="127.25" x2="513" y2="127.25" xlink:href="#_무제_그라디언트_7"/>
    <linearGradient id="_무제_그라디언트_7-3" data-name="무제 그라디언트 7" x1="498.5" y1="157.25" x2="547" y2="157.25" xlink:href="#_무제_그라디언트_7"/>
  </defs>
  <rect class="cls-15" x="37" y="53.489" width="699.814" height="393.021" rx="12" ry="12"/>
  <path class="cls-13" d="M725.942,446.511H47.872c-6.005,0-10.872-4.868-10.872-10.872V77.259h46.762c2.976,0,5.388-2.412,5.388-5.388v-8.455c0-2.976,2.412-5.388,5.388-5.388h96.645c2.976,0,5.388,2.412,5.388,5.388v8.455c0,2.976,2.412,5.388,5.388,5.388h534.854v358.379c0,6.005-4.868,10.872-10.872,10.872Z"/>
  <circle class="cls-8" cx="54.929" cy="67.298" r="3.102"/>
  <circle class="cls-18" cx="66.957" cy="67.298" r="3.102"/>
  <circle class="cls-19" cx="78.985" cy="67.298" r="3.102"/>
  <text class="cls-14" transform="translate(107.193 69.13)"><tspan x="0" y="0">FlowKat</tspan></text>
  <g>
    <g>
      <circle class="cls-16" cx="98.634" cy="67.298" r="5.732"/>
      <path class="cls-16" d="M98.634,73.166c-3.235,0-5.868-2.632-5.868-5.868s2.632-5.868,5.868-5.868,5.868,2.632,5.868,5.868-2.632,5.868-5.868,5.868ZM98.634,61.703c-3.085,0-5.596,2.51-5.596,5.595s2.51,5.596,5.596,5.596,5.595-2.51,5.595-5.596-2.51-5.595-5.595-5.595Z"/>
    </g>
    <circle class="cls-9" cx="98.634" cy="67.298" r="5.732"/>
    <g class="cls-20">
      <g>
        <g>
          <path class="cls-13" d="M98.634,73.409h-2.98l.588-1.008c.461-.719.441-2.093.441-2.093-1.191.022-1.255-.447-1.255-.447-.138.446-.983.387-.983.387-1.004,0-1.026-1.312-1.026-1.312,0-1.184.747-1.627.747-1.627.124-3.09,1.618-3.696,1.618-3.696,1.506-.831,2.462-.296,2.754-.079,0,0,.109.042.191,0,.292-.217,1.248-.753,2.754.079,0,0,1.494.607,1.618,3.696,0,0,.747.443.747,1.627,0,0-.022,1.312-1.026,1.312,0,0-.845.059-.983-.387,0,0-.064.47-1.255.447,0,0-.02,1.374.441,2.093l.588,1.008h-2.98"/>
          <path class="cls-16" d="M101.613,73.5h-5.959c-.033,0-.062-.017-.079-.046s-.016-.063,0-.091l.588-1.008c.375-.586.422-1.642.428-1.956-.466,0-.814-.079-1.035-.232-.057-.039-.099-.08-.13-.117-.273.333-.956.29-.988.288h0c-.858,0-1.102-.916-1.11-1.401,0-1.072.583-1.561.749-1.679.135-3.011,1.551-3.679,1.667-3.728.401-.22,1.764-.862,2.836-.079.026.008.072.015.102.003,1.072-.788,2.439-.145,2.84.075.116.049,1.532.717,1.667,3.728.166.117.749.606.749,1.677-.008.486-.252,1.403-1.116,1.403-.027.002-.709.045-.982-.288-.031.038-.073.078-.13.117-.22.153-.568.231-1.035.232.005.314.052,1.369.426,1.952l.59,1.011c.016.028.017.063,0,.091s-.046.046-.079.046ZM95.812,73.318h5.643l-.509-.872c-.468-.73-.454-2.083-.453-2.14,0-.024.01-.047.028-.064s.04-.024.065-.026c1.078.02,1.163-.367,1.164-.371.008-.041.043-.072.084-.075.042-.001.08.023.092.062.095.308.675.338.89.323.908,0,.94-1.173.941-1.223,0-1.112-.674-1.53-.703-1.548-.026-.016-.043-.044-.044-.074-.119-2.984-1.547-3.61-1.562-3.616-.003-.001-.006-.003-.009-.005-.373-.206-1.666-.82-2.656-.085-.004.003-.008.006-.012.008-.114.059-.25.01-.265.004-.008-.003-.015-.007-.022-.012-.991-.734-2.283-.12-2.656.085-.003.002-.006.003-.01.005-.014.006-1.442.632-1.561,3.616-.001.031-.018.059-.044.074-.028.017-.702.435-.702,1.549,0,.048.033,1.221.935,1.221.222.014.801-.014.896-.323.012-.041.051-.066.094-.064.042.004.077.036.082.078,0,.001.084.389,1.163.369.022-.002.047.009.065.026s.027.04.028.064c0,.057.015,1.409-.455,2.143l-.507.868Z"/>
        </g>
        <path d="M94.347,68.01s.114,1.267.755,1.475c0,0,.348.186-.13.437,0,0-.948.396-1.26-.469,0,0-.26-.739.479-1.552,0,0,.187-.149.156.108Z"/>
        <path d="M102.918,68.01s-.114,1.267-.755,1.475c0,0-.348.186.13.437,0,0,.948.396,1.26-.469,0,0,.26-.739-.479-1.552,0,0-.187-.149-.156.108Z"/>
        <path d="M97.374,64.477s1.055.315.424,1.19c0,0-.643,1.119-2.096,1.119,0,0-.675.051-.675-.958,0,0-.18-1.723.823-1.665,0,0,.778.026,1.524.315Z"/>
        <circle class="cls-13" cx="96.894" cy="65.277" r=".333"/>
        <path d="M99.894,64.477s-1.055.315-.424,1.19c0,0,.643,1.119,2.096,1.119,0,0,.675.051.675-.958,0,0,.18-1.723-.823-1.665,0,0-.778.026-1.524.315Z"/>
        <circle class="cls-13" cx="100.373" cy="65.277" r=".333"/>
        <path d="M98.626,66.1s.336-.042.336-.25c0,0,.038-.146-.336-.135-.374-.01-.336.135-.336.135,0,.208.336.25.336.25Z"/>
        <path d="M98.626,66.565c-.687,0-.706-.229-.706-.255,0-.025.02-.045.045-.045.024,0,.044.019.045.043.006.045.12.159.57.166v-.373c0-.025.02-.045.045-.045s.045.02.045.045v.419c0,.025-.02.045-.045.045ZM98.01,66.31h0,0Z"/>
        <path d="M98.626,66.565c-.025,0-.045-.02-.045-.045v-.419c0-.025.02-.045.045-.045s.045.02.045.045v.373c.451-.007.565-.121.571-.166,0-.025.02-.044.045-.044s.045.022.045.047c0,.026-.02.255-.707.255Z"/>
        <path d="M98.626,70.578c.583,0,.58-.444.58-.444,0-.13-.173,0-.173,0,0,0-.117.124-.407.124s-.407-.124-.407-.124c0,0-.173-.13-.173,0,0,0-.002.444.58.444Z"/>
      </g>
    </g>
  </g>
  <rect class="cls-10" x="60.73" y="97.965" width="445.77" height="330.535" rx="7.82" ry="7.82"/>
  <g id="_레이어_1-2" data-name=" 레이어 1">
    <path class="cls-16" d="M228.658,234.841h-5.325c-.399,0-.799.133-1.065.399l-3.262,2.996-3.129-3.395v5.325c0,.399.133.799.399,1.065l2.862,3.129-3.262,2.996h5.325c.399,0,.799-.133,1.065-.399l3.262-2.996,3.129,3.395v-5.325c0-.399-.133-.799-.399-1.065l-2.862-3.129,3.262-2.996Z"/>
    <path class="cls-16" d="M165.418,342.016h-5.325c-.399,0-.799.133-1.065.399l-3.262,2.996-3.129-3.395v5.325c0,.399.133.799.399,1.065l2.862,3.129-3.262,2.996h5.325c.399,0,.799-.133,1.065-.399l3.262-2.996,3.129,3.395v-5.325c0-.399-.133-.799-.399-1.065l-2.862-3.129,3.262-2.996Z"/>
    <path class="cls-16" d="M141.453,293.421h-5.325c-.399,0-.799.133-1.065.399l-3.262,2.996-3.129-3.395v5.325c0,.399.133.799.399,1.065l2.862,3.129-3.262,2.996h5.325c.399,0,.799-.133,1.065-.399l3.262-2.996,3.129,3.395v-5.325c0-.399-.133-.799-.399-1.065l-2.862-3.129,3.262-2.996Z"/>
    <path class="cls-16" d="M303.88,280.773h-5.325c-.399,0-.799.133-1.065.399l-3.262,2.996-3.129-3.395v5.325c0,.399.133.799.399,1.065l2.862,3.129-3.262,2.996h5.325c.399,0,.799-.133,1.065-.399l3.262-2.996,3.129,3.395v-5.325c0-.399-.133-.799-.399-1.065l-2.862-3.129,3.262-2.996Z"/>
    <path class="cls-16" d="M444.88,318.773h-5.325c-.399,0-.799.133-1.065.399l-3.262,2.996-3.129-3.395v5.325c0,.399.133.799.399,1.065l2.862,3.129-3.262,2.996h5.325c.399,0,.799-.133,1.065-.399l3.262-2.996,3.129,3.395v-5.325c0-.399-.133-.799-.399-1.065l-2.862-3.129,3.262-2.996Z"/>
    <path class="cls-16" d="M420.88,348.773h-5.325c-.399,0-.799.133-1.065.399l-3.262,2.996-3.129-3.395v5.325c0,.399.133.799.399,1.065l2.862,3.129-3.262,2.996h5.325c.399,0,.799-.133,1.065-.399l3.262-2.996,3.129,3.395v-5.325c0-.399-.133-.799-.399-1.065l-2.862-3.129,3.262-2.996Z"/>
    <path class="cls-16" d="M433.88,390.773h-5.325c-.399,0-.799.133-1.065.399l-3.262,2.996-3.129-3.395v5.325c0,.399.133.799.399,1.065l2.862,3.129-3.262,2.996h5.325c.399,0,.799-.133,1.065-.399l3.262-2.996,3.129,3.395v-5.325c0-.399-.133-.799-.399-1.065l-2.862-3.129,3.262-2.996Z"/>
    <path class="cls-16" d="M261.276,306.069h-5.325c-.399,0-.799.133-1.065.399l-3.262,2.996-3.129-3.395v5.325c0,.399.133.799.399,1.065l2.862,3.129-3.262,2.996h5.325c.399,0,.799-.133,1.065-.399l3.262-2.996,3.129,3.395v-5.325c0-.399-.133-.799-.399-1.065l-2.862-3.129,3.262-2.996h0Z"/>
    <path class="cls-16" d="M217.341,329.368h-5.325c-.399,0-.799.133-1.065.399l-3.262,2.996-3.129-3.395v5.325c0,.399.133.799.399,1.065l2.862,3.129-3.262,2.996h5.325c.399,0,.799-.133,1.065-.399l3.262-2.996,3.129,3.395v-5.325c0-.399-.133-.799-.399-1.065l-2.862-3.129,3.262-2.996Z"/>
    <path class="cls-16" d="M323.185,230.181h-5.325c-.399,0-.799.133-1.065.399l-3.262,2.996-3.129-3.395v5.325c0,.399.133.799.399,1.065l2.862,3.129-3.262,2.996h5.325c.399,0,.799-.133,1.065-.399l3.262-2.996,3.129,3.395v-5.325c0-.399-.133-.799-.399-1.065l-2.862-3.129,3.262-2.996Z"/>
    <path class="cls-16" d="M300.552,345.344h-5.325c-.399,0-.799.133-1.065.399l-3.262,2.996-3.129-3.395v5.325c0,.399.133.799.399,1.065l2.862,3.129-3.262,2.996h5.325c.399,0,.799-.133,1.065-.399l3.262-2.996,3.129,3.395v-5.325c0-.399-.133-.799-.399-1.065l-2.862-3.129,3.262-2.996Z"/>
    <path class="cls-16" d="M158.761,391.942h-5.325c-.399,0-.799.133-1.065.399l-3.262,2.996-3.129-3.395v5.325c0,.399.133.799.399,1.065l2.862,3.129-3.262,2.996h5.325c.399,0,.799-.133,1.065-.399l3.262-2.996,3.129,3.395v-5.325c0-.399-.133-.799-.399-1.065l-2.862-3.129,3.262-2.996h0Z"/>
    <path class="cls-16" d="M104.841,348.007h-5.325c-.399,0-.799.133-1.065.399l-3.262,2.996-3.129-3.395v5.325c0,.399.133.799.399,1.065l2.862,3.129-3.262,2.996h5.325c.399,0,.799-.133,1.065-.399l3.262-2.996,3.129,3.395v-5.325c0-.399-.133-.799-.399-1.065l-2.862-3.129,3.262-2.996Z"/>
    <path class="cls-16" d="M307.209,312.06h-5.325c-.399,0-.799.133-1.065.399l-3.262,2.996-3.129-3.395v5.325c0,.399.133.799.399,1.065l2.862,3.129-3.262,2.996h5.325c.399,0,.799-.133,1.065-.399l3.262-2.996,3.129,3.395v-5.325c0-.399-.133-.799-.399-1.065l-2.862-3.129,3.262-2.996Z"/>
    <path class="cls-16" d="M391.209,404.06h-5.325c-.399,0-.799.133-1.065.399l-3.262,2.996-3.129-3.395v5.325c0,.399.133.799.399,1.065l2.862,3.129-3.262,2.996h5.325c.399,0,.799-.133,1.065-.399l3.262-2.996,3.129,3.395v-5.325c0-.399-.133-.799-.399-1.065l-2.862-3.129,3.262-2.996Z"/>
    <path class="cls-16" d="M122.148,385.286h-5.325c-.399,0-.799.133-1.065.399l-3.262,2.996-3.129-3.395v5.325c0,.399.133.799.399,1.065l2.862,3.129-3.262,2.996h5.325c.399,0,.799-.133,1.065-.399l3.262-2.996,3.129,3.395v-5.325c0-.399-.133-.799-.399-1.065l-2.862-3.129,3.262-2.996Z"/>
    <path class="cls-16" d="M98.184,397.934h-5.325c-.399,0-.799.133-1.065.399l-3.262,2.996-3.129-3.395v5.325c0,.399.133.799.399,1.065l2.862,3.129-3.262,2.996h5.325c.399,0,.799-.133,1.065-.399l3.262-2.996,3.129,3.395v-5.325c0-.399-.133-.799-.399-1.065l-2.862-3.129,3.262-2.996Z"/>
    <path class="cls-16" d="M185.388,372.638h-5.325c-.399,0-.799.133-1.065.399l-3.262,2.996-3.129-3.395v5.325c0,.399.133.799.399,1.065l2.862,3.129-3.262,2.996h5.325c.399,0,.799-.133,1.065-.399l3.262-2.996,3.129,3.395v-5.325c0-.399-.133-.799-.399-1.065l-2.862-3.129,3.262-2.996Z"/>
    <path class="cls-16" d="M261.276,397.934h-5.325c-.399,0-.799.133-1.065.399l-3.262,2.996-3.129-3.395v5.325c0,.399.133.799.399,1.065l2.862,3.129-3.262,2.996h5.325c.399,0,.799-.133,1.065-.399l3.262-2.996,3.129,3.395v-5.325c0-.399-.133-.799-.399-1.065l-2.862-3.129,3.262-2.996h0Z"/>
    <path class="cls-16" d="M210.684,385.286h-5.325c-.399,0-.799.133-1.065.399l-3.262,2.996-3.129-3.395v5.325c0,.399.133.799.399,1.065l2.862,3.129-3.262,2.996h5.325c.399,0,.799-.133,1.065-.399l3.262-2.996,3.129,3.395v-5.325c0-.399-.133-.799-.399-1.065l-2.862-3.129,3.262-2.996Z"/>
    <path class="cls-16" d="M343.156,397.268h-5.325c-.399,0-.799.133-1.065.399l-3.262,2.996-3.129-3.395v5.325c0,.399.133.799.399,1.065l2.862,3.129-3.262,2.996h5.325c.399,0,.799-.133,1.065-.399l3.262-2.996,3.129,3.395v-5.325c0-.399-.133-.799-.399-1.065l-2.862-3.129,3.262-2.996h0Z"/>
    <path class="cls-16" d="M310.537,397.934h-5.325c-.399,0-.799.133-1.065.399l-3.262,2.996-3.129-3.395v5.325c0,.399.133.799.399,1.065l2.862,3.129-3.262,2.996h5.325c.399,0,.799-.133,1.065-.399l3.262-2.996,3.129,3.395v-5.325c0-.399-.133-.799-.399-1.065l-2.862-3.129,3.262-2.996Z"/>
    <path class="cls-16" d="M330.508,379.294h-5.325c-.399,0-.799.133-1.065.399l-3.262,2.996-3.129-3.395v5.325c0,.399.133.799.399,1.065l2.862,3.129-3.262,2.996h5.325c.399,0,.799-.133,1.065-.399l3.262-2.996,3.129,3.395v-5.325c0-.399-.133-.799-.399-1.065l-2.862-3.129,3.262-2.996Z"/>
    <path class="cls-16" d="M384.508,357.294h-5.325c-.399,0-.799.133-1.065.399l-3.262,2.996-3.129-3.395v5.325c0,.399.133.799.399,1.065l2.862,3.129-3.262,2.996h5.325c.399,0,.799-.133,1.065-.399l3.262-2.996,3.129,3.395v-5.325c0-.399-.133-.799-.399-1.065l-2.862-3.129,3.262-2.996Z"/>
    <path class="cls-16" d="M245.966,366.646h-5.325c-.399,0-.799.133-1.065.399l-3.262,2.996-3.129-3.395v5.325c0,.399.133.799.399,1.065l2.862,3.129-3.262,2.996h5.325c.399,0,.799-.133,1.065-.399l3.262-2.996,3.129,3.395v-5.325c0-.399-.133-.799-.399-1.065l-2.862-3.129,3.262-2.996Z"/>
    <path class="cls-16" d="M225.995,391.277h-5.325c-.399,0-.799.133-1.065.399l-3.262,2.996-3.129-3.395v5.325c0,.399.133.799.399,1.065l2.862,3.129-3.262,2.996h5.325c.399,0,.799-.133,1.065-.399l3.262-2.996,3.129,3.395v-5.325c0-.399-.133-.799-.399-1.065l-2.862-3.129,3.262-2.996Z"/>
    <path class="cls-16" d="M185.388,403.259h-5.325c-.399,0-.799.133-1.065.399l-3.262,2.996-3.129-3.395v5.325c0,.399.133.799.399,1.065l2.862,3.129-3.262,2.996h5.325c.399,0,.799-.133,1.065-.399l3.262-2.996,3.129,3.395v-5.325c0-.399-.133-.799-.399-1.065l-2.862-3.129,3.262-2.996Z"/>
    <path class="cls-16" d="M261.276,348.007h-5.325c-.399,0-.799.133-1.065.399l-3.262,2.996-3.129-3.395v5.325c0,.399.133.799.399,1.065l2.862,3.129-3.262,2.996h5.325c.399,0,.799-.133,1.065-.399l3.262-2.996,3.129,3.395v-5.325c0-.399-.133-.799-.399-1.065l-2.862-3.129,3.262-2.996h0Z"/>
    <path class="cls-16" d="M323.185,360.655h-5.325c-.399,0-.799.133-1.065.399l-3.262,2.996-3.129-3.395v5.325c0,.399.133.799.399,1.065l2.862,3.129-3.262,2.996h5.325c.399,0,.799-.133,1.065-.399l3.262-2.996,3.129,3.395v-5.325c0-.399-.133-.799-.399-1.065l-2.862-3.129,3.262-2.996Z"/>
    <path class="cls-16" d="M274.59,391.277h-5.325c-.399,0-.799.133-1.065.399l-3.262,2.996-3.129-3.395v5.325c0,.399.133.799.399,1.065l2.862,3.129-3.262,2.996h5.325c.399,0,.799-.133,1.065-.399l3.262-2.996,3.129,3.395v-5.325c0-.399-.133-.799-.399-1.065l-2.862-3.129,3.262-2.996Z"/>
    <path class="cls-16" d="M197.371,247.489h-5.325c-.399,0-.799.133-1.065.399l-3.262,2.996-3.129-3.395v5.325c0,.399.133.799.399,1.065l2.862,3.129-3.262,2.996h5.325c.399,0,.799-.133,1.065-.399l3.262-2.996,3.129,3.395v-5.325c0-.399-.133-.799-.399-1.065l-2.862-3.129,3.262-2.996Z"/>
    <path class="cls-16" d="M190.714,306.069h-5.325c-.399,0-.799.133-1.065.399l-3.262,2.996-3.129-3.395v5.325c0,.399.133.799.399,1.065l2.862,3.129-3.262,2.996h5.325c.399,0,.799-.133,1.065-.399l3.262-2.996,3.129,3.395v-5.325c0-.399-.133-.799-.399-1.065l-2.862-3.129,3.262-2.996Z"/>
    <path class="cls-16" d="M287.238,190.906h-5.325c-.399,0-.799.133-1.065.399l-3.262,2.996-3.129-3.395v5.325c0,.399.133.799.399,1.065l2.862,3.129-3.262,2.996h5.325c.399,0,.799-.133,1.065-.399l3.262-2.996,3.129,3.395v-5.325c0-.399-.133-.799-.399-1.065l-2.862-3.129,3.262-2.996Z"/>
    <path class="cls-16" d="M303.88,127h-5.325c-.399,0-.799.133-1.065.399l-3.262,2.996-3.129-3.395v5.325c0,.399.133.799.399,1.065l2.862,3.129-3.262,2.996h5.325c.399,0,.799-.133,1.065-.399l3.262-2.996,3.129,3.395v-5.325c0-.399-.133-.799-.399-1.065l-2.862-3.129,3.262-2.996Z"/>
    <path class="cls-16" d="M345.818,345.344h-5.325c-.399,0-.799.133-1.065.399l-3.262,2.996-3.129-3.395v5.325c0,.399.133.799.399,1.065l2.862,3.129-3.262,2.996h5.325c.399,0,.799-.133,1.065-.399l3.262-2.996,3.129,3.395v-5.325c0-.399-.133-.799-.399-1.065l-2.862-3.129,3.262-2.996Z"/>
    <path class="cls-16" d="M369.818,302.344h-5.325c-.399,0-.799.133-1.065.399l-3.262,2.996-3.129-3.395v5.325c0,.399.133.799.399,1.065l2.862,3.129-3.262,2.996h5.325c.399,0,.799-.133,1.065-.399l3.262-2.996,3.129,3.395v-5.325c0-.399-.133-.799-.399-1.065l-2.862-3.129,3.262-2.996Z"/>
    <path class="cls-16" d="M384.818,267.344h-5.325c-.399,0-.799.133-1.065.399l-3.262,2.996-3.129-3.395v5.325c0,.399.133.799.399,1.065l2.862,3.129-3.262,2.996h5.325c.399,0,.799-.133,1.065-.399l3.262-2.996,3.129,3.395v-5.325c0-.399-.133-.799-.399-1.065l-2.862-3.129,3.262-2.996Z"/>
    <path class="cls-16" d="M433.818,270.344h-5.325c-.399,0-.799.133-1.065.399l-3.262,2.996-3.129-3.395v5.325c0,.399.133.799.399,1.065l2.862,3.129-3.262,2.996h5.325c.399,0,.799-.133,1.065-.399l3.262-2.996,3.129,3.395v-5.325c0-.399-.133-.799-.399-1.065l-2.862-3.129,3.262-2.996Z"/>
    <path class="cls-16" d="M162.089,217.533h-5.325c-.399,0-.799.133-1.065.399l-3.262,2.996-3.129-3.395v5.325c0,.399.133.799.399,1.065l2.862,3.129-3.262,2.996h5.325c.399,0,.799-.133,1.065-.399l3.262-2.996,3.129,3.395v-5.325c0-.399-.133-.799-.399-1.065l-2.862-3.129,3.262-2.996h0Z"/>
    <g>
      <rect class="cls-11" x="222.135" y="275.422" width="132.471" height="84.542" rx="6.257" ry="6.257"/>
      <rect class="cls-2" x="222.135" y="275.422" width="132.471" height="84.542" rx="6.257" ry="6.257"/>
    </g>
    <g>
      <g>
        <path class="cls-16" d="M349.015,370.682h-.266c-.666-.333-1.331-.732-1.864-1.198-.266-.2-.266-.533-.067-.732.2-.266.533-.266.732-.067.533.399,1.132.799,1.731,1.132.266.133.399.466.2.732-.067.2-.266.266-.466.266v-.133Z"/>
        <path class="cls-16" d="M344.421,366.421c-.2,0-.333-.067-.466-.266-.799-1.265-1.331-2.596-1.598-3.994,0-.266.133-.599.399-.666.266,0,.599.133.666.399.266,1.265.799,2.53,1.465,3.661.133.266.067.599-.2.732-.067,0-.2.067-.266.067v.067ZM342.757,358.5h-.067c-.266,0-.533-.333-.466-.599.2-1.465.666-2.796,1.331-4.127.133-.266.466-.333.732-.2.266.133.333.466.2.732-.599,1.198-.999,2.463-1.198,3.728,0,.266-.266.466-.533.466h0ZM364.525,353.707c-.2,0-.333-.067-.466-.266-.732-1.132-1.598-2.064-2.663-2.862-.266-.2-.266-.533-.067-.732.2-.266.533-.266.732-.067,1.132.865,2.13,1.93,2.929,3.195.133.266.067.599-.133.732-.067,0-.2.067-.266.067l-.067-.067ZM346.551,351.31c-.133,0-.266,0-.399-.2-.2-.2-.2-.533,0-.732,1.065-.999,2.33-1.731,3.661-2.33.266-.133.599,0,.732.266s0,.599-.266.732c-1.198.533-2.33,1.198-3.328,2.13-.133.067-.266.133-.333.133h-.067ZM358.134,348.781h-.133c-1.265-.399-2.53-.533-3.861-.533-.266,0-.599-.2-.599-.533,0-.266.2-.533.466-.533h.466c1.265,0,2.53.2,3.728.599.266.067.466.399.333.666-.067.2-.266.399-.533.399l.133-.067Z"/>
        <path class="cls-16" d="M366.389,359.698c-.266,0-.533-.2-.533-.533,0-.666-.133-1.398-.266-2.064,0-.266.133-.599.399-.666.266,0,.599.133.666.399.133.732.266,1.465.266,2.263,0,.266-.2.533-.533.533h0v.067Z"/>
      </g>
      <g>
        <polygon points="354.407 360.43 358.401 387.856 364.658 381.532 370.117 390.253 374.244 387.657 369.118 379.202 377.972 377.339 354.54 359.365 354.407 360.43"/>
        <path class="cls-13" d="M370.583,391.052c-.932,0-1.864-.466-2.396-1.331l-3.528-5.925-4.793,5.192c-.466.466-1.065.666-1.731.466-.599-.2-1.065-.732-1.132-1.331l-3.595-27.559c-.067-.666.2-1.265.799-1.598.599-.333,1.265-.266,1.797.067l22.7,16.775c.533.399.732,1.065.599,1.664s-.666,1.132-1.265,1.265l-6.99,1.465,3.462,5.925c.399.599.466,1.398.266,2.064-.2.732-.666,1.331-1.331,1.664l-1.664.932c-.399.266-.932.333-1.398.333l.2-.067ZM365.058,380.134l4.993,8.454c.133.266.533.399.865.2l1.598-.932c.133-.067.266-.2.266-.333v-.399l-5.059-8.521,8.787-1.797-20.769-15.377,3.262,25.229,5.991-6.524h.067ZM377.439,377.538h0ZM355.605,360.23h0Z"/>
      </g>
    </g>
  </g>
  <g>
    <rect class="cls-17" x="454" y="211.222" width="355" height="217.778" rx="12" ry="12"/>
    <g>
      <circle class="cls-7" cx="710.505" cy="326.162" r="62.044"/>
      <path class="cls-6" d="M767.673,350.312c-9.419,22.269-31.469,37.894-57.169,37.894-34.266,0-62.044-27.778-62.044-62.044s27.778-62.044,62.044-62.044"/>
    </g>
    <g>
      <rect class="cls-16" x="469.311" y="256.708" width="64.137" height="7.74"/>
      <rect class="cls-16" x="469.311" y="272.874" width="135.102" height="7.74"/>
      <rect class="cls-16" x="469.311" y="289.039" width="44.482" height="7.74"/>
      <rect class="cls-16" x="469.311" y="305.204" width="107.792" height="7.74"/>
      <rect class="cls-16" x="469.311" y="321.369" width="64.137" height="7.74"/>
      <rect class="cls-16" x="469.311" y="337.534" width="135.102" height="7.74"/>
      <rect class="cls-16" x="469.311" y="353.699" width="44.482" height="7.74"/>
      <rect class="cls-16" x="469.311" y="369.865" width="107.792" height="7.74"/>
    </g>
    <g>
      <line class="cls-3" x1="801.244" y1="218.978" x2="782.631" y2="237.591"/>
      <line class="cls-3" x1="801.244" y1="237.591" x2="782.631" y2="218.978"/>
    </g>
  </g>
  <g>
    <rect class="cls-12" x="445" y="93.5" width="67.5" height="67.5" rx="6.553" ry="6.553"/>
    <path class="cls-16" d="M472.612,150.456c-.521,0-1.037-.159-1.474-.468-.679-.479-1.083-1.258-1.083-2.089v-20.95l-14.129-18.815c-.582-.774-.676-1.811-.243-2.677s1.318-1.414,2.287-1.414h41.559c.969,0,1.854.548,2.287,1.414s.339,1.903-.243,2.677l-14.128,18.815v16.582c0,1.081-.681,2.046-1.699,2.409l-12.276,4.368c-.279.099-.568.148-.857.148ZM463.087,109.156l11.569,15.406c.333.443.513.981.513,1.535v18.18l7.163-2.549v-15.632c0-.554.18-1.092.513-1.535l11.568-15.405h-31.325Z"/>
    <rect class="cls-5" x="445" y="93.5" width="67.5" height="67.5" rx="6.553" ry="6.553"/>
  </g>
  <g>
    <g>
      <rect class="cls-12" x="499" y="133.5" width="47.5" height="47.5" rx="6.553" ry="6.553"/>
      <rect class="cls-4" x="499" y="133.5" width="47.5" height="47.5" rx="6.553" ry="6.553"/>
    </g>
    <g>
      <path class="cls-16" d="M529.989,142.048l4.211,6.103c.709,1.027.14,2.445-1.082,2.698l-7.353,1.522c-.811.168-1.674-.24-1.956-1.019-.068-.186-.099-.375-.099-.559,0-.757.53-1.435,1.3-1.594l2.151-.445c-1.238-.483-2.562-.743-3.912-.743-5.936,0-10.765,4.829-10.765,10.765,0,5.936,4.829,10.765,10.765,10.765,5.936,0,10.765-4.829,10.765-10.765,0-1.017.825-1.842,1.842-1.842s1.842.825,1.842,1.842c0,7.967-6.481,14.448-14.448,14.448-7.967,0-14.448-6.481-14.448-14.448,0-7.967,6.481-14.448,14.448-14.448,1.704,0,3.381.303,4.957.878l-.961-1.393c-.525-.76-.315-1.809.476-2.307.754-.474,1.761-.191,2.267.543Z"/>
      <path class="cls-16" d="M523.25,173.607c-8.178,0-14.831-6.654-14.831-14.832s6.654-14.831,14.831-14.831c1.357,0,2.698.185,4.001.551l-.32-.465c-.315-.456-.427-1.006-.315-1.549s.432-1.004.903-1.3c.899-.565,2.148-.274,2.785.649l4.211,6.102c.406.589.489,1.337.224,2-.266.664-.843,1.146-1.543,1.291l-7.353,1.522c-1.022.213-2.056-.33-2.394-1.264-.081-.224-.122-.455-.122-.69,0-.948.676-1.777,1.606-1.969l.709-.147c-.786-.189-1.586-.284-2.392-.284-5.725,0-10.382,4.657-10.382,10.382s4.657,10.382,10.382,10.382,10.382-4.658,10.382-10.382c0-1.227.998-2.225,2.225-2.225s2.225.998,2.225,2.225c0,8.178-6.654,14.832-14.831,14.832ZM523.25,144.71c-7.756,0-14.065,6.31-14.065,14.065s6.309,14.065,14.065,14.065,14.065-6.31,14.065-14.065c0-.804-.654-1.458-1.458-1.458s-1.458.654-1.458,1.458c0,6.147-5.001,11.148-11.148,11.148s-11.148-5.001-11.148-11.148,5.001-11.148,11.148-11.148c1.38,0,2.742.259,4.051.769l1.205.47-3.417.708c-.577.119-.995.632-.995,1.219,0,.145.025.289.076.429.209.577.86.91,1.517.774l7.353-1.522c.454-.094.814-.395.987-.826.173-.431.121-.898-.143-1.28l-4.21-6.103c-.407-.59-1.189-.785-1.748-.435-.292.183-.491.47-.56.806-.07.336,0,.677.195.959l1.645,2.383-1.131-.412c-1.554-.567-3.178-.855-4.826-.855Z"/>
    </g>
  </g>
</svg>