<?xml version="1.0" encoding="UTF-8"?>
<svg id="_레이어_1" data-name="레이어_1" xmlns="http://www.w3.org/2000/svg" xmlns:xlink="http://www.w3.org/1999/xlink" version="1.1" viewBox="0 0 406.284 270.119">
  <!-- Generator: Adobe Illustrator 29.0.0, SVG Export Plug-In . SVG Version: 2.1.0 Build 186)  -->
  <defs>
    <style>
      .st0 {
        fill: #261e1c;
      }

      .st1 {
        fill: #898a8b;
      }

      .st2 {
        fill: url(#_무제_그라디언트_4);
      }

      .st3 {
        fill: url(#_무제_그라디언트_41);
      }
    </style>
    <linearGradient id="_무제_그라디언트_4" data-name="무제 그라디언트 4" x1="340.864" y1="-25.096" x2="528.296" y2="-25.096" gradientTransform="translate(-682.182 69.53) scale(2.016 -2.016)" gradientUnits="userSpaceOnUse">
      <stop offset="0" stop-color="#538f4b"/>
      <stop offset="1" stop-color="#244188"/>
    </linearGradient>
    <linearGradient id="_무제_그라디언트_41" data-name="무제 그라디언트 4" x1="538.427" y1="-69.815" x2="348.511" y2="-69.815" xlink:href="#_무제_그라디언트_4"/>
  </defs>
  <g>
    <path class="st2" d="M382.847,109.722c-1.445-40.871-91.855-56.343-201.92-34.565C103.638,90.455,37.225,120.05,5.001,150.474l40.44,10.997c30.586-18.399,72.967-35.212,120.242-46.176,96.244-22.349,176.315-12.075,178.859,22.943.83,11.428-6.728,24.08-20.614,36.72,37.001-20.878,59.652-44.343,58.919-65.236h0Z"/>
    <path class="st3" d="M23.437,220.681c1.445,40.866,91.845,56.348,201.92,34.559,77.279-15.294,143.702-44.893,175.927-75.312l-40.451-10.997c-30.575,18.398-72.966,35.206-120.242,46.175-96.254,22.35-176.325,12.07-178.848-22.936-.83-11.433,6.716-24.08,20.603-36.731-37.001,20.883-59.652,44.348-58.908,65.242h-.001Z"/>
    <path class="st1" d="M127.787,150.943h16.182v20.862h-5.39l-.809-4.857c-2.059,2.372-5.013,5.87-12.075,5.87-9.315,0-17.778-6.679-17.778-20.258,0-10.566,5.865-20.528,18.91-20.484,11.859,0,16.538,7.719,16.98,13.045h-8.097c0-1.504-2.738-6.355-8.452-6.355-5.768,0-11.094,3.989-11.094,13.902,0,10.555,5.757,13.31,11.256,13.31,1.779,0,7.709-.712,9.379-8.517h-9.013v-6.517h0Z"/>
    <path class="st1" d="M162.147,152.453c0-10.83,6.145-13.525,10.512-13.525s10.501,2.695,10.501,13.525-6.134,13.525-10.501,13.525-10.512-2.69-10.512-13.525ZM154.072,152.453c0,18.155,13.466,20.365,18.587,20.365s18.587-2.21,18.587-20.365-13.466-20.376-18.587-20.376-18.587,2.215-18.587,20.376h0Z"/>
    <path class="st1" d="M205.455,152.453c0-10.83,6.145-13.525,10.512-13.525s10.512,2.695,10.512,13.525-6.156,13.525-10.512,13.525-10.512-2.69-10.512-13.525ZM197.379,152.453c0,18.155,13.455,20.365,18.587,20.365s18.597-2.21,18.597-20.365-13.476-20.376-18.597-20.376-18.587,2.215-18.587,20.376h0Z"/>
    <path class="st1" d="M250.542,139.795h7.762c3.45,0,8.895.916,8.895,12.339,0,6.361-2.2,12.975-8.776,12.975h-7.881v-25.314h0ZM242.628,171.805h16.754c12.776,0,16.064-11.972,16.064-20.269,0-7.331-2.695-18.424-15.751-18.424h-17.067v38.693Z"/>
    <g>
      <path class="st0" d="M160.303,184.807c.043,1.035.625,2.997,4.518,2.997,2.113,0,4.452-.442,4.452-2.399,0-1.44-1.595-1.828-3.86-2.291l-2.275-.469c-3.461-.69-6.781-1.364-6.781-5.434,0-2.07,1.283-5.692,8.204-5.692,6.533,0,8.28,3.698,8.312,5.962h-4.28c-.119-.819-.475-2.776-4.356-2.776-1.703,0-3.719.55-3.719,2.216,0,1.439,1.358,1.763,2.253,1.935l5.196,1.11c2.922.615,5.596,1.65,5.596,4.981,0,5.569-6.544,6.059-8.41,6.059-7.784,0-9.132-3.892-9.132-6.199h4.282Z"/>
      <path class="st0" d="M191.138,183.659c0,1.747-.582,4.167-3.795,4.167s-3.806-2.42-3.806-4.167c0-1.758.593-4.189,3.806-4.189s3.795,2.431,3.795,4.189ZM195.417,183.659c0-4.96-3.838-7.223-8.075-7.223-4.259,0-8.075,2.264-8.075,7.223,0,4.932,3.816,7.218,8.075,7.218,4.237,0,8.075-2.286,8.075-7.218Z"/>
      <path class="st0" d="M206.705,190.516h-4.151v-11.137h-2.296v-2.588h2.296v-1.105c0-2.846,1.768-3.919,4.625-3.919,1.218,0,1.79.027,2.146.059v2.906h-1.165c-1.423,0-1.455.383-1.455,1.52v.539h2.706v2.588h-2.706v11.137h0Z"/>
      <path class="st0" d="M220.02,176.791h2.577v2.588h-2.577v7.444c0,.814.022,1.116,1.725,1.116.269,0,.56-.033.852-.049v2.717c-.647.032-1.305.054-1.951.054h-.528c-3.612,0-4.259-1.18-4.259-2.959v-8.323h-2.146v-2.588h2.146v-3.714h4.161v3.714Z"/>
      <path class="st0" d="M245.183,190.516h-4.291l-2.458-10.01h-.054l-2.469,10.01h-4.28l-4.442-13.725h4.409l2.469,9.843h.065l2.232-9.843h4.183l2.383,9.843h.054l2.448-9.843h4.302l-4.55,13.725h0Z"/>
      <path class="st0" d="M264.223,185.588c0,1.666-1.876,2.701-3.709,2.701-.819,0-1.94-.383-1.94-1.655,0-1.482,1.272-1.827,2.814-2.053,1.725-.226,2.415-.464,2.836-.75v1.758h0ZM268.287,180.397c0-3.375-4.064-3.962-6.307-3.962-3.223,0-6.576.587-7.062,4.781h4.022c.108-.787.474-1.897,2.533-1.897,1.079,0,2.749.086,2.749,1.606,0,.776-.819.997-1.466,1.078l-3.73.496c-2.652.329-4.615,1.703-4.615,4.372,0,2.841,2.437,4.005,4.819,4.005,2.814,0,4.161-1.132,5.099-1.989.086.771.151.976.388,1.628h4.485v-.545c-.485-.151-.916-.517-.916-2.145v-7.428h.001Z"/>
      <path class="st0" d="M275.543,176.791h3.978v2.372h.043c.862-1.385,1.822-2.727,4.345-2.727.28,0,.528.016.809.054v3.66c-.356-.059-.809-.059-1.197-.059-3.245,0-3.816,1.758-3.816,3.283v7.143h-4.161v-13.725h0Z"/>
      <path class="st0" d="M293.709,182.284c.248-1.795,1.283-2.879,3.245-2.879,1.337,0,2.975.668,3.202,2.879h-6.447ZM299.984,186.489c-.323.975-1.52,1.504-2.684,1.504-3.342,0-3.59-2.334-3.719-3.358h10.856v-.646c0-6.264-4.291-7.552-7.428-7.552-6.91,0-7.568,5.283-7.568,6.937,0,5.644,3.417,7.504,7.859,7.504,2.717,0,5.865-1.089,6.953-4.388h-4.269Z"/>
    </g>
  </g>
  <g>
    <path class="st0" d="M165.893,43.153h-5.668V13.198l-6.472,3.873v-5.215l7.636-4.62h4.504v35.918h0Z"/>
    <path class="st0" d="M221.81,29.693h-45.37v-4.967h45.37v4.967ZM211.632,22.243h-25.549V5.495h25.441v5.07h-19.821v6.657h19.929v5.021ZM212.058,41.367c0,1.426-.318,2.736-.954,3.948-.636,1.21-1.52,2.242-2.649,3.105-1.097.895-2.412,1.582-3.949,2.062-1.539.482-3.207.725-5.013.725-1.692,0-3.277-.235-4.763-.701-1.485-.464-2.795-1.111-3.924-1.94-1.097-.857-1.97-1.892-2.625-3.105-.65-1.202-.981-2.555-.981-4.046s.31-2.846.932-4.075c.612-1.221,1.474-2.264,2.566-3.129,1.129-.857,2.439-1.528,3.924-2.014,1.485-.474,3.105-.717,4.87-.717,1.739,0,3.369.243,4.906.717,1.539.485,2.873,1.156,4.003,2.014,1.132.865,2.024,1.897,2.679,3.105.649,1.207.978,2.557.978,4.051ZM206.228,41.269c0-1.56-.649-2.803-1.959-3.725-1.31-.933-2.903-1.399-4.776-1.399s-3.433.458-4.684,1.369c-1.259.911-1.884,2.164-1.884,3.755,0,1.552.647,2.782,1.933,3.674,1.288.898,2.838,1.342,4.636,1.342,1.914,0,3.515-.426,4.803-1.27,1.286-.843,1.933-2.097,1.933-3.746h-.002Z"/>
    <path class="st0" d="M269.511,26.812h-45.372v-4.967h26.926c.641-2.086,1.078-4.226,1.331-6.415.243-2.183.402-3.967.475-5.364h-20.196v-5.067h26.128c0,3.048-.14,5.967-.421,8.773-.283,2.795-.744,5.488-1.377,8.072h12.506v4.967h0ZM259.177,50.506h-25.81v-20.414h5.773v5.415h14.312v-5.415h5.725v20.414ZM253.452,45.539v-5.065h-14.312v5.065h14.312Z"/>
  </g>
</svg>