<?xml version="1.0" encoding="UTF-8"?>
<svg xmlns="http://www.w3.org/2000/svg" xmlns:xlink="http://www.w3.org/1999/xlink" version="1.1" viewBox="0 0 1591.078 906.5">
  <!-- Generator: Adobe Illustrator 29.0.0, SVG Export Plug-In . SVG Version: 2.1.0 Build 186)  -->
  <defs>
    <style>
      .st0, .st1, .st2, .st3, .st4 {
        fill: none;
      }

      .st5 {
        fill: #8c8c8c;
        font-size: 11.846px;
      }

      .st5, .st6, .st7, .st8, .st9 {
        font-family: Pretendard-Medium-KSCpc-EUC-H, Pretendard;
        font-weight: 500;
      }

      .st10 {
        mix-blend-mode: multiply;
        opacity: .3;
      }

      .st11, .st12 {
        fill: #1c1c1c;
      }

      .st1, .st2, .st13, .st3, .st4, .st12, .st14 {
        stroke-miterlimit: 10;
      }

      .st1, .st13, .st4, .st12 {
        stroke: #fff;
      }

      .st6 {
        font-size: 15.509px;
      }

      .st2, .st3 {
        stroke-width: 2px;
      }

      .st2, .st14 {
        stroke: #f06400;
      }

      .st13, .st15, .st16, .st17 {
        fill: #f06400;
      }

      .st18 {
        fill: #f6aa00;
      }

      .st19 {
        fill: url(#_무제_그라디언트_123);
        opacity: .82;
      }

      .st20 {
        isolation: isolate;
      }

      .st21 {
        fill: #f6212f;
      }

      .st22, .st14 {
        fill: #ffe8d9;
      }

      .st3 {
        stroke: #231916;
      }

      .st23, .st24, .st25, .st8, .st9 {
        fill: #fff;
      }

      .st26 {
        fill: #231916;
      }

      .st4 {
        stroke-linecap: round;
        stroke-width: 3px;
      }

      .st24 {
        filter: url(#drop-shadow-1);
      }

      .st25 {
        filter: url(#drop-shadow-4);
      }

      .st7 {
        font-size: 21.111px;
      }

      .st27 {
        fill: url(#_무제_그라디언트_11);
        opacity: .31;
      }

      .st28 {
        fill: #354cfa;
      }

      .st8 {
        font-size: 17.41px;
      }

      .st16 {
        filter: url(#drop-shadow-3);
      }

      .st17 {
        filter: url(#drop-shadow-2);
      }

      .st9 {
        font-size: 58.942px;
      }

      .st29 {
        fill: #eee;
      }

      .st30 {
        clip-path: url(#clippath);
      }
    </style>
    <linearGradient id="_무제_그라디언트_11" data-name="무제 그라디언트 11" x1="263.244" y1="504.833" x2="263.244" y2="401.168" gradientUnits="userSpaceOnUse">
      <stop offset="0" stop-color="#000"/>
      <stop offset="1" stop-color="#f06400"/>
    </linearGradient>
    <linearGradient id="_무제_그라디언트_123" data-name="무제 그라디언트 123" x1="263.244" y1="576.704" x2="263.244" y2="435.076" gradientUnits="userSpaceOnUse">
      <stop offset="0" stop-color="#000"/>
      <stop offset="1" stop-color="#848484"/>
    </linearGradient>
    <clipPath id="clippath">
      <circle class="st0" cx="154.744" cy="58.812" r="42.97"/>
    </clipPath>
    <filter id="drop-shadow-1" x="1405.078" y="667.5" width="116" height="116" filterUnits="userSpaceOnUse">
      <feOffset dx="0" dy="0"/>
      <feGaussianBlur result="blur" stdDeviation="5"/>
      <feFlood flood-color="#f06400" flood-opacity=".3"/>
      <feComposite in2="blur" operator="in"/>
      <feComposite in="SourceGraphic"/>
    </filter>
    <filter id="drop-shadow-2" x="1397.078" y="790.5" width="116" height="116" filterUnits="userSpaceOnUse">
      <feOffset dx="0" dy="0"/>
      <feGaussianBlur result="blur1" stdDeviation="5"/>
      <feFlood flood-color="#f06400" flood-opacity=".3"/>
      <feComposite in2="blur1" operator="in"/>
      <feComposite in="SourceGraphic"/>
    </filter>
    <filter id="drop-shadow-3" x="1475.078" y="715.5" width="116" height="116" filterUnits="userSpaceOnUse">
      <feOffset dx="0" dy="0"/>
      <feGaussianBlur result="blur2" stdDeviation="5"/>
      <feFlood flood-color="#f06400" flood-opacity=".3"/>
      <feComposite in2="blur2" operator="in"/>
      <feComposite in="SourceGraphic"/>
    </filter>
    <filter id="drop-shadow-4" x="237.078" y="727.5" width="116" height="116" filterUnits="userSpaceOnUse">
      <feOffset dx="0" dy="0"/>
      <feGaussianBlur result="blur3" stdDeviation="5"/>
      <feFlood flood-color="#f06400" flood-opacity=".3"/>
      <feComposite in2="blur3" operator="in"/>
      <feComposite in="SourceGraphic"/>
    </filter>
  </defs>
  <g class="st20">
    <g id="_레이어_1" data-name="레이어_1">
      <g>
        <image width="1462" height="907" transform="translate(84.078 -.5)" xlink:href="main-1.png"/>
        <rect class="st1" x="1283.411" y="252.5" width="236" height="141" rx="25" ry="25"/>
        <g>
          <text class="st9" transform="translate(1329.972 353.229)"><tspan x="0" y="0">17:50</tspan></text>
          <text class="st5" transform="translate(1326.761 281.84)"><tspan x="0" y="0">Time</tspan></text>
        </g>
        <g>
          <rect class="st1" x="110.411" y="252.5" width="305.667" height="377.745" rx="25" ry="25"/>
          <g>
            <path class="st27" d="M384.226,333.576c-17.072,8.536-21.662,25.237-28.944,41.129-5.676,12.386-17.808,33.098-34.505,27.783-8.971-2.857-13.754-11.859-17.902-19.548-28.108-52.098-58.301,45.964-71.667,60.414-32.571,35.211-71.771-7.635-88.945-36.772v183.79h241.963v-256.796Z"/>
            <g>
              <text class="st8" transform="translate(158.529 303.831)"><tspan x="0" y="0">어제</tspan></text>
              <text class="st8" transform="translate(158.529 334.508)"><tspan x="0" y="0">오늘</tspan></text>
              <circle class="st13" cx="147.669" cy="298.636" r="5.397"/>
              <circle class="st12" cx="147.669" cy="328.179" r="5.397"/>
            </g>
            <path class="st15" d="M204.198,458.885c-1.271,0-2.552-.069-3.847-.208-11.21-1.203-22.943-7.549-34.875-18.863-12.356-11.715-21.074-25.126-25.171-32.077-.637-1.081-.277-2.474.804-3.112,1.082-.637,2.475-.277,3.112.804,19.809,33.608,42.879,47.255,56.616,48.729,10.431,1.119,20.089-3.034,28.703-12.347,3.167-3.423,7.603-12.393,12.739-22.778,11.721-23.699,26.308-53.194,42.815-53.487,7.21-.123,13.872,5.361,19.782,16.315l.122.226c3.966,7.352,8.461,15.686,16.47,18.236,14.861,4.73,26.272-14.612,31.749-26.564,1.152-2.513,2.256-5.094,3.323-7.591,5.694-13.313,11.582-27.079,26.67-34.624,1.123-.561,2.488-.107,3.049,1.016s.106,2.488-1.016,3.049c-13.598,6.799-18.905,19.208-24.524,32.346-1.079,2.522-2.194,5.131-3.37,7.697-8.972,19.578-19.899,29.954-31.273,29.955-1.985,0-3.982-.315-5.987-.954-9.759-3.108-14.933-12.701-19.091-20.409l-.122-.225c-5.038-9.338-10.297-14.012-15.701-13.929-13.74.244-28.236,29.555-38.821,50.957-5.511,11.143-9.864,19.944-13.476,23.85-8.597,9.294-18.229,13.988-28.677,13.988Z"/>
            <g>
              <circle class="st15" cx="344.811" cy="390.673" r="8.522"/>
              <path class="st23" d="M344.811,401.468c-5.952,0-10.795-4.842-10.795-10.795s4.842-10.795,10.795-10.795,10.795,4.842,10.795,10.795-4.842,10.795-10.795,10.795ZM344.811,384.424c-3.446,0-6.249,2.803-6.249,6.249s2.803,6.249,6.249,6.249,6.249-2.803,6.249-6.249-2.803-6.249-6.249-6.249Z"/>
            </g>
            <g>
              <path class="st19" d="M142.262,554.8s28.996,4.264,67.688-51.054c8.529-12.194,14.809-25.502,24.547-37.018,5.69-6.729,12.814-14.769,21.534-17.484,12.208-3.802,14.985,7.083,23.783,12.626,13.417,8.454,24.064-1.718,30.458-13.534,3.286-6.072,9.531-12.014,16.487-13.216,16.142-2.79,25.813,14.994,31.685,27.071,3.409,7.011,16.064,41.752,25.782,39.192v116.828h-241.954l-.009-63.41Z"/>
              <path class="st11" d="M143.861,557.157c-1.109,0-1.766-.084-1.929-.108-1.242-.183-2.1-1.337-1.918-2.579.182-1.238,1.333-2.095,2.566-1.919.18.022,7.137.806,18.504-4.812,19.355-9.566,36.244-29.912,47.003-45.295,3.297-4.713,6.321-9.708,9.246-14.537,4.615-7.622,9.388-15.502,15.429-22.646,6.476-7.659,13.556-15.372,22.593-18.187,9.63-3,14.378,2.027,18.969,6.888,2.021,2.14,4.111,4.353,6.701,5.985,4.043,2.547,8.01,3.337,11.793,2.345,5.499-1.441,10.987-6.782,15.455-15.038,3.097-5.723,9.695-12.921,18.098-14.374,7.878-1.364,15.198,1.551,21.752,8.659,5.233,5.675,9.187,13.122,12.364,19.657.588,1.21,1.405,3.127,2.439,5.555,2.518,5.913,6.323,14.849,10.445,21.926,6.191,10.629,9.428,10.73,10.275,10.507,1.214-.32,2.457.405,2.777,1.619.32,1.214-.405,2.457-1.619,2.777-9.239,2.43-17.94-15.979-26.06-35.047-1.009-2.37-1.806-4.242-2.344-5.349-6.849-14.087-15.678-28.169-29.255-25.825-6.363,1.1-12.056,6.849-14.875,12.059-3.589,6.632-9.677,15.012-18.301,17.272-5.047,1.322-10.218.348-15.368-2.896-3.076-1.938-5.47-4.473-7.582-6.71-4.291-4.543-7.391-7.826-14.313-5.67-7.871,2.451-14.43,9.635-20.474,16.782-5.809,6.87-10.487,14.595-15.011,22.065-2.963,4.892-6.026,9.951-9.409,14.788-33.893,48.456-60.663,52.108-67.951,52.108Z"/>
              <g>
                <circle class="st11" cx="260.443" cy="452.884" r="8.522"/>
                <path class="st23" d="M260.443,463.678c-5.952,0-10.795-4.842-10.795-10.795s4.842-10.795,10.795-10.795,10.795,4.842,10.795,10.795-4.842,10.795-10.795,10.795ZM260.443,446.634c-3.446,0-6.249,2.803-6.249,6.249s2.803,6.249,6.249,6.249,6.249-2.803,6.249-6.249-2.803-6.249-6.249-6.249Z"/>
              </g>
            </g>
          </g>
        </g>
        <g>
          <rect class="st15" x="313.918" y="673.906" width="85" height="85" rx="16.286" ry="16.286"/>
          <g>
            <polygon class="st23" points="366.664 702.108 366.664 708.344 373.569 708.344 373.569 731.775 339.266 731.775 339.266 708.344 346.171 708.344 346.171 702.108 333.03 702.108 333.03 738.012 379.806 738.012 379.806 702.108 366.664 702.108"/>
            <path class="st23" d="M362.124,711.991v-16.881c0-.171-.138-.309-.309-.309h-10.795c-.171,0-.309.138-.309.309v16.881c0,.171-.138.309-.309.309h-5.032c-.275,0-.413.333-.218.527l11.047,11.047c.121.121.316.121.437,0l11.047-11.047c.195-.195.057-.527-.218-.527h-5.032c-.171,0-.309-.138-.309-.309Z"/>
          </g>
        </g>
        <g>
          <rect class="st1" x="436.078" y="252.5" width="571" height="615" rx="25" ry="25"/>
          <g>
            <path class="st15" d="M782.219,783.877h-11.103c-.829,0-1.627.31-2.239.87l-6.749,6.177-6.449-7.047v11.103c0,.829.31,1.627.87,2.239l5.936,6.487-6.806,6.229h11.103c.829,0,1.627-.31,2.239-.87l6.749-6.177,6.449,7.047v-11.103c0-.829-.31-1.627-.87-2.239l-5.936-6.487,6.806-6.229Z"/>
            <path class="st15" d="M642.787,735.775h-14.842c-1.108,0-2.175.415-2.993,1.163l-9.022,8.257-8.62-9.42v14.842c0,1.108.415,2.175,1.163,2.993l7.936,8.671-9.098,8.326h14.842c1.108,0,2.175-.415,2.993-1.163l9.022-8.257,8.62,9.42v-14.842c0-1.108-.415-2.175-1.163-2.993l-7.936-8.671,9.098-8.326Z"/>
            <path class="st15" d="M518.549,674.103h-14.842c-1.108,0-2.175.415-2.993,1.163l-9.022,8.257-8.62-9.42v14.842c0,1.108.415,2.175,1.163,2.993l7.936,8.671-9.098,8.326h14.842c1.108,0,2.175-.415,2.993-1.163l9.022-8.257,8.62,9.42v-14.842c0-1.108-.415-2.175-1.163-2.993l-7.936-8.671,9.098-8.326Z"/>
            <path class="st15" d="M855.745,735.727h-9.978c-.745,0-1.463.279-2.012.782l-6.066,5.551-5.795-6.333v9.978c0,.745.279,1.463.782,2.012l5.335,5.83-6.117,5.598h9.978c.745,0,1.463-.279,2.012-.782l6.066-5.551,5.795,6.333v-9.978c0-.745-.279-1.463-.782-2.012l-5.335-5.83,6.117-5.598Z"/>
            <path class="st15" d="M577.603,750.814h-3.55c-.265,0-.52.099-.716.278l-2.158,1.975-2.062-2.253v3.55c0,.265.099.52.278.716l1.898,2.074-2.176,1.991h3.55c.265,0,.52-.099.716-.278l2.158-1.975,2.062,2.253v-3.55c0-.265-.099-.52-.278-.716l-1.898-2.074,2.176-1.991Z"/>
            <path class="st15" d="M692.734,790.064h-9.978c-.745,0-1.463.279-2.012.782l-6.066,5.551-5.795-6.333v9.978c0,.745.279,1.463.782,2.012l5.335,5.83-6.117,5.598h9.978c.745,0,1.463-.279,2.012-.782l6.066-5.551,5.795,6.333v-9.978c0-.745-.279-1.463-.782-2.012l-5.335-5.83,6.117-5.598Z"/>
            <path class="st15" d="M919.863,761.901h-13.372c-.998,0-1.96.374-2.696,1.048l-8.128,7.439-7.766-8.486v13.372c0,.998.374,1.96,1.048,2.696l7.149,7.812-8.197,7.501h13.372c.998,0,1.96-.374,2.696-1.048l8.128-7.439,7.766,8.486v-13.372c0-.998-.374-1.96-1.048-2.696l-7.149-7.812,8.197-7.501Z"/>
            <path class="st15" d="M598.991,802.37h-4.746c-.354,0-.696.133-.957.372l-2.885,2.64-2.757-3.012v4.746c0,.354.133.696.372.957l2.538,2.773-2.91,2.663h4.746c.354,0,.696-.133.957-.372l2.885-2.64,2.757,3.012v-4.746c0-.354-.133-.696-.372-.957l-2.538-2.773,2.91-2.663Z"/>
            <path class="st15" d="M681,744.931h-4.363c-.326,0-.639.145-.88.406l-2.652,2.882-2.534-3.288v5.181c0,.387.122.759.342,1.045l2.332,3.027-2.674,2.907h4.363c.326,0,.639-.145.88-.406l2.652-2.882,2.534,3.288v-5.181c0-.387-.122-.759-.342-1.045l-2.332-3.027,2.674-2.907Z"/>
            <path class="st15" d="M524.701,793.639h-9.978c-.745,0-1.463.279-2.012.782l-6.066,5.551-5.795-6.333v9.978c0,.745.279,1.463.782,2.012l5.335,5.83-6.117,5.598h9.978c.745,0,1.463-.279,2.012-.782l6.066-5.551,5.795,6.333v-9.978c0-.745-.279-1.463-.782-2.012l-5.335-5.83,6.117-5.598Z"/>
            <path class="st15" d="M726.572,787.803h-4.606c-.344,0-.675.13-.929.365l-2.8,2.593-2.675-2.959v4.662c0,.348.129.683.361.94l2.462,2.723-2.823,2.615h4.606c.344,0,.675-.13.929-.365l2.8-2.593,2.675,2.959v-4.662c0-.348-.129-.683-.361-.94l-2.462-2.723,2.823-2.615Z"/>
            <path class="st15" d="M785.138,720.762h4.723c.353,0,.692.13.952.366l2.871,2.597,2.743-2.962v4.667c0,.348-.132.684-.37.941l-2.525,2.727,2.895,2.618h-4.723c-.353,0-.692-.13-.952-.366l-2.871-2.597-2.743,2.962v-4.667c0-.348.132-.684.37-.941l2.525-2.727-2.895-2.618Z"/>
            <path class="st15" d="M866.473,656.409h4.723c.353,0,.692.13.952.366l2.871,2.597,2.743-2.962v4.667c0,.348-.132.684-.37.941l-2.525,2.727,2.895,2.618h-4.723c-.353,0-.692-.13-.952-.366l-2.871-2.597-2.743,2.962v-4.667c0-.348.132-.684.37-.941l2.525-2.727-2.895-2.618Z"/>
            <path class="st15" d="M830.721,791.372h4.723c.353,0,.692.13.952.366l2.871,2.597,2.743-2.962v4.667c0,.348-.132.684-.37.941l-2.525,2.727,2.895,2.618h-4.723c-.353,0-.692-.13-.952-.366l-2.871-2.597-2.743,2.962v-4.667c0-.348.132-.684.37-.941l2.525-2.727-2.895-2.618Z"/>
            <path class="st15" d="M919.207,348.943h4.723c.353,0,.692.13.952.366l2.871,2.597,2.743-2.962v4.667c0,.348-.132.684-.37.941l-2.525,2.727,2.895,2.618h-4.723c-.353,0-.692-.13-.952-.366l-2.871-2.597-2.743,2.962v-4.667c0-.348.132-.684.37-.941l2.525-2.727-2.895-2.618Z"/>
            <path class="st15" d="M586.478,669.906h-7.293c-.544,0-1.069.204-1.471.571l-4.433,4.057-4.236-4.629v7.293c0,.544.204,1.069.571,1.471l3.899,4.261-4.471,4.091h7.293c.544,0,1.069-.204,1.471-.571l4.433-4.057,4.236,4.629v-7.293c0-.544-.204-1.069-.571-1.471l-3.899-4.261,4.471-4.091Z"/>
            <path class="st15" d="M753.617,697.609h-11.562c-.863,0-1.695.323-2.331.906l-7.028,6.432-6.715-7.338v11.562c0,.863.323,1.695.906,2.331l6.182,6.755-7.087,6.486h11.562c.863,0,1.695-.323,2.331-.906l7.028-6.432,6.715,7.338v-11.562c0-.863-.323-1.695-.906-2.331l-6.182-6.755,7.087-6.486Z"/>
            <path class="st15" d="M913.606,604.654h-11.562c-.863,0-1.695.323-2.331.906l-7.028,6.432-6.715-7.338v11.562c0,.863.323,1.695.906,2.331l6.182,6.755-7.087,6.486h11.562c.863,0,1.695-.323,2.331-.906l7.028-6.432,6.715,7.338v-11.562c0-.863-.323-1.695-.906-2.331l-6.182-6.755,7.087-6.486Z"/>
            <path class="st15" d="M942.208,706.279h-14.842c-1.108,0-2.175.415-2.993,1.163l-9.022,8.257-8.62-9.42v14.842c0,1.108.415,2.175,1.163,2.993l7.936,8.671-9.098,8.326h14.842c1.108,0,2.175-.415,2.993-1.163l9.022-8.257,8.62,9.42v-14.842c0-1.108-.415-2.175-1.163-2.993l-7.936-8.671,9.098-8.326Z"/>
            <path class="st15" d="M960.084,536.086h-5.019c-.375,0-.736.14-1.012.393l-3.051,2.792-2.915-3.185v5.019c0,.375.14.736.393,1.012l2.683,2.932-3.077,2.815h5.019c.375,0,.736-.14,1.012-.393l3.051-2.792,2.915,3.185v-5.019c0-.375-.14-.736-.393-1.012l-2.683-2.932,3.077-2.815Z"/>
            <path class="st15" d="M659.769,388.61h-5.019c-.375,0-.736.14-1.012.393l-3.051,2.792-2.915-3.185v5.019c0,.375.14.736.393,1.012l2.683,2.932-3.077,2.815h5.019c.375,0,.736-.14,1.012-.393l3.051-2.792,2.915,3.185v-5.019c0-.375-.14-.736-.393-1.012l-2.683-2.932,3.077-2.815Z"/>
            <path class="st15" d="M960.084,646.022h-5.019c-.375,0-.736.14-1.012.393l-3.051,2.792-2.915-3.185v5.019c0,.375.14.736.393,1.012l2.683,2.932-3.077,2.815h5.019c.375,0,.736-.14,1.012-.393l3.051-2.792,2.915,3.185v-5.019c0-.375-.14-.736-.393-1.012l-2.683-2.932,3.077-2.815Z"/>
            <path class="st15" d="M513.186,536.086h-5.019c-.375,0-.736.14-1.012.393l-3.051,2.792-2.915-3.185v5.019c0,.375.14.736.393,1.012l2.683,2.932-3.077,2.815h5.019c.375,0,.736-.14,1.012-.393l3.051-2.792,2.915,3.185v-5.019c0-.375-.14-.736-.393-1.012l-2.683-2.932,3.077-2.815Z"/>
            <path class="st15" d="M720.547,756.853h-5.019c-.375,0-.736.14-1.012.393l-3.051,2.792-2.915-3.185v5.019c0,.375.14.736.393,1.012l2.683,2.932-3.077,2.815h5.019c.375,0,.736-.14,1.012-.393l3.051-2.792,2.915,3.185v-5.019c0-.375-.14-.736-.393-1.012l-2.683-2.932,3.077-2.815Z"/>
            <path class="st15" d="M659.769,663.898h-5.019c-.375,0-.736.14-1.012.393l-3.051,2.792-2.915-3.185v5.019c0,.375.14.736.393,1.012l2.683,2.932-3.077,2.815h5.019c.375,0,.736-.14,1.012-.393l3.051-2.792,2.915,3.185v-5.019c0-.375-.14-.736-.393-1.012l-2.683-2.932,3.077-2.815Z"/>
            <path class="st15" d="M955.424,763.699h-5.615c-.419,0-.823.157-1.132.44l-3.413,3.124-3.261-3.564v5.615c0,.419.157.823.44,1.132l3.002,3.281-3.442,3.15h5.615c.419,0,.823-.157,1.132-.44l3.413-3.124,3.261,3.564v-5.615c0-.419-.157-.823-.44-1.132l-3.002-3.281,3.442-3.15Z"/>
            <path class="st15" d="M955.424,810.699h-5.615c-.419,0-.823.157-1.132.44l-3.413,3.124-3.261-3.564v5.615c0,.419.157.823.44,1.132l3.002,3.281-3.442,3.15h5.615c.419,0,.823-.157,1.132-.44l3.413-3.124,3.261,3.564v-5.615c0-.419-.157-.823-.44-1.132l-3.002-3.281,3.442-3.15Z"/>
            <path class="st15" d="M710.61,633.65h-9.978c-.745,0-1.463.279-2.012.782l-6.066,5.551-5.795-6.333v9.978c0,.745.279,1.463.782,2.012l5.335,5.83-6.117,5.598h9.978c.745,0,1.463-.279,2.012-.782l6.066-5.551,5.795,6.333v-9.978c0-.745-.279-1.463-.782-2.012l-5.335-5.83,6.117-5.598Z"/>
            <path class="st15" d="M634.743,601.257h-7.405c-.553,0-1.085.207-1.493.58l-4.501,4.119-4.301-4.699v7.405c0,.553.207,1.085.58,1.493l3.959,4.326-4.539,4.154h7.405c.553,0,1.085-.207,1.493-.58l4.501-4.119,4.301,4.699v-7.405c0-.553-.207-1.085-.58-1.493l-3.959-4.326,4.539-4.154Z"/>
            <path class="st15" d="M778.284,499.658h-9.76c-.728,0-1.431.273-1.968.765l-5.933,5.43-5.669-6.194v9.76c0,.728.273,1.431.765,1.968l5.218,5.702-5.983,5.475h9.76c.728,0,1.431-.273,1.968-.765l5.933-5.43,5.669,6.194v-9.76c0-.728-.273-1.431-.765-1.968l-5.218-5.702,5.983-5.475Z"/>
            <path class="st15" d="M796.282,640.461h-7.349c-.549,0-1.077.205-1.482.576l-4.467,4.088-4.268-4.664v7.349c0,.549.205,1.077.576,1.482l3.929,4.294-4.505,4.123h7.349c.549,0,1.077-.205,1.482-.576l4.467-4.088,4.268,4.664v-7.349c0-.549-.205-1.077-.576-1.482l-3.929-4.294,4.505-4.123Z"/>
            <path class="st15" d="M904.431,476.002h-7.349c-.549,0-1.077.205-1.482.576l-4.467,4.088-4.268-4.664v7.349c0,.549.205,1.077.576,1.482l3.929,4.294-4.505,4.123h7.349c.549,0,1.077-.205,1.482-.576l4.467-4.088,4.268,4.664v-7.349c0-.549-.205-1.077-.576-1.482l-3.929-4.294,4.505-4.123Z"/>
            <path class="st15" d="M716.495,514.066h-7.063c-.527,0-1.035.197-1.424.553l-4.294,3.929-4.102-4.483v7.063c0,.527.197,1.035.553,1.424l3.776,4.126-4.33,3.962h7.063c.527,0,1.035-.197,1.424-.553l4.294-3.929,4.102,4.483v-7.063c0-.527-.197-1.035-.553-1.424l-3.776-4.126,4.33-3.962Z"/>
            <path class="st15" d="M543.126,740.983h-5.204c-.388,0-.763.145-1.049.408l-3.164,2.895-3.023-3.303v5.204c0,.388.145.763.408,1.049l2.783,3.041-3.19,2.92h5.204c.388,0,.763-.145,1.049-.408l3.164-2.895,3.023,3.303v-5.204c0-.388-.145-.763-.408-1.049l-2.783-3.041,3.19-2.92Z"/>
            <path class="st15" d="M830.484,687.131h-9.274c-.692,0-1.359.259-1.87.727l-5.638,5.159-5.387-5.886v9.274c0,.692.259,1.359.727,1.87l4.959,5.418-5.685,5.203h9.274c.692,0,1.359-.259,1.87-.727l5.638-5.159,5.387,5.886v-9.274c0-.692-.259-1.359-.727-1.87l-4.959-5.418,5.685-5.203Z"/>
            <path class="st15" d="M768.745,556.328h-9.978c-.745,0-1.463.279-2.012.782l-6.066,5.551-5.795-6.333v9.978c0,.745.279,1.463.782,2.012l5.335,5.83-6.117,5.598h9.978c.745,0,1.463-.279,2.012-.782l6.066-5.551,5.795,6.333v-9.978c0-.745-.279-1.463-.782-2.012l-5.335-5.83,6.117-5.598Z"/>
          </g>
        </g>
        <g>
          <rect class="st1" x="110.411" y="126.5" width="1409" height="106" rx="25" ry="25"/>
          <g>
            <path class="st21" d="M153.889,210.687c-4.703,0-8.516-3.046-8.516-6.804v-51.579c0-3.758,3.813-6.804,8.516-6.804s8.516,3.046,8.516,6.804v51.579c0,3.758-3.813,6.804-8.516,6.804Z"/>
            <path class="st18" d="M183.935,210.687c-4.703,0-8.516-3.046-8.516-6.804v-51.579c0-3.758,3.813-6.804,8.516-6.804s8.516,3.046,8.516,6.804v51.579c0,3.758-3.813,6.804-8.516,6.804Z"/>
            <path class="st18" d="M213.982,210.687c-4.703,0-8.516-3.046-8.516-6.804v-51.579c0-3.758,3.813-6.804,8.516-6.804s8.516,3.046,8.516,6.804v51.579c0,3.758-3.813,6.804-8.516,6.804Z"/>
            <path class="st18" d="M244.028,210.687c-4.703,0-8.516-3.046-8.516-6.804v-51.579c0-3.758,3.813-6.804,8.516-6.804s8.516,3.046,8.516,6.804v51.579c0,3.758-3.813,6.804-8.516,6.804Z"/>
            <path class="st18" d="M274.074,210.687c-4.703,0-8.516-3.046-8.516-6.804v-51.579c0-3.758,3.813-6.804,8.516-6.804s8.516,3.046,8.516,6.804v51.579c0,3.758-3.813,6.804-8.516,6.804Z"/>
            <path class="st28" d="M304.121,210.687c-4.703,0-8.516-3.046-8.516-6.804v-51.579c0-3.758,3.813-6.804,8.516-6.804s8.516,3.046,8.516,6.804v51.579c0,3.758-3.813,6.804-8.516,6.804Z"/>
            <path class="st28" d="M334.167,210.687c-4.703,0-8.516-3.046-8.516-6.804v-51.579c0-3.758,3.813-6.804,8.516-6.804s8.516,3.046,8.516,6.804v51.579c0,3.758-3.813,6.804-8.516,6.804Z"/>
            <path class="st28" d="M364.214,210.687c-4.703,0-8.516-3.046-8.516-6.804v-51.579c0-3.758,3.813-6.804,8.516-6.804s8.516,3.046,8.516,6.804v51.579c0,3.758-3.813,6.804-8.516,6.804Z"/>
            <path class="st28" d="M394.26,210.687c-4.703,0-8.516-3.046-8.516-6.804v-51.579c0-3.758,3.813-6.804,8.516-6.804s8.516,3.046,8.516,6.804v51.579c0,3.758-3.813,6.804-8.516,6.804Z"/>
            <path class="st28" d="M424.307,210.687c-4.703,0-8.516-3.046-8.516-6.804v-51.579c0-3.758,3.813-6.804,8.516-6.804s8.516,3.046,8.516,6.804v51.579c0,3.758-3.813,6.804-8.516,6.804Z"/>
            <path class="st28" d="M454.353,210.687c-4.703,0-8.516-3.046-8.516-6.804v-51.579c0-3.758,3.813-6.804,8.516-6.804s8.516,3.046,8.516,6.804v51.579c0,3.758-3.813,6.804-8.516,6.804Z"/>
            <path class="st29" d="M484.4,210.687c-4.703,0-8.516-3.046-8.516-6.804v-51.579c0-3.758,3.813-6.804,8.516-6.804s8.516,3.046,8.516,6.804v51.579c0,3.758-3.813,6.804-8.516,6.804Z"/>
            <path class="st29" d="M514.446,210.687c-4.703,0-8.516-3.046-8.516-6.804v-51.579c0-3.758,3.813-6.804,8.516-6.804s8.516,3.046,8.516,6.804v51.579c0,3.758-3.813,6.804-8.516,6.804Z"/>
            <path class="st29" d="M544.493,210.687c-4.703,0-8.516-3.046-8.516-6.804v-51.579c0-3.758,3.813-6.804,8.516-6.804s8.516,3.046,8.516,6.804v51.579c0,3.758-3.813,6.804-8.516,6.804Z"/>
            <path class="st29" d="M574.539,210.687c-4.703,0-8.516-3.046-8.516-6.804v-51.579c0-3.758,3.813-6.804,8.516-6.804s8.516,3.046,8.516,6.804v51.579c0,3.758-3.813,6.804-8.516,6.804Z"/>
            <path class="st29" d="M604.586,210.687c-4.703,0-8.516-3.046-8.516-6.804v-51.579c0-3.758,3.813-6.804,8.516-6.804s8.516,3.046,8.516,6.804v51.579c0,3.758-3.813,6.804-8.516,6.804Z"/>
            <path class="st29" d="M634.632,210.687c-4.703,0-8.516-3.046-8.516-6.804v-51.579c0-3.758,3.813-6.804,8.516-6.804s8.516,3.046,8.516,6.804v51.579c0,3.758-3.813,6.804-8.516,6.804Z"/>
            <path class="st29" d="M664.679,210.687c-4.703,0-8.516-3.046-8.516-6.804v-51.579c0-3.758,3.813-6.804,8.516-6.804s8.516,3.046,8.516,6.804v51.579c0,3.758-3.813,6.804-8.516,6.804Z"/>
            <path class="st29" d="M694.725,210.687c-4.703,0-8.516-3.046-8.516-6.804v-51.579c0-3.758,3.813-6.804,8.516-6.804s8.516,3.046,8.516,6.804v51.579c0,3.758-3.813,6.804-8.516,6.804Z"/>
            <path class="st29" d="M724.772,210.687c-4.703,0-8.516-3.046-8.516-6.804v-51.579c0-3.758,3.813-6.804,8.516-6.804s8.516,3.046,8.516,6.804v51.579c0,3.758-3.813,6.804-8.516,6.804Z"/>
            <path class="st29" d="M754.818,210.687c-4.703,0-8.516-3.046-8.516-6.804v-51.579c0-3.758,3.813-6.804,8.516-6.804s8.516,3.046,8.516,6.804v51.579c0,3.758-3.813,6.804-8.516,6.804Z"/>
            <path class="st29" d="M784.864,210.687c-4.703,0-8.516-3.046-8.516-6.804v-51.579c0-3.758,3.813-6.804,8.516-6.804s8.516,3.046,8.516,6.804v51.579c0,3.758-3.813,6.804-8.516,6.804Z"/>
            <path class="st29" d="M814.911,210.687c-4.703,0-8.516-3.046-8.516-6.804v-51.579c0-3.758,3.813-6.804,8.516-6.804s8.516,3.046,8.516,6.804v51.579c0,3.758-3.813,6.804-8.516,6.804Z"/>
            <path class="st29" d="M844.957,210.687c-4.703,0-8.516-3.046-8.516-6.804v-51.579c0-3.758,3.813-6.804,8.516-6.804s8.516,3.046,8.516,6.804v51.579c0,3.758-3.813,6.804-8.516,6.804Z"/>
            <path class="st29" d="M875.004,210.687c-4.703,0-8.516-3.046-8.516-6.804v-51.579c0-3.758,3.813-6.804,8.516-6.804s8.516,3.046,8.516,6.804v51.579c0,3.758-3.813,6.804-8.516,6.804Z"/>
            <path class="st29" d="M905.05,210.687c-4.703,0-8.516-3.046-8.516-6.804v-51.579c0-3.758,3.813-6.804,8.516-6.804s8.516,3.046,8.516,6.804v51.579c0,3.758-3.813,6.804-8.516,6.804Z"/>
            <path class="st29" d="M935.097,210.687c-4.703,0-8.516-3.046-8.516-6.804v-51.579c0-3.758,3.813-6.804,8.516-6.804s8.516,3.046,8.516,6.804v51.579c0,3.758-3.813,6.804-8.516,6.804Z"/>
            <path class="st29" d="M965.143,210.687c-4.703,0-8.516-3.046-8.516-6.804v-51.579c0-3.758,3.813-6.804,8.516-6.804s8.516,3.046,8.516,6.804v51.579c0,3.758-3.813,6.804-8.516,6.804Z"/>
            <path class="st29" d="M995.19,210.687c-4.703,0-8.516-3.046-8.516-6.804v-51.579c0-3.758,3.813-6.804,8.516-6.804s8.516,3.046,8.516,6.804v51.579c0,3.758-3.813,6.804-8.516,6.804Z"/>
            <path class="st29" d="M1025.236,210.687c-4.703,0-8.516-3.046-8.516-6.804v-51.579c0-3.758,3.813-6.804,8.516-6.804s8.516,3.046,8.516,6.804v51.579c0,3.758-3.813,6.804-8.516,6.804Z"/>
            <path class="st29" d="M1055.283,210.687c-4.703,0-8.516-3.046-8.516-6.804v-51.579c0-3.758,3.813-6.804,8.516-6.804s8.516,3.046,8.516,6.804v51.579c0,3.758-3.813,6.804-8.516,6.804Z"/>
            <path class="st29" d="M1085.329,210.687c-4.703,0-8.516-3.046-8.516-6.804v-51.579c0-3.758,3.813-6.804,8.516-6.804s8.516,3.046,8.516,6.804v51.579c0,3.758-3.813,6.804-8.516,6.804Z"/>
            <path class="st29" d="M1115.376,210.687c-4.703,0-8.516-3.046-8.516-6.804v-51.579c0-3.758,3.813-6.804,8.516-6.804s8.516,3.046,8.516,6.804v51.579c0,3.758-3.813,6.804-8.516,6.804Z"/>
            <path class="st29" d="M1145.422,210.687c-4.703,0-8.516-3.046-8.516-6.804v-51.579c0-3.758,3.813-6.804,8.516-6.804s8.516,3.046,8.516,6.804v51.579c0,3.758-3.813,6.804-8.516,6.804Z"/>
            <path class="st29" d="M1175.469,210.687c-4.703,0-8.516-3.046-8.516-6.804v-51.579c0-3.758,3.813-6.804,8.516-6.804s8.516,3.046,8.516,6.804v51.579c0,3.758-3.813,6.804-8.516,6.804Z"/>
            <path class="st29" d="M1205.515,210.687c-4.703,0-8.516-3.046-8.516-6.804v-51.579c0-3.758,3.813-6.804,8.516-6.804s8.516,3.046,8.516,6.804v51.579c0,3.758-3.813,6.804-8.516,6.804Z"/>
            <path class="st29" d="M1235.561,210.687c-4.703,0-8.516-3.046-8.516-6.804v-51.579c0-3.758,3.813-6.804,8.516-6.804s8.516,3.046,8.516,6.804v51.579c0,3.758-3.813,6.804-8.516,6.804Z"/>
            <path class="st29" d="M1265.608,210.687c-4.703,0-8.516-3.046-8.516-6.804v-51.579c0-3.758,3.813-6.804,8.516-6.804s8.516,3.046,8.516,6.804v51.579c0,3.758-3.813,6.804-8.516,6.804Z"/>
            <path class="st29" d="M1295.654,210.687c-4.703,0-8.516-3.046-8.516-6.804v-51.579c0-3.758,3.813-6.804,8.516-6.804s8.516,3.046,8.516,6.804v51.579c0,3.758-3.813,6.804-8.516,6.804Z"/>
            <path class="st29" d="M1325.701,210.687c-4.703,0-8.516-3.046-8.516-6.804v-51.579c0-3.758,3.813-6.804,8.516-6.804s8.516,3.046,8.516,6.804v51.579c0,3.758-3.813,6.804-8.516,6.804Z"/>
            <path class="st29" d="M1355.747,210.687c-4.703,0-8.516-3.046-8.516-6.804v-51.579c0-3.758,3.813-6.804,8.516-6.804s8.516,3.046,8.516,6.804v51.579c0,3.758-3.813,6.804-8.516,6.804Z"/>
            <path class="st29" d="M1385.794,210.687c-4.703,0-8.516-3.046-8.516-6.804v-51.579c0-3.758,3.813-6.804,8.516-6.804s8.516,3.046,8.516,6.804v51.579c0,3.758-3.813,6.804-8.516,6.804Z"/>
            <path class="st29" d="M1415.84,210.687c-4.703,0-8.516-3.046-8.516-6.804v-51.579c0-3.758,3.813-6.804,8.516-6.804s8.516,3.046,8.516,6.804v51.579c0,3.758-3.813,6.804-8.516,6.804Z"/>
            <path class="st29" d="M1445.887,210.687c-4.703,0-8.516-3.046-8.516-6.804v-51.579c0-3.758,3.813-6.804,8.516-6.804s8.516,3.046,8.516,6.804v51.579c0,3.758-3.813,6.804-8.516,6.804Z"/>
            <path class="st29" d="M1475.933,210.687c-4.703,0-8.516-3.046-8.516-6.804v-51.579c0-3.758,3.813-6.804,8.516-6.804s8.516,3.046,8.516,6.804v51.579c0,3.758-3.813,6.804-8.516,6.804Z"/>
          </g>
        </g>
        <g>
          <path class="st11" d="M154.745,103.146c-24.446,0-44.334-19.888-44.334-44.334s19.888-44.333,44.334-44.333,44.333,19.887,44.333,44.333-19.887,44.334-44.333,44.334ZM154.745,15.842c-23.694,0-42.971,19.276-42.971,42.97s19.277,42.971,42.971,42.971,42.97-19.277,42.97-42.971-19.276-42.97-42.97-42.97Z"/>
          <circle class="st15" cx="154.744" cy="58.812" r="42.97"/>
          <g class="st30">
            <g>
              <path class="st23" d="M154.744,104.2h22.131s-4.37-7.488-4.37-7.488c-3.421-5.341-3.275-15.543-3.275-15.543,8.845.167,9.321-3.323,9.321-3.323,1.023,3.312,7.3,2.873,7.3,2.873,7.456,0,7.618-9.745,7.618-9.745,0-8.797-5.547-12.086-5.547-12.086-.918-22.948-12.016-27.454-12.016-27.454-11.184-6.175-18.283-2.195-20.453-.585h-1.416c-2.17-1.61-9.269-5.59-20.453.585,0,0-11.098,4.506-12.016,27.454,0,0-5.547,3.289-5.547,12.086,0,0,.161,9.745,7.618,9.745,0,0,6.277.438,7.3-2.873,0,0,.476,3.489,9.321,3.323,0,0,.146,10.203-3.275,15.543l-4.37,7.488h22.131Z"/>
              <path class="st11" d="M188.58,58.517c-1-22.362-11.522-27.322-12.381-27.69-2.976-1.638-13.101-6.4-21.061-.584-.096.028-.229.056-.366.066-.01,0-.019,0-.028,0-.01,0-.019,0-.028,0-.137-.01-.269-.038-.366-.066-7.96-5.816-18.085-1.054-21.061.584-.859.367-11.381,5.327-12.381,27.69-1.231.871-5.562,4.503-5.562,12.468.06,3.599,1.869,10.407,8.243,10.406h.003c.241.014,5.315.338,7.341-2.139.232.28.544.579.964.871,1.637,1.138,4.22,1.718,7.684,1.725-.041,2.33-.39,10.169-3.179,14.524l-4.37,7.487c-.122.208-.123.466-.003.675s.343.338.584.338h44.262c.241,0,.464-.129.584-.338s.119-.467-.003-.675l-4.37-7.487c-2.789-4.355-3.138-12.195-3.179-14.524,3.464-.007,6.047-.587,7.684-1.725.42-.291.732-.591.964-.871,2.027,2.477,7.1,2.154,7.341,2.139h.003c6.374,0,8.183-6.807,8.243-10.406,0-7.965-4.331-11.597-5.562-12.468ZM185.85,80.045c-1.647.107-5.948-.106-6.656-2.398,0,0-.232-.493-.166-1.206,0,0-.464,3.622-9.786,4.053h-.653l-.033.664c-.006.425-.108,10.468,3.382,15.917l3.764,6.45h-41.916l3.764-6.45c3.49-5.449,3.388-15.492,3.382-15.917l-.033-.664h-.653c-9.322-.43-9.786-4.053-9.786-4.053.066.712-.166,1.206-.166,1.206-.708,2.292-5.009,2.504-6.656,2.398-6.701,0-6.938-8.712-6.944-9.071,0-8.274,5.005-11.379,5.217-11.506l.315-.177.014-.376c.887-22.164,11.492-26.812,11.596-26.856.025-.01.049-.022.072-.035,2.768-1.528,12.368-6.09,19.727-.634l1.109.962,1.109-.962c7.358-5.455,16.959-.894,19.727.634.024.013.047.025.072.035.105.043,10.709,4.691,11.596,26.856l.014.376.315.177c.211.127,5.217,3.232,5.217,11.506-.007.359-.243,9.071-6.944,9.071Z"/>
            </g>
            <path class="st11" d="M128.51,75.053s2.588,1.385-.964,3.249c0,0-7.039,2.939-9.36-3.481,0,0-1.936-5.706,2.327-12.582.037-.06.078-.116.123-.17.299-.354,1.481-1.698,1.9-1.317,0,0,.314.17.187.788,0,0,.143,9.871,5.786,13.513Z"/>
            <path class="st11" d="M145.387,37.856s7.833,2.34,3.152,8.836c0,0-4.776,8.31-15.57,8.31,0,0-5.015.382-5.015-7.116,0,0-1.337-12.8,6.113-12.37,0,0,5.779.191,11.319,2.34Z"/>
            <circle class="st23" cx="141.826" cy="43.801" r="2.475"/>
            <path class="st11" d="M164.102,37.856s-7.833,2.34-3.152,8.836c0,0,4.776,8.31,15.57,8.31,0,0,5.015.382,5.015-7.116,0,0,1.337-12.8-6.113-12.37,0,0-5.779.191-11.319,2.34Z"/>
            <circle class="st23" cx="167.662" cy="43.801" r="2.475"/>
            <path class="st11" d="M154.688,49.912s2.494-.309,2.494-1.857c0,0,.283-1.083-2.494-1.006-2.777-.077-2.494,1.006-2.494,1.006,0,1.547,2.494,1.857,2.494,1.857Z"/>
            <path class="st11" d="M154.687,53.362c-5.099,0-5.247-1.7-5.247-1.894,0-.186.151-.337.337-.337.181,0,.328.143.336.322.043.335.894,1.179,4.237,1.232v-2.773c0-.186.151-.337.337-.337s.337.151.337.337v3.113c0,.186-.151.337-.337.337ZM150.114,51.469h.007-.007Z"/>
            <path class="st11" d="M154.687,53.362c-.186,0-.337-.151-.337-.337v-3.113c0-.186.151-.337.337-.337s.337.151.337.337v2.773c3.352-.053,4.199-.902,4.237-1.235,0-.186.151-.328.337-.328s.336.16.336.346c0,.194-.147,1.894-5.247,1.894Z"/>
            <path class="st11" d="M154.688,81.958c4.327,0,4.311-1.152,4.311-1.152,0-.337-1.232.153-1.232.153,0,0-.921.323-3.078.323-2.158,0-3.058-.351-3.058-.351,0,0-1.253-.462-1.253-.125,0,0-.016,1.152,4.311,1.152Z"/>
            <path class="st11" d="M180.865,75.053s-2.588,1.385.964,3.249c0,0,7.039,2.939,9.36-3.481,0,0,1.936-5.706-2.327-12.582-.037-.06-.078-.116-.123-.17-.299-.354-1.481-1.698-1.9-1.317,0,0-.314.17-.187.788,0,0-.143,9.871-5.786,13.513Z"/>
          </g>
        </g>
        <g>
          <path class="st23" d="M1348.998,56.327c-.536.12-1.091.188-1.66.199-.053,0-.105.008-.158.008-.514,0-1.015-.053-1.503-.143v15.729h-23.664v-16.976c0-6.524,5.308-11.832,11.832-11.832,2.095,0,4.062.553,5.771,1.513.23-.509.511-.99.835-1.438.329-.456.704-.876,1.117-1.256-1.814-1.081-3.864-1.802-6.061-2.043v-5.638h-3.321v5.638c-7.576.83-13.492,7.264-13.492,15.057v16.976h-3.069v3.321h11.585c-.049.328-.1.655-.1.996,0,3.721,3.016,6.737,6.737,6.737s6.737-3.016,6.737-6.737c0-.341-.052-.669-.1-.996h11.585v-3.321h-3.069v-15.793Z"/>
          <path class="st15" d="M1345.455,52.888c.539.2,1.115.325,1.724.325.001,0,.003,0,.004,0,.575,0,1.118-.117,1.632-.297.714-.25,1.363-.638,1.887-1.162.225-.225.429-.472.608-.737.358-.53.617-1.133.749-1.781.066-.324.101-.66.101-1.004s-.035-.68-.101-1.004c-.133-.649-.391-1.251-.749-1.781-.895-1.325-2.411-2.196-4.131-2.196-1.082,0-2.077.354-2.894.94-.451.324-.846.718-1.167,1.171-.34.48-.586,1.024-.74,1.609-.106.405-.181.823-.181,1.261,0,1.032.314,1.99.851,2.785.578.856,1.423,1.507,2.407,1.872Z"/>
        </g>
        <rect class="st1" x="1027.059" y="252.5" width="236" height="141" rx="25" ry="25"/>
        <g>
          <path class="st23" d="M1482.258,46.079v-4.775h3.183v4.775h-3.183ZM1482.258,76.32v-4.775h3.183v4.775h-3.183ZM1496.582,60.404v-3.183h4.775v3.183h-4.775ZM1466.342,60.404v-3.183h4.775v3.183h-4.775ZM1494.513,50.377l-2.228-2.228,2.785-2.865,2.308,2.308-2.865,2.785ZM1472.628,72.341l-2.308-2.308,2.865-2.785,2.228,2.228-2.785,2.865ZM1495.07,72.341l-2.785-2.865,2.228-2.228,2.865,2.785-2.308,2.308ZM1473.186,50.377l-2.865-2.785,2.308-2.308,2.785,2.865-2.228,2.228ZM1483.849,68.362c-2.653,0-4.907-.928-6.764-2.785-1.857-1.857-2.785-4.112-2.785-6.764s.928-4.907,2.785-6.764c1.857-1.857,4.112-2.785,6.764-2.785s4.907.928,6.764,2.785c1.857,1.857,2.785,4.112,2.785,6.764s-.928,4.907-2.785,6.764c-1.857,1.857-4.112,2.785-6.764,2.785ZM1483.849,65.179c1.777,0,3.283-.617,4.516-1.85,1.233-1.233,1.85-2.739,1.85-4.516s-.617-3.283-1.85-4.516c-1.233-1.233-2.739-1.85-4.516-1.85s-3.283.617-4.516,1.85c-1.233,1.233-1.85,2.739-1.85,4.516s.617,3.283,1.85,4.516,2.739,1.85,4.516,1.85Z"/>
          <rect class="st15" x="1381.774" y="31.606" width="51.412" height="51.412" rx="25.706" ry="25.706"/>
          <path class="st23" d="M1407.48,71.637c-3.979,0-7.361-1.393-10.146-4.178-2.785-2.785-4.178-6.167-4.178-10.146s1.393-7.361,4.178-10.146c2.785-2.785,6.167-4.178,10.146-4.178.371,0,.736.013,1.094.04s.71.066,1.054.119c-1.088.769-1.956,1.771-2.606,3.004-.65,1.233-.975,2.566-.975,3.999,0,2.387.836,4.417,2.507,6.088,1.671,1.671,3.7,2.507,6.088,2.507,1.459,0,2.799-.325,4.019-.975,1.22-.65,2.215-1.519,2.984-2.606.053.345.093.696.119,1.054s.04.723.04,1.094c0,3.979-1.393,7.361-4.178,10.146-2.785,2.785-6.167,4.178-10.146,4.178ZM1407.48,68.453c2.334,0,4.43-.643,6.287-1.93,1.857-1.287,3.21-2.964,4.059-5.033-.531.133-1.061.239-1.592.318s-1.061.119-1.592.119c-3.263,0-6.041-1.147-8.336-3.442-2.295-2.295-3.442-5.073-3.442-8.336,0-.531.04-1.061.119-1.592s.186-1.061.318-1.592c-2.069.849-3.747,2.202-5.033,4.059-1.287,1.857-1.93,3.952-1.93,6.287,0,3.077,1.088,5.703,3.263,7.878,2.175,2.175,4.801,3.263,7.878,3.263Z"/>
          <rect class="st1" x="1374.578" y="26.812" width="142" height="64" rx="32" ry="32"/>
        </g>
        <g>
          <g>
            <image class="st10" width="924" height="1044" transform="translate(16.614 566.867) scale(.256)" xlink:href="main-2.png"/>
            <rect class="st23" x="38.054" y="588.2" width="189.914" height="220.586" rx="8.375" ry="8.375"/>
          </g>
          <g>
            <image class="st10" width="924" height="442" transform="translate(0 558.944) scale(.256)" xlink:href="main-3.png"/>
            <rect class="st23" x="21.439" y="580.276" width="189.914" height="66.713" rx="8.375" ry="8.375"/>
          </g>
          <circle class="st15" cx="55.699" cy="626.449" r="4.948"/>
          <g>
            <path class="st23" d="M65.609,624.498h-19.818v-13.687c0-5.473,4.436-9.909,9.909-9.909h0c5.473,0,9.909,4.436,9.909,9.909v13.687Z"/>
            <path class="st26" d="M66.828,625.718h-22.257v-14.906c0-6.136,4.992-11.129,11.129-11.129s11.129,4.992,11.129,11.129v14.906ZM47.01,623.279h17.379v-12.467c0-4.791-3.898-8.69-8.69-8.69s-8.69,3.898-8.69,8.69v12.467Z"/>
          </g>
          <rect class="st26" x="54.48" y="595.613" width="2.439" height="5.29"/>
          <rect class="st26" x="42.317" y="623.279" width="26.765" height="2.439"/>
          <g>
            <circle class="st15" cx="65.492" cy="605.734" r="3.659"/>
            <path class="st23" d="M65.492,602.076c2.021,0,3.659,1.638,3.659,3.659s-1.638,3.659-3.659,3.659-3.659-1.638-3.659-3.659,1.638-3.659,3.659-3.659M65.492,599.637c-3.362,0-6.098,2.735-6.098,6.098s2.735,6.098,6.098,6.098,6.098-2.735,6.098-6.098-2.735-6.098-6.098-6.098h0Z"/>
          </g>
          <text class="st7" transform="translate(81.664 622.982)"><tspan x="0" y="0">이벤트</tspan></text>
          <text class="st6" transform="translate(92.281 680.529)"><tspan x="0" y="0">액티브 서비스</tspan></text>
          <text class="st6" transform="translate(92.281 732.822)"><tspan x="0" y="0">TPS</tspan></text>
          <circle class="st22" cx="199.924" cy="587.969" r="18.428"/>
          <path class="st15" d="M208.54,588.701h-17.231c-.404,0-.732-.327-.732-.732s.328-.732.732-.732h17.231c.404,0,.732.327.732.732s-.328.732-.732.732Z"/>
          <path class="st15" d="M199.924,597.316c-.404,0-.732-.327-.732-.732v-17.231c0-.404.328-.732.732-.732s.732.327.732.732v17.231c0,.404-.328.732-.732.732Z"/>
          <g>
            <path class="st21" d="M57.515,685.022c-1.008,0-1.825-.817-1.825-1.825v-13.833c0-1.008.817-1.825,1.825-1.825s1.825.817,1.825,1.825v13.833c0,1.008-.817,1.825-1.825,1.825Z"/>
            <path class="st18" d="M63.719,685.022c-1.008,0-1.825-.817-1.825-1.825v-13.833c0-1.008.817-1.825,1.825-1.825s1.825.817,1.825,1.825v13.833c0,1.008-.817,1.825-1.825,1.825Z"/>
            <path class="st28" d="M69.924,685.022c-1.008,0-1.825-.817-1.825-1.825v-13.833c0-1.008.817-1.825,1.825-1.825s1.825.817,1.825,1.825v13.833c0,1.008-.817,1.825-1.825,1.825Z"/>
            <path class="st29" d="M76.128,685.022c-1.008,0-1.825-.817-1.825-1.825v-13.833c0-1.008.817-1.825,1.825-1.825s1.825.817,1.825,1.825v13.833c0,1.008-.817,1.825-1.825,1.825Z"/>
          </g>
          <text class="st6" transform="translate(92.281 781.899)"><tspan x="0" y="0">방문자(비교)</tspan></text>
          <g>
            <g>
              <circle class="st23" cx="64.915" cy="764.302" r="4.04"/>
              <path class="st26" d="M64.915,769.255c-1.323,0-2.567-.515-3.502-1.451-.935-.935-1.45-2.179-1.45-3.502s.515-2.567,1.45-3.502c1.931-1.931,5.074-1.931,7.004,0h0c.935.935,1.45,2.179,1.45,3.502s-.515,2.567-1.451,3.502c-.935.935-2.179,1.451-3.502,1.451ZM64.915,761.177c-.801,0-1.601.305-2.211.914-.59.591-.916,1.376-.916,2.211s.325,1.62.916,2.211c.591.591,1.376.916,2.211.916s1.62-.325,2.211-.916c.591-.591.916-1.376.916-2.211s-.325-1.621-.916-2.211c-.61-.61-1.41-.914-2.211-.914Z"/>
            </g>
            <g>
              <path class="st23" d="M55.066,782.659l1.535-6.858c.473-2.112,2.347-3.613,4.511-3.613h7.606c2.164,0,4.038,1.501,4.511,3.613l1.535,6.858"/>
              <path class="st26" d="M55.956,782.859l-1.782-.399,1.535-6.858c.57-2.547,2.791-4.326,5.402-4.326h7.606c2.61,0,4.832,1.779,5.402,4.326l1.535,6.858-1.782.399-1.535-6.858c-.382-1.707-1.871-2.899-3.62-2.899h-7.606c-1.749,0-3.238,1.192-3.62,2.899l-1.535,6.858Z"/>
            </g>
            <g>
              <polygon class="st15" points="77.643 779.706 74.985 779.706 74.985 777.048 73.159 777.048 73.159 779.706 70.502 779.706 70.502 781.532 73.159 781.532 73.159 784.189 74.985 784.189 74.985 781.532 77.643 781.532 77.643 779.706"/>
              <path class="st23" d="M74.985,777.048v2.657h2.657v1.826h-2.657v2.657h-1.826v-2.657h-2.657v-1.826h2.657v-2.657h1.826M76.811,775.222h-5.478v2.657h-2.657v5.478h2.657v2.657h5.478v-2.657h2.657v-5.478h-2.657v-2.657h0Z"/>
            </g>
          </g>
          <g>
            <path class="st3" d="M60.281,721.033c.137-.225.283-.444.438-.656,1.734-2.381,4.543-3.932,7.707-3.932,5.253,0,9.527,4.274,9.527,9.527s-4.274,9.527-9.527,9.527c-1.756,0-3.402-.477-4.816-1.309"/>
            <circle class="st3" cx="68.426" cy="725.973" r="1.934"/>
            <line class="st3" x1="63.979" y1="712.634" x2="73.507" y2="712.634"/>
            <line class="st3" x1="64.535" y1="720.653" x2="67.314" y2="724.067"/>
            <line class="st3" x1="68.426" y1="712.661" x2="68.426" y2="716.419"/>
            <line class="st3" x1="75.015" y1="718.88" x2="76.921" y2="716.922"/>
            <line class="st2" x1="62.074" y1="724.067" x2="54.452" y2="724.067"/>
            <line class="st2" x1="62.074" y1="727.878" x2="56.357" y2="727.878"/>
            <line class="st2" x1="62.074" y1="731.715" x2="58.263" y2="731.715"/>
          </g>
        </g>
        <rect class="st1" x="1025.578" y="413.5" width="494" height="287" rx="25" ry="25"/>
        <g>
          <path class="st15" d="M1113.078,435.45l58.067,33.525v67.05l-58.067,33.525-58.067-33.525v-67.05l58.067-33.525M1113.078,434.295l-59.067,34.102v68.205l59.067,34.102,59.067-34.102v-68.205l-59.067-34.102h0Z"/>
          <polygon class="st14" points="1300.145 536.602 1300.145 468.398 1241.078 434.295 1182.011 468.398 1182.011 536.602 1241.078 570.705 1300.145 536.602"/>
          <path class="st15" d="M1369.078,435.45l58.067,33.525v67.05l-58.067,33.525-58.067-33.525v-67.05l58.067-33.525M1369.078,434.295l-59.067,34.102v68.205l59.067,34.102,59.067-34.102v-68.205l-59.067-34.102h0Z"/>
          <path class="st15" d="M1176.078,544.45l58.067,33.525v67.05l-58.067,33.525-58.067-33.525v-67.05l58.067-33.525M1176.078,543.295l-59.067,34.102v68.205l59.067,34.102,59.067-34.102v-68.205l-59.067-34.102h0Z"/>
          <path class="st15" d="M1304.078,544.45l58.067,33.525v67.05l-58.067,33.525-58.067-33.525v-67.05l58.067-33.525M1304.078,543.295l-59.067,34.102v68.205l59.067,34.102,59.067-34.102v-68.205l-59.067-34.102h0Z"/>
          <path class="st15" d="M1432.078,544.45l58.067,33.525v67.05l-58.067,33.525-58.067-33.525v-67.05l58.067-33.525M1432.078,543.295l-59.067,34.102v68.205l59.067,34.102,59.067-34.102v-68.205l-59.067-34.102h0Z"/>
          <g>
            <rect class="st15" x="1200.078" y="483.205" width="82" height="13"/>
            <rect class="st15" x="1200.511" y="505.205" width="82" height="3"/>
            <rect class="st15" x="1200.511" y="512.205" width="49.68" height="3"/>
            <rect class="st15" x="1200.511" y="519.333" width="66" height="2.744"/>
            <rect class="st15" x="1200.511" y="526.205" width="13" height="3"/>
          </g>
        </g>
        <circle class="st15" cx="1143.992" cy="323.1" r="28.085"/>
        <g>
          <line class="st4" x1="1144.759" y1="307.938" x2="1144.759" y2="338.118"/>
          <line class="st4" x1="1159.849" y1="323.028" x2="1129.669" y2="323.028"/>
        </g>
        <g>
          <rect class="st24" x="1420.231" y="682.653" width="85" height="85" rx="15.256" ry="15.256"/>
          <path class="st15" d="M1462.731,713.149c-6.633,0-12.005,5.372-12.005,12.005s5.372,12.005,12.005,12.005,12.005-5.372,12.005-12.005-5.372-12.005-12.005-12.005ZM1441.723,734.156h-6.002v12.005c0,3.301,2.701,6.002,6.002,6.002h12.005v-6.002h-12.005v-12.005ZM1441.723,704.145h12.005v-6.002h-12.005c-3.301,0-6.002,2.701-6.002,6.002v12.005h6.002v-12.005ZM1483.739,698.143h-12.005v6.002h12.005v12.005h6.002v-12.005c0-3.301-2.701-6.002-6.002-6.002ZM1483.739,746.161h-12.005v6.002h12.005c3.301,0,6.002-2.701,6.002-6.002v-12.005h-6.002v12.005Z"/>
        </g>
        <g>
          <rect class="st17" x="1412.231" y="805.653" width="85" height="85" rx="15.256" ry="15.256"/>
          <g>
            <path class="st23" d="M1454.731,872.973c-13.685,0-24.819-11.134-24.819-24.819s11.134-24.821,24.819-24.821,24.819,11.134,24.819,24.821-11.134,24.819-24.819,24.819ZM1454.731,827.63c-11.316,0-20.522,9.207-20.522,20.524s9.205,20.522,20.522,20.522,20.522-9.205,20.522-20.522-9.205-20.524-20.522-20.524Z"/>
            <g>
              <rect class="st23" x="1451.897" y="833.984" width="5.668" height="17.003"/>
              <rect class="st23" x="1451.897" y="856.654" width="5.668" height="5.668"/>
            </g>
          </g>
        </g>
        <g>
          <rect class="st16" x="1490.231" y="730.653" width="85" height="85" rx="15.256" ry="15.256"/>
          <g>
            <path class="st23" d="M1559.741,800.162h-54.02v-54.018h54.02v54.018ZM1510.608,795.275h44.245v-44.243h-44.245v44.243Z"/>
            <g>
              <line class="st23" x1="1519.629" y1="760.052" x2="1545.833" y2="786.255"/>
              <rect class="st23" x="1530.287" y="754.626" width="4.887" height="37.057" transform="translate(-97.776 1310.256) rotate(-45)"/>
            </g>
            <g>
              <line class="st23" x1="1545.833" y1="760.052" x2="1519.629" y2="786.255"/>
              <rect class="st23" x="1514.202" y="770.711" width="37.057" height="4.887" transform="translate(-97.776 1310.256) rotate(-45)"/>
            </g>
          </g>
        </g>
        <g>
          <rect class="st25" x="252.925" y="742.653" width="85" height="85" rx="15.256" ry="15.256"/>
          <g>
            <g>
              <rect class="st15" x="298.926" y="790.953" width="18.385" height="18.385"/>
              <path class="st15" d="M318.385,810.412h-20.534v-20.534h20.534v20.534ZM300,808.263h16.237v-16.237h-16.237v16.237Z"/>
            </g>
            <g>
              <g>
                <path class="st15" d="M319.609,788.365h-2.298v-22.402c0-1.427-1.16-2.588-2.588-2.588h-21.543v-2.298h21.543c2.693,0,4.886,2.193,4.886,4.886v22.402Z"/>
                <path class="st15" d="M320.683,789.439h-4.446v-23.476c0-.835-.678-1.513-1.513-1.513h-22.618v-4.448h22.618c3.286,0,5.959,2.673,5.959,5.961v23.476ZM318.385,787.29h.149v-21.327c0-2.103-1.71-3.813-3.811-3.813h-20.469v.151h20.469c2.019,0,3.662,1.643,3.662,3.662v21.327Z"/>
              </g>
              <g>
                <path class="st15" d="M291.742,809.338h-15.508c-2.693,0-4.886-2.193-4.886-4.886v-21.543h2.298v21.543c0,1.427,1.16,2.588,2.588,2.588h15.508v2.298Z"/>
                <path class="st15" d="M292.815,810.412h-16.581c-3.288,0-5.961-2.673-5.961-5.959v-22.618h4.448v22.618c0,.835.678,1.513,1.513,1.513h16.581v4.446ZM272.422,783.983v20.469c0,2.1,1.71,3.811,3.813,3.811h14.432v-.149h-14.432c-2.019,0-3.662-1.643-3.662-3.662v-20.469h-.151Z"/>
              </g>
              <g>
                <polygon class="st15" points="273.646 778.313 271.348 778.313 271.348 761.077 288.584 761.077 288.584 763.375 273.646 763.375 273.646 778.313"/>
                <path class="st15" d="M274.721,779.388h-4.448v-19.386h19.386v4.448h-14.938v14.938ZM272.422,777.239h.151v-14.938h14.938v-.151h-15.089v15.089Z"/>
              </g>
            </g>
            <g>
              <rect class="st15" x="278.817" y="759.132" width="2.298" height="21.125" transform="translate(-462.256 423.404) rotate(-45)"/>
              <path class="st15" d="M286.623,779.495l-16.457-16.457,3.143-3.143,16.457,16.457-3.143,3.143ZM273.204,763.038l13.419,13.419.105-.105-13.419-13.419-.105.105Z"/>
            </g>
            <g>
              <g>
                <rect class="st15" x="295.478" y="792.102" width="22.981" height="16.087"/>
                <path class="st15" d="M319.533,809.264h-25.129v-18.236h25.129v18.236ZM296.552,807.115h20.832v-13.939h-20.832v13.939Z"/>
              </g>
              <g>
                <path class="st15" d="M319.609,809.338h-25.279v-18.385h25.279v18.385ZM296.628,807.04h20.683v-13.789h-20.683v13.789Z"/>
                <path class="st15" d="M320.683,810.412h-27.427v-20.534h27.427v20.534ZM295.405,808.263h23.13v-16.237h-23.13v16.237ZM318.385,808.114h-22.832v-15.937h22.832v15.937ZM297.702,805.965h18.534v-11.639h-18.534v11.639Z"/>
              </g>
            </g>
          </g>
        </g>
      </g>
    </g>
  </g>
</svg>