<?xml version="1.0" encoding="UTF-8"?>
<svg id="_레이어_1" data-name="레이어_1" xmlns="http://www.w3.org/2000/svg" xmlns:xlink="http://www.w3.org/1999/xlink" version="1.1" viewBox="0 0 155.153 105.945">
  <!-- Generator: Adobe Illustrator 29.0.0, SVG Export Plug-In . SVG Version: 2.1.0 Build 186)  -->
  <defs>
    <style>
      .st0 {
        fill: url(#linear-gradient);
      }

      .st1 {
        fill: #fff;
      }

      .st2 {
        fill: #005fee;
      }

      .st3 {
        fill: #15d0ce;
      }
    </style>
    <linearGradient id="linear-gradient" x1="30.91" y1="46.667" x2="124.243" y2="46.667" gradientUnits="userSpaceOnUse">
      <stop offset="0" stop-color="#fff"/>
      <stop offset="1" stop-color="#fff" stop-opacity="0"/>
    </linearGradient>
  </defs>
  <g>
    <path class="st0" d="M100.91,23.333h-46.667c-12.886,0-23.333,10.447-23.333,23.333s10.447,23.333,23.333,23.333h46.667c12.887,0,23.333-10.446,23.333-23.333s-10.446-23.333-23.333-23.333Z"/>
    <circle class="st3" cx="77.576" cy="23.333" r="23.333"/>
    <circle class="st2" cx="100.91" cy="46.667" r="23.333"/>
  </g>
  <g>
    <g>
      <polygon class="st1" points="27.775 101.509 30.436 101.509 30.436 90.326 27.775 90.326 27.775 94.634 22.958 94.634 22.958 90.326 20.297 90.326 20.297 101.509 22.958 101.509 22.958 97.401 22.958 97.187 27.775 97.2 27.775 97.401 27.775 101.509"/>
      <polygon class="st1" points="7.427 97.03 2.395 90.036 0 91.268 0 101.509 2.603 101.509 2.603 94.765 7.876 101.875 7.886 101.875 10.058 100.74 10.058 90.326 7.427 90.326 7.427 97.03"/>
      <polygon class="st1" points="43.279 94.765 48.551 101.875 48.562 101.875 50.734 100.739 50.734 90.326 48.103 90.326 48.103 97.03 43.07 90.036 40.676 91.268 40.676 101.508 43.279 101.508 43.279 94.765"/>
    </g>
    <g>
      <path class="st1" d="M61.992,102.55c-1.5-1.737-2.369-4.027-2.369-6.607,0-3.08,1.211-5.712,3.264-7.528,1.79-1.553,4.185-2.448,6.897-2.448,1.763,0,3.316.316,4.58.895,1.079.5,2.237,1.369,3.211,2.58l-3.264,2.737c-.684-.684-1.369-1.184-2.185-1.5-.684-.263-1.448-.421-2.237-.421-1.658,0-2.816.474-3.817,1.29-1.237,1.027-1.974,2.553-1.974,4.396,0,1.579.527,3.001,1.474,4.001,1.027,1.106,2.58,1.685,4.317,1.685.895,0,1.737-.184,2.422-.5.869-.369,1.606-.948,2.264-1.764l3.29,2.474c-.869,1.264-1.843,2.237-3.054,2.922-1.342.763-2.974,1.158-5.027,1.158-3.211,0-5.949-1.29-7.792-3.369Z"/>
      <path class="st1" d="M84.727,86.467v14.609h9.239v4.343h-13.767v-18.952h4.528Z"/>
      <path class="st1" d="M97.83,103.181c-1.869-1.79-2.922-4.343-2.922-7.212s1.053-5.422,2.922-7.212c1.816-1.737,4.291-2.764,7.081-2.764s5.264,1.027,7.081,2.764c1.869,1.79,2.922,4.343,2.922,7.212s-1.053,5.422-2.922,7.212c-1.816,1.737-4.291,2.764-7.081,2.764s-5.264-1.027-7.081-2.764ZM108.991,99.917c.921-1.027,1.448-2.343,1.448-3.948s-.527-2.922-1.448-3.948c-1-1.079-2.369-1.711-4.08-1.711s-3.106.632-4.106,1.711c-.921,1.027-1.421,2.343-1.421,3.948s.527,2.922,1.448,3.948c1,1.079,2.369,1.711,4.08,1.711s3.08-.632,4.08-1.711Z"/>
      <path class="st1" d="M121.307,104.971c-1.658-.869-2.79-2.158-3.448-3.869-.316-.869-.474-2-.474-3.053v-11.582h4.475v11.003c0,.5.132,1.448.263,1.816.316.921.816,1.527,1.527,1.869.895.421,1.632.447,2.027.447s1.132-.026,2.027-.447c.711-.342,1.211-.948,1.527-1.869.132-.369.263-1.316.263-1.816v-11.003h4.475v11.582c0,1.053-.158,2.185-.474,3.053-.658,1.711-1.79,3.001-3.448,3.869-1.211.632-2.738.974-4.37.974s-3.159-.342-4.37-.974Z"/>
      <path class="st1" d="M144.755,105.419h-7.317l-.026-18.952h8.134c.816,0,2.395.132,3.159.316,2.448.605,3.896,1.843,5.027,3.659.974,1.527,1.421,3.422,1.421,5.501,0,1.737-.342,3.29-.948,4.633-1,2.158-2.422,3.501-4.922,4.264-1.29.395-2.975.579-4.528.579ZM144.861,90.757h-3.054v10.397h3.527c.869,0,1.948-.184,2.343-.316,1.105-.342,1.737-.895,2.185-1.737.527-.921.684-2.027.684-3.159,0-.895-.105-1.737-.395-2.448-.474-1.158-.974-1.869-2.395-2.422-.5-.184-1.553-.316-2.895-.316Z"/>
    </g>
  </g>
</svg>