<?xml version="1.0" encoding="UTF-8"?>
<svg id="_레이어_1" data-name="레이어_1" xmlns="http://www.w3.org/2000/svg" version="1.1" viewBox="0 0 347.611 44.782">
  <!-- Generator: Adobe Illustrator 29.0.0, SVG Export Plug-In . SVG Version: 2.1.0 Build 186)  -->
  <defs>
    <style>
      .st0 {
        fill: #fff;
      }
    </style>
  </defs>
  <g>
    <g>
      <path class="st0" d="M138.793,37.17c-3.363-3.894-5.31-9.027-5.31-14.809,0-6.903,2.714-12.803,7.316-16.874,4.012-3.481,9.382-5.487,15.459-5.487,3.953,0,7.434.708,10.266,2.006,2.419,1.121,5.015,3.068,7.198,5.782l-7.316,6.136c-1.534-1.534-3.068-2.655-4.897-3.363-1.534-.59-3.245-.944-5.015-.944-3.717,0-6.313,1.062-8.555,2.891-2.773,2.301-4.425,5.723-4.425,9.853,0,3.54,1.18,6.726,3.304,8.968,2.301,2.478,5.782,3.776,9.676,3.776,2.006,0,3.894-.413,5.428-1.121,1.947-.826,3.599-2.124,5.074-3.953l7.375,5.546c-1.947,2.832-4.13,5.015-6.845,6.549-3.009,1.711-6.667,2.596-11.269,2.596-7.198,0-13.334-2.891-17.465-7.552Z"/>
      <path class="st0" d="M189.753,1.121v32.745h20.709v9.735h-30.858V1.121h10.148Z"/>
      <path class="st0" d="M219.123,38.586c-4.189-4.012-6.549-9.735-6.549-16.166s2.36-12.154,6.549-16.166C223.195,2.36,228.741.059,234.994.059s11.8,2.301,15.872,6.195c4.189,4.012,6.549,9.735,6.549,16.166s-2.36,12.154-6.549,16.166c-4.071,3.894-9.618,6.195-15.872,6.195s-11.8-2.301-15.871-6.195ZM244.14,31.27c2.065-2.301,3.245-5.251,3.245-8.85s-1.18-6.549-3.245-8.85c-2.242-2.419-5.31-3.835-9.145-3.835s-6.962,1.416-9.204,3.835c-2.065,2.301-3.186,5.251-3.186,8.85s1.18,6.549,3.245,8.85c2.242,2.419,5.31,3.835,9.145,3.835s6.903-1.416,9.145-3.835Z"/>
      <path class="st0" d="M271.747,42.598c-3.717-1.947-6.254-4.838-7.729-8.673-.708-1.947-1.062-4.484-1.062-6.844V1.121h10.03v24.662c0,1.121.295,3.245.59,4.071.708,2.065,1.829,3.422,3.422,4.189,2.006.944,3.658,1.003,4.543,1.003s2.537-.059,4.543-1.003c1.593-.767,2.714-2.124,3.422-4.189.295-.826.59-2.95.59-4.071V1.121h10.03v25.961c0,2.36-.354,4.897-1.062,6.844-1.475,3.835-4.012,6.726-7.729,8.673-2.714,1.416-6.136,2.183-9.794,2.183s-7.08-.767-9.794-2.183Z"/>
      <path class="st0" d="M324.305,43.602h-16.402l-.059-42.481h18.232c1.829,0,5.369.295,7.08.708,5.487,1.357,8.732,4.13,11.269,8.201,2.183,3.422,3.186,7.67,3.186,12.331,0,3.894-.767,7.375-2.124,10.384-2.242,4.838-5.428,7.847-11.033,9.558-2.891.885-6.667,1.298-10.148,1.298ZM324.542,10.738h-6.845v23.305h7.906c1.947,0,4.366-.413,5.251-.708,2.478-.767,3.894-2.006,4.897-3.894,1.18-2.065,1.534-4.543,1.534-7.08,0-2.006-.236-3.894-.885-5.487-1.062-2.596-2.183-4.189-5.369-5.428-1.121-.413-3.481-.708-6.49-.708Z"/>
    </g>
    <g>
      <polygon class="st0" points="62.131 34.825 68.084 34.825 68.084 9.81 62.131 9.81 62.131 19.446 51.356 19.446 51.356 9.81 45.403 9.81 45.403 34.825 51.356 34.825 51.356 25.636 51.356 25.157 62.131 25.187 62.131 25.636 62.131 34.825"/>
      <polygon class="st0" points="16.614 24.807 5.357 9.16 0 11.916 0 34.825 5.822 34.825 5.822 19.74 17.617 35.644 17.639 35.644 22.498 33.105 22.498 9.81 16.614 9.81 16.614 24.807"/>
      <polygon class="st0" points="96.811 19.74 108.605 35.644 108.629 35.644 113.488 33.104 113.488 9.811 107.602 9.811 107.602 24.807 96.345 9.16 90.988 11.916 90.988 34.824 96.811 34.824 96.811 19.74"/>
    </g>
  </g>
  <g>
    <polygon class="st0" points="62.131 34.825 68.084 34.825 68.084 9.81 62.131 9.81 62.131 19.446 51.356 19.446 51.356 9.81 45.403 9.81 45.403 34.825 51.356 34.825 51.356 25.636 51.356 25.157 62.131 25.187 62.131 25.636 62.131 34.825"/>
    <polygon class="st0" points="16.614 24.807 5.357 9.16 0 11.916 0 34.825 5.822 34.825 5.822 19.74 17.617 35.644 17.639 35.644 22.498 33.105 22.498 9.81 16.614 9.81 16.614 24.807"/>
    <polygon class="st0" points="96.811 19.74 108.605 35.644 108.629 35.644 113.488 33.104 113.488 9.811 107.602 9.811 107.602 24.807 96.345 9.16 90.988 11.916 90.988 34.824 96.811 34.824 96.811 19.74"/>
  </g>
</svg>