<?xml version="1.0" encoding="UTF-8"?>
<svg id="_레이어_1" data-name="레이어_1" xmlns="http://www.w3.org/2000/svg" version="1.1" viewBox="0 0 513.929 513.929">
  <!-- Generator: Adobe Illustrator 29.0.0, SVG Export Plug-In . SVG Version: 2.1.0 Build 186)  -->
  <defs>
    <style>
      .st0 {
        fill: #0e0e0f;
      }
    </style>
  </defs>
  <path class="st0" d="M334.991,106.113h-156.053c-40.21,0-72.825,32.615-72.825,72.825v156.053c0,40.21,32.615,72.825,72.825,72.825h156.053c40.21,0,72.825-32.615,72.825-72.825v-156.053c0-40.21-32.615-72.825-72.825-72.825ZM381.807,329.789c0,28.714-23.304,52.018-52.018,52.018h-145.65c-28.714,0-52.018-23.304-52.018-52.018v-145.65c0-28.714,23.304-52.018,52.018-52.018h145.65c28.714,0,52.018,23.304,52.018,52.018v145.65Z"/>
  <path class="st0" d="M256.964,178.938c-43.071,0-78.027,34.956-78.027,78.027s34.956,78.027,78.027,78.027,78.027-34.956,78.027-78.027-34.956-78.027-78.027-78.027ZM256.964,308.982c-28.662,0-52.018-23.356-52.018-52.018s23.356-52.018,52.018-52.018,52.018,23.356,52.018,52.018-23.356,52.018-52.018,52.018Z"/>
  <path class="st0" d="M340.193,189.341c-8.605,0-15.605-7.001-15.605-15.605s7.001-15.605,15.605-15.605,15.605,7.001,15.605,15.605-7.001,15.605-15.605,15.605Z"/>
  <path class="st0" d="M403.929,513.929H110c-60.654,0-110-49.346-110-110V110C0,49.346,49.346,0,110,0h293.929c60.654,0,110,49.346,110,110v293.929c0,60.654-49.346,110-110,110ZM110,20c-49.626,0-90,40.374-90,90v293.929c0,49.626,40.374,90,90,90h293.929c49.626,0,90-40.374,90-90V110c0-49.626-40.374-90-90-90H110Z"/>
</svg>