<?xml version="1.0" encoding="UTF-8"?>
<svg id="_레이어_1" data-name="레이어_1" xmlns="http://www.w3.org/2000/svg" version="1.1" viewBox="0 0 513.929 513.929">
  <!-- Generator: Adobe Illustrator 29.0.0, SVG Export Plug-In . SVG Version: 2.1.0 Build 186)  -->
  <defs>
    <style>
      .st0 {
        fill: #0e0e0f;
      }
    </style>
  </defs>
  <path class="st0" d="M343.291,237.663l-4.146,33.285c-.698,5.567-5.409,9.746-10.993,9.746h-53.916v139.181c-5.692.515-11.45.773-17.274.773-13.02,0-25.741-1.304-38.029-3.78v-136.173h-41.469c-3.805,0-6.913-3.124-6.913-6.938v-41.652c0-3.814,3.107-6.938,6.913-6.938h41.469v-62.474c0-38.337,30.95-69.412,69.129-69.412h48.382c3.805,0,6.913,3.124,6.913,6.938v41.652c0,3.814-3.107,6.938-6.913,6.938h-34.565c-15.263,0-27.643,12.43-27.643,27.768v48.59h58.062c6.664,0,11.815,5.866,10.993,12.496Z"/>
  <path class="st0" d="M403.929,513.929H110c-60.654,0-110-49.346-110-110V110C0,49.346,49.346,0,110,0h293.929c60.654,0,110,49.346,110,110v293.929c0,60.654-49.346,110-110,110ZM110,20c-49.626,0-90,40.374-90,90v293.929c0,49.626,40.374,90,90,90h293.929c49.626,0,90-40.374,90-90V110c0-49.626-40.374-90-90-90H110Z"/>
</svg>